<svg width="44" height="44" fill="none" xmlns="http://www.w3.org/2000/svg"><path d="M14.847 3.094c-.333 0-.582.306-.582.638v13.541H7.288a.555.555 0 00-.585.562v5.024H2.276c-.332 0-.643.285-.643.617v4.345c0 .04-.013.082-.013.125s.013.084.013.124v3.814c0 .04-.013.083-.013.125 0 .043.013.085.013.125v3.814c0 .04-.013.082-.013.124 0 .043.013.085.013.125v4.07a.671.671 0 00.643.64h39.461a.66.66 0 00.63-.64V13.122c0-.332-.298-.574-.63-.574H31.281V3.732c0-.332-.255-.638-.587-.638H14.847zm.622 1.203h14.609v35.406h-14.61V17.964c0-.042.015-.085.015-.129s-.014-.087-.014-.129V4.296zm3.162 5.933a.601.601 0 00-.584.6v2.601a.602.602 0 101.203 0v-2.6a.602.602 0 00-.62-.601zm4.039 0a.601.601 0 00-.584.6v2.601a.602.602 0 101.203 0v-2.6a.602.602 0 00-.62-.601zm4.039 0a.602.602 0 00-.584.6v2.601a.602.602 0 101.203 0v-2.6a.6.6 0 00-.62-.601zm4.572 3.52h9.883v25.953h-9.883V13.75zm-12.65 3.355a.601.601 0 00-.584.6v2.601a.602.602 0 101.203 0v-2.6a.602.602 0 00-.62-.601zm4.039 0a.601.601 0 00-.584.6v2.601a.602.602 0 101.203 0v-2.6a.602.602 0 00-.62-.601zm4.039 0a.602.602 0 00-.584.6v2.601a.602.602 0 101.203 0v-2.6a.6.6 0 00-.62-.601zm6.196 1.286a.602.602 0 000 1.203h2.276a.602.602 0 100-1.203h-2.276zm4.601 0a.602.602 0 100 1.203h2.276a.602.602 0 000-1.203h-2.276zm-29.6.086h6.36v8.851H2.835v-3.265h4.452a.603.603 0 00.618-.587v-5zm25 3.953a.602.602 0 000 1.203h2.275a.602.602 0 100-1.203h-2.276zm4.6 0a.602.602 0 100 1.203h2.276a.602.602 0 000-1.203h-2.276zm-18.875 1.55a.601.601 0 00-.584.6v2.601a.602.602 0 101.203 0v-2.6a.602.602 0 00-.62-.601zm4.039 0a.601.601 0 00-.584.6v2.601a.602.602 0 101.203 0v-2.6a.602.602 0 00-.62-.601zm4.039 0a.602.602 0 00-.584.6v2.601a.602.602 0 101.203 0v-2.6a.6.6 0 00-.62-.601zm6.196 2.489a.602.602 0 100 1.203h2.276a.602.602 0 100-1.203h-2.276zm4.601 0a.601.601 0 100 1.203h2.276a.602.602 0 000-1.203h-2.276zM2.836 28.53h11.43v2.836H2.835V28.53zm30.07 2.063a.602.602 0 100 1.203h2.275a.602.602 0 100-1.203h-2.276zm4.6 0a.601.601 0 100 1.203h2.276a.602.602 0 000-1.203h-2.276zm-18.875.26a.601.601 0 00-.584.602v2.6a.602.602 0 101.203 0v-2.6a.602.602 0 00-.62-.601zm4.039 0a.601.601 0 00-.584.602v2.6a.602.602 0 101.203 0v-2.6a.602.602 0 00-.62-.601zm4.039 0a.602.602 0 00-.584.602v2.6a.602.602 0 101.203 0v-2.6a.6.6 0 00-.62-.601zM2.836 32.57h11.43v2.922H2.835V32.57zm30.07 2.063a.602.602 0 000 1.203h2.275a.601.601 0 100-1.203h0-2.276zm4.6 0a.602.602 0 100 1.203h2.276a.601.601 0 100-1.203h-2.276zm-34.67 2.062h11.43v3.008H2.835v-3.008z" fill="#319BA5" stroke="#319BA5" stroke-width=".3"/></svg>