<svg width="40" height="40" fill="none" xmlns="http://www.w3.org/2000/svg"><path d="M8.52 0C7.06 0 5.86 1.226 5.86 2.714v4.524h-.97a.9.9 0 00-.845.947c.025.499.44.887.928.863H8.52a.888.888 0 00.78-.45.93.93 0 000-.911.888.888 0 00-.78-.449h-.886V2.714c0-.502.395-.904.886-.904h24.822c.491 0 .886.402.886.904v32.572a.893.893 0 01-.886.904H8.519a.893.893 0 01-.886-.904v-4.524H5.86v4.524C5.86 36.774 7.06 38 8.52 38h24.82c1.458 0 2.66-1.226 2.66-2.714V2.714C36 1.226 34.798 0 33.34 0H8.52zM5.86 9.048v3.619H4.807a.906.906 0 00-.803.99.897.897 0 00.97.82h3.545a.888.888 0 00.78-.45.93.93 0 000-.911.888.888 0 00-.78-.45h-.886V9.049H5.86zm12.41 1.81v5.428h-5.318v5.428h5.318v5.429h5.32v-5.429h5.318v-5.428H23.59v-5.429h-5.32zm1.774 1.809h1.772v5.428h5.32v1.81h-5.32v5.428h-1.772v-5.428h-5.32v-1.81h5.32v-5.428zM5.86 14.477v3.618h-.97a.9.9 0 00-.845.947c.025.499.44.887.928.863H8.52a.888.888 0 00.78-.45.93.93 0 000-.91.888.888 0 00-.78-.45h-.886v-3.619H5.86zm0 5.428v3.619h-.97a.9.9 0 00-.845.947c.025.498.44.887.928.862H8.52a.888.888 0 00.78-.448.93.93 0 000-.912.888.888 0 00-.78-.45h-.886v-3.618H5.86zm0 5.323v3.724h-.97a.9.9 0 00-.845.948c.025.498.44.887.928.862H8.52a.888.888 0 00.78-.449.93.93 0 000-.912.888.888 0 00-.78-.449h-.886v-3.724H5.86z" fill="#319BA5"/></svg>