<svg width="37" height="40" fill="none" xmlns="http://www.w3.org/2000/svg"><path fill-rule="evenodd" clip-rule="evenodd" d="M17.26 6.686C18.598 2.802 22.395 0 26.873 0 32.466 0 37 4.375 37 9.768c0 3.316-1.625 6-4.173 8.686a16.5 16.5 0 01.735 4.886c0 9.173-7.482 16.623-16.713 16.66h-.068C7.52 40 0 32.535 0 23.34 0 14.144 7.52 6.678 16.781 6.678h.068l.412.007zm4.765 23.37H11.611c1.066 5 3.221 8.274 5.207 8.274 1.986 0 4.14-3.274 5.207-8.275zm-12.134 0H3.22a15.161 15.161 0 009.985 7.925c-1.465-1.756-2.637-4.546-3.315-7.926zm20.45 0h-6.595c-.675 3.364-1.84 6.145-3.297 7.902a15.154 15.154 0 009.893-7.903zm-9.505-11.689h-9.54a33.527 33.527 0 00-.364 4.974c0 1.788.134 3.483.373 5.044h11.026c.239-1.56.373-3.256.373-5.044a34.05 34.05 0 00-.154-3.27 40.081 40.081 0 01-1.714-1.704zm10.65 1.43c-1.376 1.312-2.94 2.65-4.614 4.085-.875-.751-1.719-1.474-2.523-2.182.026.54.037 1.087.037 1.641a35.57 35.57 0 01-.353 5.044h7.022c.558-1.568.863-3.252.863-5.009 0-1.234-.15-2.433-.433-3.58zm-21.893-1.43H2.508a14.897 14.897 0 00-.863 5.01c0 1.756.304 3.44.863 5.008h7.095a35.566 35.566 0 01-.353-5.044c0-1.731.121-3.403.343-4.974zM26.873 1.67c4.658 0 8.445 3.633 8.445 8.098 0 4.39-3.491 7.637-8.446 11.907-4.954-4.27-8.444-7.517-8.444-11.907 0-4.465 3.787-8.098 8.444-8.098zm.036 1.67c3.713 0 6.727 2.992 6.727 6.678 0 3.687-3.014 6.68-6.727 6.68-3.713 0-6.727-2.993-6.727-6.68 0-3.686 3.014-6.679 6.727-6.679zM16.852 8.348h-.044c-1.991.01-4.152 3.314-5.212 8.348h7.8c-1.655-2.125-2.65-4.333-2.65-6.93 0-.482.037-.954.106-1.418zm-3.722.44a15.156 15.156 0 00-9.91 7.908h6.656c.664-3.352 1.814-6.134 3.254-7.908zm14.585-.44h-1.682V5.084c-2.096.366-3.747 2.016-4.099 4.1h3.293v1.67h-3.293c.352 2.083 2.003 3.733 4.099 4.098v-3.264h1.682v3.276a5.034 5.034 0 004.169-4.11H28.59v-1.67h3.293a5.033 5.033 0 00-4.17-4.111v3.276z" fill="#319BA5"/></svg>