<svg width="46" height="46" fill="none" xmlns="http://www.w3.org/2000/svg"><path d="M30.964 3.68c-.467 0-.916.169-1.265.518l-2.415 2.415-1.466-1.495a1.829 1.829 0 00-1.294-.518c-.467 0-.916.169-1.265.518L1.438 26.938a1.821 1.821 0 000 2.56l3.881 3.852a.92.92 0 001.121.144 1.725 1.725 0 012.128.259c.585.585.665 1.451.258 2.127a.92.92 0 00.144 1.121l3.853 3.882c.7.7 1.858.7 2.558 0l2.387-2.415 1.495 1.495c.7.7 1.858.7 2.558 0L43.643 18.14c.7-.7.7-1.858 0-2.558L39.76 11.73a.92.92 0 00-1.12-.144 1.725 1.725 0 01-2.128-.258 1.725 1.725 0 01-.26-2.128.92.92 0 00-.143-1.121l-3.852-3.881a1.829 1.829 0 00-1.294-.518zm0 1.84h.029L34.5 9.056c-.388 1.237-.259 2.588.719 3.565.977.978 2.329 1.107 3.565.72l3.536 3.507v.028L20.556 38.64h-.028l-1.438-1.466 15.41-15.41.288.287a.925.925 0 001.322-1.293l-.287-.288 1.38-1.409c.697-.7.7-1.858 0-2.558L33.32 12.65a.92.92 0 00-1.12-.144 1.725 1.725 0 01-2.128-.258 1.725 1.725 0 01-.26-2.128A.92.92 0 0029.67 9l-1.064-1.093 2.358-2.386zm-6.44.92h.029l1.81 1.811c.09.306.328.543.633.633l1.064 1.092c-.388 1.237-.259 2.588.719 3.565.977.978 2.329 1.107 3.565.72l3.536 3.535-1.869 1.898a.44.44 0 00-.057.057l-.086.058a.872.872 0 00-.115.144l-16.33 16.272a.927.927 0 00-.604.633l-2.703 2.702-3.536-3.536c.388-1.236.259-2.588-.719-3.565-.977-.978-2.328-1.107-3.565-.719L2.76 28.233v-.03L19.895 11.07l.776.287.69-.488.03-.834-.202-.259 3.335-3.335zm-2.156 5.031l-.662.46-.028.834.172.259.661.661.777.259.66-.46.03-.834-.173-.259-.661-.66-.776-.26zm2.616 2.617l-.69.46-.029.833.201.26.633.632.776.287.69-.489.029-.833-.201-.26-.633-.632-.776-.258zm2.587 2.587l-.66.46-.03.834.173.259.661.66.776.26.662-.46.028-.834-.172-.259-.661-.661-.777-.259zm2.617 2.616l-.69.46-.03.834.202.259.633.661.776.259.69-.489.029-.805-.173-.287-.661-.633-.776-.259z" fill="#319BA5"/></svg>