<svg width="40" height="40" fill="none" xmlns="http://www.w3.org/2000/svg"><path d="M7.2.8a2.413 2.413 0 00-2.4 2.4v33.6c0 1.316 1.084 2.4 2.4 2.4h25.6c1.315 0 2.4-1.084 2.4-2.4V3.2c0-1.315-1.085-2.4-2.4-2.4H7.2zm0 1.6h25.6c.444 0 .8.357.8.8v33.6c0 .445-.356.8-.8.8H7.2a.798.798 0 01-.8-.8V3.2c0-.443.356-.8.8-.8zM20 7.2c-4.838 0-8.8 3.963-8.8 8.8 0 4.838 3.962 8.8 8.8 8.8 4.837 0 8.8-3.962 8.8-8.8 0-4.837-3.963-8.8-8.8-8.8zm-.8 1.85v6.15h-2.35c.094-1.768.462-3.368 1.025-4.5.403-.815.869-1.359 1.325-1.65zm1.6 0c.456.291.922.835 1.325 1.65.562 1.132.931 2.732 1.025 4.5H20.8V9.05zm-4.15.576a7.156 7.156 0 00-.2.375c-.7 1.41-1.131 3.212-1.225 5.2H12.85a7.241 7.241 0 013.8-5.575zm6.7 0a7.241 7.241 0 013.8 5.575h-2.375c-.094-1.988-.525-3.79-1.225-5.2a7.081 7.081 0 00-.2-.375zM12.85 16.8h2.375c.094 1.987.525 3.79 1.225 5.2.062.128.131.253.2.375a7.241 7.241 0 01-3.8-5.575zm4 0h2.35v6.15c-.456-.29-.922-.835-1.325-1.65-.563-1.131-.931-2.731-1.025-4.5zm3.95 0h2.35c-.094 1.769-.463 3.369-1.025 4.5-.403.815-.869 1.36-1.325 1.65V16.8zm3.975 0h2.375a7.241 7.241 0 01-3.8 5.575c.069-.122.137-.247.2-.375.7-1.41 1.131-3.213 1.225-5.2zM10.25 30.4a.805.805 0 00-.725.875c.04.44.434.765.875.725h19.2a.805.805 0 00.703-.397.807.807 0 000-.806.805.805 0 00-.703-.397H10.25z" fill="#319BA5"/></svg>