<svg width="54" height="40" viewBox="0 0 54 40" fill="none" xmlns="http://www.w3.org/2000/svg">
<g clip-path="url(#clip0_180_1289)">
<path fill-rule="evenodd" clip-rule="evenodd" d="M0.00390625 0H76.0039V3.08333H0.00390625V0ZM0.00390625 6.15833H76.0039V9.24167H0.00390625V6.15833ZM0.00390625 12.3083H76.0039V15.3917H0.00390625V12.3083ZM0.00390625 18.4583H76.0039V21.5417H0.00390625V18.4583ZM0.00390625 24.625H76.0039V27.6917H0.00390625V24.625ZM0.00390625 30.7667H76.0039V33.85H0.00390625V30.7667ZM0.00390625 36.9167H76.0039V40H0.00390625V36.9167Z" fill="#BD3D44"/>
<path fill-rule="evenodd" clip-rule="evenodd" d="M0.00390625 3.08337H76.0039V6.15837H0.00390625V3.08337ZM0.00390625 9.23337H76.0039V12.3084H0.00390625V9.23337ZM0.00390625 15.3834H76.0039V18.4667H0.00390625V15.3834ZM0.00390625 21.5417H76.0039V24.625H0.00390625V21.5417ZM0.00390625 27.6917H76.0039V30.775H0.00390625V27.6917ZM0.00390625 33.8417H76.0039V36.925H0.00390625V33.8417Z" fill="white"/>
<path fill-rule="evenodd" clip-rule="evenodd" d="M0.00390625 0H30.4039V21.5417H0.00390625V0Z" fill="#192F5D"/>
<path fill-rule="evenodd" clip-rule="evenodd" d="M2.53633 0.916626L2.81966 1.77496H3.703L2.98633 2.29996L3.26133 3.15829L2.53633 2.62496L1.81966 3.14996L2.08633 2.29996L1.36133 1.77496H2.26966L2.53633 0.916626ZM7.60299 0.916626L7.87799 1.77496H8.778L8.053 2.29996L8.31966 3.15829L7.60299 2.62496L6.87799 3.14996L7.153 2.29996L6.43633 1.77496H7.31966L7.60299 0.916626ZM12.6697 0.916626L12.9447 1.77496H13.8363L13.1197 2.29996L13.3947 3.15829L12.6697 2.62496L11.9447 3.14996L12.2197 2.29996L11.4947 1.77496H12.3947L12.6697 0.916626ZM17.7363 0.916626L18.0113 1.77496H18.9113L18.1863 2.29996L18.4613 3.15829L17.7363 2.62496L17.0113 3.14996L17.2947 2.29996L16.5613 1.77496H17.453L17.7363 0.916626ZM22.803 0.916626L23.078 1.77496H23.9697L23.253 2.29996L23.528 3.15829L22.803 2.62496L22.078 3.14996L22.353 2.29996L21.6363 1.77496H22.528L22.803 0.916626ZM27.8697 0.916626L28.1447 1.77496H29.0447L28.3113 2.29996L28.5947 3.15829L27.8697 2.62496L27.1447 3.14996L27.428 2.29996L26.6947 1.77496H27.5947L27.8697 0.916626ZM5.06966 3.08329L5.34466 3.93329H6.253L5.528 4.44996L5.79466 5.30829L5.08633 4.78329L4.36133 5.30829L4.61966 4.44996L3.91966 3.93329H4.81133L5.06966 3.08329ZM10.1363 3.08329L10.4197 3.93329H11.3113L10.578 4.44996L10.8613 5.30829L10.1363 4.78329L9.41133 5.30829L9.68633 4.44996L8.96133 3.93329H9.86133L10.1363 3.08329ZM15.203 3.08329L15.478 3.93329H16.378L15.653 4.44996L15.928 5.30829L15.203 4.78329L14.478 5.30829L14.753 4.44996L14.0363 3.93329H14.9197L15.203 3.08329ZM20.2697 3.08329L20.553 3.93329H21.4447L20.7113 4.44996L20.9947 5.30829L20.2697 4.78329L19.553 5.30829L19.8197 4.44996L19.0947 3.93329H20.003L20.2697 3.08329ZM25.3363 3.08329L25.6113 3.93329H26.5113L25.7863 4.44996L26.0613 5.30829L25.3363 4.78329L24.6113 5.30829L24.8863 4.44996L24.1697 3.93329H25.0613L25.3363 3.08329ZM2.53633 5.21663L2.81966 6.08329H3.703L2.98633 6.60829L3.26133 7.45829L2.53633 6.93329L1.81966 7.45829L2.08633 6.60829L1.36133 6.08329H2.26966L2.53633 5.21663ZM7.60299 5.21663L7.87799 6.08329H8.778L8.053 6.60829L8.31966 7.45829L7.60299 6.93329L6.87799 7.45829L7.153 6.59996L6.43633 6.07496H7.31966L7.60299 5.21663ZM12.6697 5.21663L12.9447 6.07496H13.8363L13.1197 6.59996L13.3947 7.44996L12.6697 6.92496L11.9447 7.44996L12.2197 6.59163L11.4947 6.06663H12.3947L12.6697 5.21663ZM17.7363 5.21663L18.0113 6.07496H18.9113L18.1863 6.59996L18.4613 7.44996L17.7363 6.92496L17.0113 7.44996L17.2947 6.59163L16.5613 6.06663H17.453L17.7363 5.21663ZM22.803 5.21663L23.078 6.07496H23.9697L23.253 6.59996L23.528 7.44996L22.803 6.92496L22.078 7.44996L22.353 6.59163L21.6363 6.06663H22.528L22.803 5.21663ZM27.8697 5.21663L28.1447 6.07496H29.0447L28.3113 6.59996L28.5947 7.44996L27.8697 6.92496L27.1447 7.44996L27.428 6.59163L26.6947 6.06663H27.5947L27.8697 5.21663ZM5.06966 7.38329L5.34466 8.23329H6.253L5.528 8.75829L5.80299 9.61663L5.078 9.08329L4.35299 9.60829L4.628 8.75829L3.91133 8.23329H4.80299L5.06966 7.38329ZM10.1363 7.38329L10.4197 8.23329H11.3113L10.578 8.75829L10.8613 9.61663L10.1363 9.08329L9.41133 9.60829L9.68633 8.75829L8.96133 8.23329H9.86133L10.1363 7.38329ZM15.203 7.38329L15.478 8.23329H16.378L15.653 8.75829L15.928 9.61663L15.203 9.08329L14.478 9.60829L14.753 8.75829L14.0363 8.23329H14.9197L15.203 7.38329ZM20.2697 7.38329L20.553 8.23329H21.4447L20.7197 8.75829L20.9947 9.61663L20.2697 9.08329L19.553 9.60829L19.8197 8.75829L19.0947 8.23329H20.003L20.2697 7.38329ZM25.3363 7.38329L25.6113 8.23329H26.5113L25.7863 8.75829L26.0613 9.61663L25.3363 9.08329L24.6113 9.60829L24.8863 8.75829L24.1697 8.23329H25.0613L25.3363 7.38329ZM2.53633 9.54163L2.81966 10.3916H3.703L2.98633 10.9166L3.26133 11.775L2.53633 11.2416L1.81966 11.7666L2.08633 10.9166L1.36133 10.3916H2.26966L2.53633 9.54163ZM7.60299 9.54163L7.87799 10.3916H8.778L8.053 10.9166L8.31966 11.7666L7.60299 11.2416L6.87799 11.7666L7.153 10.9166L6.43633 10.3916H7.31966L7.60299 9.54163ZM12.6697 9.54163L12.9447 10.3916H13.8363L13.1197 10.9166L13.3947 11.775L12.6697 11.2416L11.9447 11.7666L12.2197 10.9166L11.4947 10.3916H12.3947L12.6697 9.54163ZM17.7363 9.54163L18.0113 10.3916H18.9113L18.1863 10.9166L18.4613 11.775L17.7363 11.2416L17.0113 11.7666L17.2947 10.9166L16.5613 10.3916H17.453L17.7363 9.54163ZM22.803 9.54163L23.078 10.3916H23.9697L23.253 10.9166L23.528 11.775L22.803 11.2416L22.078 11.7666L22.353 10.9166L21.6363 10.3916H22.528L22.803 9.54163ZM27.8697 9.54163L28.1447 10.3916H29.0447L28.3113 10.9166L28.5947 11.775L27.8697 11.2416L27.1447 11.7666L27.4197 10.9166L26.6863 10.3916H27.5863L27.8697 9.54163ZM5.06966 11.6916L5.34466 12.55H6.253L5.528 13.0666L5.80299 13.925L5.078 13.3916L4.35299 13.925L4.628 13.0666L3.91133 12.5416H4.80299L5.06966 11.6916ZM10.1363 11.6916L10.4197 12.55H11.3113L10.578 13.0666L10.8613 13.925L10.1363 13.3916L9.41133 13.925L9.68633 13.0666L8.96133 12.5416H9.86133L10.1363 11.6916ZM15.203 11.6916L15.478 12.55H16.378L15.653 13.0666L15.928 13.925L15.203 13.3916L14.478 13.925L14.753 13.0666L14.0363 12.5416H14.9197L15.203 11.6916ZM20.2697 11.6916L20.553 12.55H21.4447L20.7197 13.0666L20.9947 13.925L20.2697 13.3916L19.553 13.925L19.8197 13.0666L19.0947 12.5416H20.003L20.2697 11.6916ZM25.3363 11.6916L25.6113 12.55H26.5113L25.7863 13.0666L26.0613 13.925L25.3363 13.3916L24.6113 13.925L24.8863 13.0666L24.1697 12.5416H25.0613L25.3363 11.6916ZM2.53633 13.8416L2.81966 14.7H3.703L2.98633 15.225L3.26133 16.0666L2.53633 15.55L1.81966 16.0666L2.08633 15.2166L1.36133 14.6916H2.26966L2.53633 13.8416ZM7.60299 13.8416L7.87799 14.7H8.778L8.053 15.225L8.328 16.0666L7.60299 15.55L6.87799 16.0666L7.16133 15.2166L6.43633 14.6916H7.31966L7.60299 13.8416ZM12.6697 13.8416L12.9447 14.7H13.8363L13.1197 15.225L13.3947 16.0666L12.6697 15.55L11.9447 16.0666L12.2197 15.2166L11.4947 14.6916H12.3947L12.6697 13.8416ZM17.7363 13.8416L18.0113 14.7H18.9113L18.1863 15.225L18.4613 16.0666L17.7363 15.55L17.0113 16.0666L17.2947 15.2166L16.5613 14.6916H17.453L17.7363 13.8416ZM22.803 13.8416L23.078 14.7H23.9697L23.253 15.225L23.528 16.0666L22.803 15.55L22.078 16.0666L22.353 15.2166L21.6363 14.6916H22.528L22.803 13.8416ZM27.8697 13.8416L28.1447 14.7H29.0447L28.3113 15.225L28.5947 16.0666L27.8697 15.55L27.1447 16.0666L27.428 15.2166L26.6947 14.6916H27.5947L27.8697 13.8416ZM5.06966 16L5.34466 16.85H6.253L5.528 17.375L5.80299 18.2333L5.078 17.7L4.35299 18.225L4.628 17.375L3.91133 16.85H4.80299L5.06966 16ZM10.1363 16L10.4197 16.85H11.3113L10.578 17.375L10.8613 18.2333L10.1363 17.7L9.41133 18.225L9.68633 17.375L8.96133 16.85H9.86133L10.1363 16ZM15.203 16L15.478 16.85H16.378L15.653 17.375L15.928 18.2333L15.203 17.7L14.478 18.225L14.753 17.375L14.0363 16.85H14.9197L15.203 16ZM20.2697 16L20.553 16.85H21.4447L20.7197 17.375L20.9947 18.2333L20.2697 17.7L19.553 18.225L19.8197 17.375L19.0947 16.85H20.003L20.2697 16ZM25.3363 16L25.6113 16.85H26.5113L25.7863 17.375L26.0613 18.2333L25.3363 17.7L24.6113 18.225L24.8863 17.375L24.1697 16.85H25.0613L25.3363 16ZM2.53633 18.1583L2.81966 19.0083H3.703L2.98633 19.5333L3.26133 20.3833L2.53633 19.8583L1.81966 20.3833L2.08633 19.525L1.36133 19H2.26966L2.53633 18.1583ZM7.60299 18.1583L7.87799 19.0083H8.778L8.053 19.5333L8.328 20.3833L7.60299 19.8583L6.87799 20.3833L7.16133 19.525L6.43633 19H7.31966L7.60299 18.1583ZM12.6697 18.1583L12.9447 19.0083H13.8363L13.1363 19.5333L13.4113 20.3833L12.6863 19.8583L11.9613 20.3833L12.2363 19.525L11.5113 19H12.4113L12.6697 18.1583ZM17.7363 18.1583L18.0113 19.0083H18.9113L18.1863 19.5333L18.4613 20.3833L17.7363 19.8583L17.0113 20.3833L17.2947 19.525L16.5613 19H17.453L17.7363 18.1583ZM22.803 18.1583L23.078 19.0083H23.9697L23.253 19.5333L23.528 20.3833L22.803 19.8583L22.078 20.3833L22.353 19.525L21.6363 19H22.528L22.803 18.1583ZM27.8697 18.1583L28.1447 19.0083H29.0447L28.3113 19.5333L28.5947 20.3833L27.8697 19.8583L27.1447 20.3833L27.428 19.525L26.6947 19H27.5947L27.8697 18.1583Z" fill="white"/>
</g>
<defs>
<clipPath id="clip0_180_1289">
<rect width="53.34" height="40" rx="10" fill="white"/>
</clipPath>
</defs>
</svg>
