<svg width="54" height="40" viewBox="0 0 54 40" fill="none" xmlns="http://www.w3.org/2000/svg">
<g clip-path="url(#clip0_180_191)">
<path d="M0.00390625 0H53.3372V13.3333H0.00390625V0Z" fill="#FF9933"/>
<path d="M0.00390625 13.3334H53.3372V26.6667H0.00390625V13.3334Z" fill="white"/>
<path d="M0.00390625 26.6666H53.3372V40H0.00390625V26.6666Z" fill="#128807"/>
<path d="M26.6693 25.3333C29.6148 25.3333 32.0026 22.9455 32.0026 20C32.0026 17.0544 29.6148 14.6666 26.6693 14.6666C23.7238 14.6666 21.3359 17.0544 21.3359 20C21.3359 22.9455 23.7238 25.3333 26.6693 25.3333Z" fill="#000088"/>
<path d="M26.6706 24.6666C29.2479 24.6666 31.3372 22.5772 31.3372 19.9999C31.3372 17.4226 29.2479 15.3333 26.6706 15.3333C24.0932 15.3333 22.0039 17.4226 22.0039 19.9999C22.0039 22.5772 24.0932 24.6666 26.6706 24.6666Z" fill="white"/>
<path d="M26.6697 20.9333C27.1851 20.9333 27.603 20.5154 27.603 20C27.603 19.4845 27.1851 19.0667 26.6697 19.0667C26.1542 19.0667 25.7363 19.4845 25.7363 20C25.7363 20.5154 26.1542 20.9333 26.6697 20.9333Z" fill="#000088"/>
<path d="M31.2671 20.8488C31.3985 20.8661 31.5191 20.7736 31.5364 20.6422C31.5537 20.5107 31.4612 20.3902 31.3297 20.3729C31.1983 20.3556 31.0778 20.4481 31.0605 20.5795C31.0432 20.7109 31.1357 20.8315 31.2671 20.8488Z" fill="#000088"/>
<path d="M26.6717 24.6667L26.8317 21.8667L26.6717 20.5333L26.5117 21.8667L26.6717 24.6667Z" fill="#000088"/>
<path d="M30.8896 22.0092C31.0121 22.0599 31.1525 22.0018 31.2032 21.8793C31.2539 21.7568 31.1958 21.6164 31.0733 21.5657C30.9508 21.515 30.8104 21.5731 30.7597 21.6956C30.709 21.8181 30.7671 21.9585 30.8896 22.0092Z" fill="#000088"/>
<path d="M25.4637 24.5075L26.3429 21.8444L26.5335 20.515L26.0338 21.7615L25.4637 24.5075Z" fill="#000088"/>
<path d="M30.2263 23.0326C30.3315 23.1133 30.4821 23.0935 30.5628 22.9883C30.6435 22.8832 30.6237 22.7325 30.5185 22.6518C30.4134 22.5711 30.2627 22.591 30.182 22.6961C30.1013 22.8013 30.1212 22.952 30.2263 23.0326Z" fill="#000088"/>
<path d="M24.3375 24.0413L25.8761 21.6964L26.4042 20.4617L25.599 21.5364L24.3375 24.0413Z" fill="#000088"/>
<path d="M29.318 23.8494C29.3987 23.9546 29.5494 23.9744 29.6545 23.8937C29.7597 23.813 29.7795 23.6624 29.6988 23.5572C29.6181 23.4521 29.4675 23.4322 29.3623 23.5129C29.2572 23.5936 29.2373 23.7443 29.318 23.8494Z" fill="#000088"/>
<path d="M23.3701 23.2998L25.4632 21.433L26.2928 20.3771L25.2369 21.2067L23.3701 23.2998Z" fill="#000088"/>
<path d="M28.2304 24.404C28.2811 24.5264 28.4215 24.5846 28.544 24.5338C28.6664 24.4831 28.7246 24.3427 28.6739 24.2203C28.6232 24.0978 28.4828 24.0397 28.3603 24.0904C28.2378 24.1411 28.1797 24.2815 28.2304 24.404Z" fill="#000088"/>
<path d="M22.6274 22.3332L25.1323 21.0717L26.207 20.2665L24.9723 20.7946L22.6274 22.3332Z" fill="#000088"/>
<path d="M27.0398 24.6584C27.0571 24.7898 27.1777 24.8823 27.3091 24.865C27.4405 24.8477 27.533 24.7271 27.5157 24.5957C27.4984 24.4643 27.3778 24.3718 27.2464 24.3891C27.115 24.4064 27.0225 24.527 27.0398 24.6584Z" fill="#000088"/>
<path d="M22.1622 21.2079L24.9082 20.6377L26.1547 20.1381L24.8254 20.3286L22.1622 21.2079Z" fill="#000088"/>
<path d="M25.8209 24.5953C25.8036 24.7268 25.8961 24.8473 26.0275 24.8646C26.1589 24.8819 26.2795 24.7894 26.2968 24.658C26.3141 24.5266 26.2216 24.406 26.0902 24.3887C25.9588 24.3714 25.8382 24.4639 25.8209 24.5953Z" fill="#000088"/>
<path d="M22.0034 20L24.8034 20.16L26.1367 20L24.8034 19.84L22.0034 20Z" fill="#000088"/>
<path d="M24.66 24.219C24.6093 24.3414 24.6674 24.4818 24.7899 24.5325C24.9124 24.5833 25.0527 24.5251 25.1035 24.4026C25.1542 24.2802 25.096 24.1398 24.9736 24.0891C24.8511 24.0383 24.7107 24.0965 24.66 24.219Z" fill="#000088"/>
<path d="M22.1614 18.792L24.8246 19.6713L26.1539 19.8618L24.9074 19.3622L22.1614 18.792Z" fill="#000088"/>
<path d="M23.6372 23.5553C23.5565 23.6605 23.5763 23.8111 23.6815 23.8918C23.7866 23.9725 23.9373 23.9527 24.018 23.8475C24.0987 23.7424 24.0788 23.5917 23.9737 23.511C23.8685 23.4303 23.7178 23.4501 23.6372 23.5553Z" fill="#000088"/>
<path d="M22.6275 17.6667L24.9724 19.2053L26.2071 19.7334L25.1324 18.9282L22.6275 17.6667Z" fill="#000088"/>
<path d="M22.8182 22.6492C22.713 22.7299 22.6932 22.8806 22.7739 22.9857C22.8546 23.0909 23.0052 23.1107 23.1104 23.03C23.2155 22.9493 23.2354 22.7987 23.1547 22.6935C23.074 22.5883 22.9233 22.5685 22.8182 22.6492Z" fill="#000088"/>
<path d="M23.3685 16.7002L25.2352 18.7932L26.2912 19.6229L25.4615 18.567L23.3685 16.7002Z" fill="#000088"/>
<path d="M22.2645 21.5627C22.142 21.6134 22.0839 21.7538 22.1346 21.8763C22.1853 21.9987 22.3257 22.0569 22.4482 22.0062C22.5706 21.9554 22.6288 21.815 22.5781 21.6926C22.5274 21.5701 22.387 21.512 22.2645 21.5627Z" fill="#000088"/>
<path d="M24.3358 15.9587L25.5972 18.4636L26.4025 19.5383L25.8743 18.3036L24.3358 15.9587Z" fill="#000088"/>
<path d="M22.0119 20.3695C21.8805 20.3868 21.788 20.5074 21.8053 20.6388C21.8226 20.7702 21.9431 20.8627 22.0746 20.8454C22.206 20.8281 22.2985 20.7076 22.2812 20.5761C22.2639 20.4447 22.1433 20.3522 22.0119 20.3695Z" fill="#000088"/>
<path d="M25.4632 15.4924L26.0333 18.2384L26.533 19.4849L26.3424 18.1556L25.4632 15.4924Z" fill="#000088"/>
<path d="M22.0728 19.1511C21.9413 19.1338 21.8208 19.2263 21.8035 19.3577C21.7862 19.4891 21.8787 19.6097 22.0101 19.627C22.1415 19.6443 22.2621 19.5518 22.2794 19.4204C22.2967 19.289 22.2042 19.1684 22.0728 19.1511Z" fill="#000088"/>
<path d="M26.6681 15.3332L26.5081 18.1332L26.6681 19.4666L26.8281 18.1332L26.6681 15.3332Z" fill="#000088"/>
<path d="M22.4502 17.9907C22.3278 17.94 22.1874 17.9981 22.1367 18.1206C22.0859 18.243 22.1441 18.3834 22.2666 18.4342C22.389 18.4849 22.5294 18.4267 22.5801 18.3043C22.6308 18.1818 22.5727 18.0414 22.4502 17.9907Z" fill="#000088"/>
<path d="M27.8762 15.4923L26.9969 18.1555L26.8064 19.4848L27.306 18.2383L27.8762 15.4923Z" fill="#000088"/>
<path d="M23.1135 16.9672C23.0084 16.8865 22.8577 16.9064 22.777 17.0115C22.6963 17.1167 22.7162 17.2673 22.8213 17.348C22.9265 17.4287 23.0771 17.4089 23.1578 17.3037C23.2385 17.1986 23.2187 17.0479 23.1135 16.9672Z" fill="#000088"/>
<path d="M29.0023 15.9586L27.4638 18.3035L26.9357 19.5382L27.7409 18.4635L29.0023 15.9586Z" fill="#000088"/>
<path d="M24.0218 16.1504C23.9411 16.0453 23.7905 16.0255 23.6853 16.1061C23.5802 16.1868 23.5603 16.3375 23.641 16.4427C23.7217 16.5478 23.8724 16.5676 23.9775 16.487C24.0827 16.4063 24.1025 16.2556 24.0218 16.1504Z" fill="#000088"/>
<path d="M29.9697 16.7001L27.8767 18.5669L27.047 19.6228L28.103 18.7932L29.9697 16.7001Z" fill="#000088"/>
<path d="M25.1094 15.5959C25.0587 15.4735 24.9183 15.4153 24.7959 15.466C24.6734 15.5168 24.6152 15.6572 24.666 15.7796C24.7167 15.9021 24.8571 15.9602 24.9795 15.9095C25.102 15.8588 25.1602 15.7184 25.1094 15.5959Z" fill="#000088"/>
<path d="M30.7125 17.6667L28.2076 18.9282L27.1329 19.7334L28.3676 19.2053L30.7125 17.6667Z" fill="#000088"/>
<path d="M26.3 15.3415C26.2827 15.2101 26.1622 15.1176 26.0308 15.1349C25.8993 15.1522 25.8068 15.2727 25.8241 15.4041C25.8414 15.5356 25.962 15.6281 26.0934 15.6108C26.2248 15.5935 26.3173 15.4729 26.3 15.3415Z" fill="#000088"/>
<path d="M31.1776 18.792L28.4316 19.3622L27.1852 19.8618L28.5145 19.6713L31.1776 18.792Z" fill="#000088"/>
<path d="M27.5189 15.4045C27.5362 15.2731 27.4437 15.1526 27.3123 15.1353C27.1809 15.118 27.0603 15.2105 27.043 15.3419C27.0257 15.4733 27.1183 15.5939 27.2497 15.6112C27.3811 15.6285 27.5016 15.536 27.5189 15.4045Z" fill="#000088"/>
<path d="M31.3365 19.9999L28.5365 19.8399L27.2031 19.9999L28.5365 20.1599L31.3365 19.9999Z" fill="#000088"/>
<path d="M28.6798 15.7809C28.7306 15.6585 28.6724 15.5181 28.55 15.4674C28.4275 15.4166 28.2871 15.4748 28.2364 15.5972C28.1857 15.7197 28.2438 15.8601 28.3663 15.9108C28.4887 15.9615 28.6291 15.9034 28.6798 15.7809Z" fill="#000088"/>
<path d="M31.1784 21.2078L28.5153 20.3286L27.1859 20.1381L28.4324 20.6377L31.1784 21.2078Z" fill="#000088"/>
<path d="M29.7027 16.4447C29.7834 16.3395 29.7635 16.1889 29.6584 16.1082C29.5532 16.0275 29.4026 16.0473 29.3219 16.1525C29.2412 16.2576 29.261 16.4083 29.3662 16.489C29.4713 16.5697 29.622 16.5499 29.7027 16.4447Z" fill="#000088"/>
<path d="M30.7123 22.3333L28.3674 20.7947L27.1327 20.2666L28.2074 21.0718L30.7123 22.3333Z" fill="#000088"/>
<path d="M30.5217 17.3508C30.6268 17.2701 30.6467 17.1194 30.566 17.0143C30.4853 16.9091 30.3346 16.8893 30.2295 16.97C30.1243 17.0507 30.1045 17.2013 30.1852 17.3065C30.2659 17.4117 30.4165 17.4315 30.5217 17.3508Z" fill="#000088"/>
<path d="M29.9714 23.2998L28.1046 21.2068L27.0487 20.3771L27.8784 21.433L29.9714 23.2998Z" fill="#000088"/>
<path d="M31.0753 18.4373C31.1978 18.3866 31.256 18.2462 31.2052 18.1237C31.1545 18.0013 31.0141 17.9431 30.8917 17.9938C30.7692 18.0446 30.711 18.185 30.7618 18.3074C30.8125 18.4299 30.9529 18.488 31.0753 18.4373Z" fill="#000088"/>
<path d="M29.0041 24.0413L27.7426 21.5364L26.9374 20.4617L27.4655 21.6964L29.0041 24.0413Z" fill="#000088"/>
<path d="M31.3279 19.6305C31.4594 19.6132 31.5519 19.4926 31.5346 19.3612C31.5173 19.2298 31.3967 19.1373 31.2653 19.1546C31.1339 19.1719 31.0414 19.2924 31.0587 19.4239C31.076 19.5553 31.1965 19.6478 31.3279 19.6305Z" fill="#000088"/>
<path d="M27.8767 24.5076L27.3065 21.7616L26.8069 20.5151L26.9974 21.8444L27.8767 24.5076Z" fill="#000088"/>
</g>
<defs>
<clipPath id="clip0_180_191">
<rect width="53.34" height="40" rx="10" fill="white"/>
</clipPath>
</defs>
</svg>
