<svg width="54" height="40" viewBox="0 0 54 40" fill="none" xmlns="http://www.w3.org/2000/svg">
<g clip-path="url(#clip0_180_849)">
<path d="M0.00390625 0H53.3372V40H0.00390625V0Z" fill="white"/>
<path d="M25.6535 33.2167C25.647 33.2122 25.6414 33.2066 25.6368 33.2001H25.6285L25.5202 33.0834L25.2035 32.7084L24.7952 32.1834L24.7452 32.1084L24.2285 31.9501L23.8452 31.7751L24.0452 31.5501L24.7452 31.8417L25.2618 31.9501L26.2202 32.6584L25.9452 32.9001C25.8473 32.9912 25.7554 33.0887 25.6702 33.1917L25.7285 33.1501L25.7952 33.2001L25.6618 33.2167H25.6535ZM22.1035 32.1501C21.6336 32.1459 21.1733 32.0164 20.7702 31.7751C20.7702 31.7751 20.8285 31.6667 20.9618 31.5751C21.0952 31.4751 21.3285 31.3667 21.7118 31.3584C22.1618 31.3584 22.7118 31.5167 23.3368 31.8084C22.9634 32.0289 22.5372 32.1441 22.1035 32.1417V32.1501ZM20.1452 31.7167C20.0618 31.7167 19.9785 31.6834 19.9285 31.6334C19.8812 31.5757 19.8497 31.5068 19.8368 31.4334C19.8147 31.3407 19.8063 31.2452 19.8118 31.1501C19.8466 31.1377 19.8833 31.1321 19.9202 31.1334C20.0868 31.1334 20.2202 31.2751 20.2785 31.4167C20.3118 31.5001 20.3202 31.5667 20.2952 31.6251C20.2785 31.6751 20.2118 31.7084 20.1452 31.7084V31.7167ZM23.5868 31.3167C22.4285 31.1501 21.9368 30.7334 21.7285 30.4084C21.5118 30.0667 21.5618 29.7417 21.5618 29.7417C21.5618 29.7417 21.6285 29.7251 21.7285 29.7251C22.0452 29.7251 22.8285 29.8834 23.5868 31.3084V31.3167ZM21.2118 31.0834C20.7202 31.0834 20.3452 31.0001 20.0952 30.8334C19.9883 30.7663 19.9019 30.6712 19.8452 30.5584C19.8273 30.5159 19.8161 30.4709 19.8118 30.4251C20.0018 30.3459 20.206 30.3062 20.4118 30.3084C20.7093 30.3191 21.0016 30.3886 21.272 30.5131C21.5423 30.6375 21.7853 30.8144 21.9868 31.0334C21.7035 31.0667 21.4452 31.0834 21.2118 31.0834ZM18.8202 31.0001C18.3035 31.0001 17.5868 30.8334 17.1368 30.3917C17.1368 30.3917 17.6285 30.2667 18.1702 30.2501H18.2702C18.7618 30.2501 19.1368 30.3417 19.3868 30.5334C19.4702 30.6001 19.5202 30.6584 19.5285 30.7167C19.5368 30.7667 19.5118 30.8167 19.4618 30.8584C19.3452 30.9417 19.1452 30.9917 18.8618 30.9917H18.8202V31.0001ZM17.1285 30.1251C17.0963 30.1244 17.0646 30.1166 17.0358 30.1022C17.0069 30.0878 16.9817 30.0671 16.9618 30.0417C16.927 29.9921 16.9042 29.935 16.8952 29.8751C16.8702 29.7584 16.8785 29.6417 16.8785 29.6334C16.9048 29.6219 16.9332 29.6162 16.9618 29.6167C17.0368 29.6167 17.0952 29.6584 17.1285 29.7001C17.1792 29.7464 17.219 29.8033 17.2452 29.8667C17.2618 29.9417 17.2702 30.0001 17.2452 30.0501C17.2452 30.0834 17.1952 30.1334 17.1368 30.1334L17.1285 30.1251ZM21.0368 30.0417C20.9535 30.0417 20.8702 30.0084 20.8202 29.9584C20.7729 29.9007 20.7413 29.8318 20.7285 29.7584C20.7064 29.6657 20.6979 29.5702 20.7035 29.4751C20.7382 29.4627 20.775 29.4571 20.8118 29.4584C20.9785 29.4584 21.1202 29.6001 21.1702 29.7417C21.2035 29.8251 21.2118 29.8917 21.1952 29.9501C21.1702 30.0001 21.1118 30.0334 21.0285 30.0334L21.0368 30.0417ZM19.1368 29.9584C18.0868 29.9251 17.5368 29.6251 17.2702 29.3751C17.1539 29.2746 17.0578 29.153 16.9868 29.0167C16.9452 28.9334 16.9285 28.8667 16.9285 28.8501C16.9285 28.8334 17.0285 28.8167 17.1785 28.8167H17.2118C17.5618 28.8167 18.2868 28.9667 19.1285 29.9584H19.1368ZM20.2702 29.8584C19.6704 29.7932 19.1128 29.5188 18.6952 29.0834C18.5414 28.9152 18.425 28.7164 18.3535 28.5001C18.3535 28.5001 18.4535 28.4751 18.6035 28.4667C18.6313 28.4657 18.6591 28.4657 18.6868 28.4667C19.1035 28.4751 19.8785 28.6667 20.2702 29.8584ZM15.9368 29.4417C15.6706 29.4441 15.405 29.4162 15.1452 29.3584C14.7035 29.2417 14.5118 29.0751 14.4285 28.9501C14.3944 28.9 14.3717 28.8431 14.3618 28.7834C14.3592 28.7612 14.3592 28.7389 14.3618 28.7167C14.3618 28.7167 14.6535 28.6334 15.0618 28.6251C15.2686 28.6198 15.4753 28.6366 15.6785 28.6751C16.1036 28.7646 16.4822 29.0042 16.7452 29.3501C16.7452 29.3501 16.4118 29.4501 15.9368 29.4501V29.4417ZM17.8952 28.7417C17.8566 28.7428 17.8182 28.7359 17.7824 28.7216C17.7466 28.7072 17.7141 28.6857 17.6868 28.6584C17.6396 28.6007 17.608 28.5318 17.5952 28.4584C17.5618 28.3251 17.5702 28.1917 17.5702 28.1751C17.6018 28.1609 17.6356 28.1524 17.6702 28.1501H17.6785C17.8452 28.1501 17.9785 28.3001 18.0368 28.4417C18.0702 28.5251 18.0702 28.5917 18.0535 28.6417C18.0285 28.7001 17.9702 28.7334 17.8952 28.7334V28.7417ZM16.4285 28.5334C16.1472 28.4536 15.878 28.3359 15.6285 28.1834C15.2618 27.9584 14.8035 27.5584 14.7535 26.9334L14.8368 26.9251H14.8618C14.9702 26.9251 15.1952 26.9501 15.4702 27.1584C15.8202 27.4251 16.1368 27.8917 16.4285 28.5334ZM17.3868 28.5001C17.157 28.3954 16.9437 28.2579 16.7535 28.0917C16.2658 27.6708 15.8858 27.1393 15.6452 26.5417C15.6452 26.5417 15.7202 26.5001 15.8368 26.4917C15.8424 26.4916 15.8479 26.4916 15.8535 26.4917H15.8868C16.0535 26.4917 16.2952 26.5667 16.5618 26.8584C16.8785 27.1917 17.1535 27.7417 17.3952 28.5001H17.3868ZM14.8952 28.4251C14.5702 28.4251 14.4618 28.2584 14.4285 28.1751C14.3962 28.0959 14.3847 28.0099 14.3952 27.9251C14.4499 27.9129 14.5058 27.9073 14.5618 27.9084C14.6653 27.9051 14.7682 27.926 14.8622 27.9694C14.9562 28.0128 15.0388 28.0775 15.1035 28.1584C15.1202 28.1917 15.1702 28.2751 15.1285 28.3501C15.0952 28.4001 15.0202 28.4334 14.8952 28.4334V28.4251ZM14.1868 27.5251C13.9356 27.5278 13.6846 27.5083 13.4368 27.4667C13.1535 27.4167 12.9952 27.1751 12.9035 26.9751C12.8202 26.7667 12.7868 26.5584 12.7868 26.5584C13.6702 26.5834 14.0952 26.8417 14.2868 27.0584C14.4079 27.1829 14.4841 27.3442 14.5035 27.5167C14.5035 27.5167 14.3702 27.5334 14.1868 27.5334V27.5251ZM15.1035 26.6084C15.0323 26.5173 14.9655 26.4227 14.9035 26.3251C14.7952 26.1584 14.7035 25.9917 14.7035 25.8584C14.7035 25.7167 14.6702 25.4417 14.6535 25.2751L14.6035 24.9001C14.6285 24.9001 15.1535 25.1001 15.1535 25.6001C15.1535 26.1001 15.1035 26.6001 15.1035 26.6001V26.6084ZM14.4202 26.5584H14.4035C13.8318 26.3872 13.311 26.0781 12.8868 25.6584C12.7452 25.4917 12.6535 25.2251 12.6285 24.8751C12.6118 24.6251 12.6285 24.4167 12.6285 24.3917C12.6584 24.3838 12.6894 24.381 12.7202 24.3834C12.8368 24.3834 12.9702 24.4334 13.1368 24.5501C13.2915 24.6596 13.4365 24.7823 13.5702 24.9167C13.8368 25.1834 14.0452 25.4501 14.0452 25.4501C14.0702 25.4834 14.2118 25.7584 14.3368 26.0251C14.3953 26.1475 14.44 26.2761 14.4702 26.4084C14.4785 26.4584 14.4868 26.4917 14.4702 26.5251C14.4662 26.5389 14.4573 26.5507 14.4452 26.5584C14.4342 26.5609 14.4228 26.5609 14.4118 26.5584H14.4202Z" fill="#435125"/>
<path d="M23.8289 33.2167C23.8354 33.2122 23.8411 33.2066 23.8456 33.2001H23.8539L23.9623 33.0834L24.2789 32.7084L24.6873 32.1834L24.7373 32.1084L25.2539 31.9501L25.6373 31.7751L25.4373 31.5501L24.7373 31.8417L24.2206 31.9501L23.2623 32.6584L23.5373 32.9001C23.6351 32.9912 23.727 33.0887 23.8123 33.1917L23.7539 33.1501L23.6873 33.2001L23.8206 33.2167H23.8289ZM27.3789 32.1501C27.8488 32.1459 28.3091 32.0164 28.7123 31.7751C28.7123 31.7751 28.6539 31.6667 28.5206 31.5751C28.3873 31.4751 28.1539 31.3667 27.7706 31.3584C27.3206 31.3584 26.7706 31.5167 26.1456 31.8084C26.519 32.0289 26.9452 32.1441 27.3789 32.1417V32.1501ZM29.3373 31.7167C29.4206 31.7167 29.5039 31.6834 29.5539 31.6334C29.6012 31.5757 29.6327 31.5068 29.6456 31.4334C29.6677 31.3407 29.6761 31.2452 29.6706 31.1501C29.6359 31.1377 29.5991 31.1321 29.5623 31.1334C29.3956 31.1334 29.2623 31.2751 29.2039 31.4167C29.1706 31.5001 29.1623 31.5667 29.1873 31.6251C29.2039 31.6751 29.2706 31.7084 29.3373 31.7084V31.7167ZM25.8956 31.3167C27.0539 31.1501 27.5456 30.7334 27.7539 30.4084C27.9706 30.0667 27.9206 29.7417 27.9206 29.7417C27.9206 29.7417 27.8539 29.7251 27.7539 29.7251C27.4373 29.7251 26.6539 29.8834 25.8956 31.3084V31.3167ZM28.2706 31.0834C28.7623 31.0834 29.1373 31.0001 29.3873 30.8334C29.4941 30.7663 29.5806 30.6712 29.6373 30.5584C29.6551 30.5159 29.6664 30.4709 29.6706 30.4251C29.4806 30.3459 29.2764 30.3062 29.0706 30.3084C28.7732 30.3191 28.4808 30.3886 28.2104 30.5131C27.9401 30.6375 27.6971 30.8144 27.4956 31.0334C27.7789 31.0667 28.0373 31.0834 28.2706 31.0834ZM30.6623 31.0001C31.1789 31.0001 31.8956 30.8334 32.3456 30.3917C32.3456 30.3917 31.8539 30.2667 31.3123 30.2501H31.2123C30.7206 30.2501 30.3456 30.3417 30.0956 30.5334C30.0123 30.6001 29.9623 30.6584 29.9539 30.7167C29.9456 30.7667 29.9706 30.8167 30.0206 30.8584C30.1373 30.9417 30.3373 30.9917 30.6206 30.9917H30.6623V31.0001ZM32.3539 30.1251C32.3862 30.1244 32.4178 30.1166 32.4467 30.1022C32.4755 30.0878 32.5008 30.0671 32.5206 30.0417C32.5554 29.9921 32.5782 29.935 32.5873 29.8751C32.6123 29.7584 32.6039 29.6417 32.6039 29.6334C32.5777 29.6219 32.5492 29.6162 32.5206 29.6167C32.4456 29.6167 32.3873 29.6584 32.3539 29.7001C32.3032 29.7464 32.2634 29.8033 32.2373 29.8667C32.2206 29.9417 32.2123 30.0001 32.2373 30.0501C32.2373 30.0834 32.2873 30.1334 32.3456 30.1334L32.3539 30.1251ZM28.4456 30.0417C28.5289 30.0417 28.6123 30.0084 28.6623 29.9584C28.7095 29.9007 28.7411 29.8318 28.7539 29.7584C28.7761 29.6657 28.7845 29.5702 28.7789 29.4751C28.7442 29.4627 28.7074 29.4571 28.6706 29.4584C28.5039 29.4584 28.3623 29.6001 28.3123 29.7417C28.2789 29.8251 28.2706 29.8917 28.2873 29.9501C28.3123 30.0001 28.3706 30.0334 28.4539 30.0334L28.4456 30.0417ZM30.3456 29.9584C31.3956 29.9251 31.9456 29.6251 32.2123 29.3751C32.3285 29.2746 32.4246 29.153 32.4956 29.0167C32.5373 28.9334 32.5539 28.8667 32.5539 28.8501C32.5539 28.8334 32.4539 28.8167 32.3039 28.8167H32.2706C31.9206 28.8167 31.1956 28.9667 30.3539 29.9584H30.3456ZM29.2123 29.8584C29.812 29.7932 30.3697 29.5188 30.7873 29.0834C30.941 28.9152 31.0574 28.7164 31.1289 28.5001C31.1289 28.5001 31.0289 28.4751 30.8789 28.4667C30.8512 28.4657 30.8234 28.4657 30.7956 28.4667C30.3789 28.4751 29.6039 28.6667 29.2123 29.8584ZM33.5456 29.4417C33.8118 29.4441 34.0774 29.4162 34.3373 29.3584C34.7789 29.2417 34.9706 29.0751 35.0539 28.9501C35.088 28.9 35.1107 28.8431 35.1206 28.7834C35.1232 28.7612 35.1232 28.7389 35.1206 28.7167C35.1206 28.7167 34.8289 28.6334 34.4206 28.6251C34.2138 28.6198 34.0071 28.6366 33.8039 28.6751C33.3788 28.7646 33.0002 29.0042 32.7373 29.3501C32.7373 29.3501 33.0706 29.4501 33.5456 29.4501V29.4417ZM31.5873 28.7417C31.6258 28.7428 31.6642 28.7359 31.7 28.7216C31.7358 28.7072 31.7684 28.6857 31.7956 28.6584C31.8428 28.6007 31.8744 28.5318 31.8873 28.4584C31.9206 28.3251 31.9123 28.1917 31.9123 28.1751C31.8807 28.1609 31.8468 28.1524 31.8123 28.1501H31.8039C31.6373 28.1501 31.5039 28.3001 31.4456 28.4417C31.4123 28.5251 31.4123 28.5917 31.4289 28.6417C31.4539 28.7001 31.5123 28.7334 31.5873 28.7334V28.7417ZM33.0539 28.5334C33.3353 28.4536 33.6044 28.3359 33.8539 28.1834C34.2206 27.9584 34.6789 27.5584 34.7289 26.9334L34.6456 26.9251H34.6206C34.5123 26.9251 34.2873 26.9501 34.0123 27.1584C33.6623 27.4251 33.3456 27.8917 33.0539 28.5334ZM32.0956 28.5001C32.3254 28.3954 32.5388 28.2579 32.7289 28.0917C33.2166 27.6708 33.5966 27.1393 33.8373 26.5417C33.8373 26.5417 33.7623 26.5001 33.6456 26.4917C33.64 26.4916 33.6345 26.4916 33.6289 26.4917H33.5956C33.4289 26.4917 33.1873 26.5667 32.9206 26.8584C32.6039 27.1917 32.3289 27.7417 32.0873 28.5001H32.0956ZM34.5873 28.4251C34.9123 28.4251 35.0206 28.2584 35.0539 28.1751C35.0862 28.0959 35.0977 28.0099 35.0873 27.9251C35.0326 27.9129 34.9766 27.9073 34.9206 27.9084C34.8171 27.9051 34.7143 27.926 34.6202 27.9694C34.5262 28.0128 34.4436 28.0775 34.3789 28.1584C34.3623 28.1917 34.3123 28.2751 34.3539 28.3501C34.3873 28.4001 34.4623 28.4334 34.5873 28.4334V28.4251ZM35.2956 27.5251C35.5468 27.5278 35.7978 27.5083 36.0456 27.4667C36.3289 27.4167 36.4873 27.1751 36.5789 26.9751C36.6623 26.7667 36.6956 26.5584 36.6956 26.5584C35.8123 26.5834 35.3873 26.8417 35.1956 27.0584C35.0746 27.1829 34.9983 27.3442 34.9789 27.5167C34.9789 27.5167 35.1123 27.5334 35.2956 27.5334V27.5251ZM34.3789 26.6084C34.4502 26.5173 34.5169 26.4227 34.5789 26.3251C34.6873 26.1584 34.7789 25.9917 34.7789 25.8584C34.7789 25.7167 34.8123 25.4417 34.8289 25.2751L34.8789 24.9001C34.8539 24.9001 34.3289 25.1001 34.3289 25.6001C34.3289 26.1001 34.3789 26.6001 34.3789 26.6001V26.6084ZM35.0623 26.5584H35.0789C35.6506 26.3872 36.1714 26.0781 36.5956 25.6584C36.7373 25.4917 36.8289 25.2251 36.8539 24.8751C36.8706 24.6251 36.8539 24.4167 36.8539 24.3917C36.8241 24.3838 36.7931 24.381 36.7623 24.3834C36.6456 24.3834 36.5123 24.4334 36.3456 24.5501C36.1909 24.6596 36.0459 24.7823 35.9123 24.9167C35.6456 25.1834 35.4373 25.4501 35.4373 25.4501C35.4123 25.4834 35.2706 25.7584 35.1456 26.0251C35.0871 26.1475 35.0424 26.2761 35.0123 26.4084C35.0039 26.4584 34.9956 26.4917 35.0123 26.5251C35.0162 26.5389 35.0251 26.5507 35.0373 26.5584C35.0482 26.5609 35.0596 26.5609 35.0706 26.5584H35.0623Z" fill="#435125"/>
<path d="M43.253 6.3667L43.103 6.42503L43.0363 6.45003L42.853 6.4417L42.6697 6.52503L42.353 6.7417L42.3447 6.75003L42.2197 6.78337L42.1113 6.73337L42.053 6.7667L42.028 6.8917L41.9697 6.98337L41.8947 7.03337L41.6447 7.05837L41.4363 7.17503L41.153 7.0917L41.028 7.15003L40.753 7.40003L40.6113 7.45837H40.5697L40.378 7.45003L40.303 7.47503L40.1863 7.58337L39.9697 7.60003L39.8947 7.65003L39.7863 7.8667L39.6697 8.00003L39.603 8.00837L39.5363 7.98337L39.478 7.9917L39.453 8.13337L39.403 8.1917L39.253 8.2417L39.1363 8.3417L39.028 8.3917H38.8613L38.7197 8.47503L38.4613 8.4917L38.353 8.5917L38.328 8.6167L38.278 8.6417L38.1947 8.6917L38.178 8.70837L38.078 8.6917L37.9613 8.73337L37.9113 8.6667L37.828 8.70837L37.728 8.7167L37.5947 8.65837L37.4863 8.60837L37.4113 8.62503L37.3863 8.75003V8.7667L37.303 8.8667L37.1613 8.95837L37.1447 8.98337L36.978 9.20003L36.6613 9.53337L36.3947 9.6667L36.1197 9.75003L35.928 9.90837L35.428 10.1584L34.6197 10.5584L34.453 10.6084L34.2197 10.6417L33.803 10.8L33.4363 10.9084L33.4113 10.9167L33.3447 10.9417L32.8197 11.1L32.578 11.0667L32.4363 11.125L32.0613 11.0834H31.803L31.6363 11.1167L31.328 11.2667L30.803 11.5167L30.6363 11.6834L30.3697 11.8167L30.053 11.9167V11.7834L29.9447 11.8167L29.8613 11.8417L29.6113 11.875H29.4697L29.378 11.85H29.3613L28.8447 12.025L28.2613 12.0834L27.9697 12.175H27.753L27.6197 12.2167L27.353 12.25L27.253 12.225L27.2363 12.2167L26.453 12.25L26.0947 12.2084L25.928 12.25L25.6363 12.15L25.2197 12.1L25.1197 12.075L24.903 12.0084L24.803 12.0667L24.7197 12.075L24.553 12.0084H24.4863L24.3363 12.0584L24.253 12.0417L24.1697 11.975L23.9947 11.95L23.878 11.8584L23.253 11.9417L23.0863 11.8917L22.5113 11.725H22.428L22.3113 11.8084L22.1447 11.875L21.9863 11.9084L21.7863 11.9167L21.553 11.8584L21.3197 11.7417L21.228 11.7167L21.028 11.7417H20.9697L20.603 11.55L20.1363 11.2584L19.8197 11.1L19.6947 11.0834L19.678 11.1417L19.7363 11.325L19.7613 11.5167V11.6834L19.753 11.7917L19.778 11.8834L19.8947 12.0167L19.9447 12.1417L19.978 12.4917V12.85L19.9197 13.4167L19.903 13.5L19.8363 13.8L19.778 14.075L19.5363 14.8L19.478 14.8834L19.3113 14.9917L18.953 15.2417L18.6863 15.3917L18.603 15.425L18.3863 15.4417H18.253L18.0863 15.35L17.9197 15.3084L17.703 15.15L17.4697 15.1L17.203 14.95L17.1363 14.8667L16.9947 14.85L16.7947 14.7917L16.7197 14.7667L16.6697 14.7584L16.4197 14.75L16.178 14.6417L16.053 14.6084H15.8863L15.7113 14.6917L15.6197 14.725L15.503 14.6834H15.4197L15.3363 14.825L15.3197 14.85L15.253 14.8834H15.1113L15.0447 14.9084L14.953 14.95L14.8697 14.9834L14.828 15H14.803L14.7613 15.0167H14.7113L14.6113 14.9667L14.5613 14.9417L14.478 14.925L14.4363 14.95L14.428 15.1084L14.3863 15.2L14.253 15.3167L14.1197 15.4334L14.0363 15.5667L13.7863 16.125L13.628 16.35L13.5863 16.4084L13.4197 16.5834L13.278 16.6917L12.953 16.9417L12.6447 17.0667L12.378 17.1167H12.2447L11.9947 17.0834L11.778 17.0167L11.528 16.8667L11.2697 16.65L10.878 16.275L10.828 16.2417L10.8113 16.2334L10.6947 16.15H10.603L10.5697 16.2167L10.5447 16.3L10.528 16.375L10.4863 16.7917V16.8167L10.5113 16.9917L10.8113 17.4084L10.8947 17.625L10.9113 17.65L10.9697 17.75L11.0197 17.8334L11.128 18.1334L11.053 18.3L11.0863 18.4167L11.003 18.4834L10.9863 18.5834L11.2447 18.9167L11.303 19.0584L11.2447 19.2584L11.1363 19.375L11.1113 19.4L11.128 19.4834L11.2447 19.6L11.453 19.7834L11.5613 20.05L11.6447 20.1334L11.7447 20.1084L11.7947 20.15H11.878L11.9613 20.2334L12.0113 20.25L12.0947 20.2917L12.1613 20.375L12.1697 20.6417L12.2947 20.9584V21.1667L12.378 21.2917L12.3947 21.3917L12.353 21.6667L12.453 21.75L12.553 21.7334L12.6197 21.7417L12.728 21.8334L12.8613 22.0334L12.9947 22.0167L13.078 22.05L13.4697 22.4084L13.553 22.4584L13.628 22.4917L13.7113 22.575L13.828 22.4917H13.8447L13.978 22.475L14.0363 22.5167L14.153 22.5917H14.2947L14.628 22.6917L14.7613 22.725L15.0447 22.9L15.1697 22.975L15.2363 23.0334L15.3363 23.1167L15.5197 23.2L15.6863 23.2334L15.7697 23.25L15.8447 23.275L16.1947 23.4167L16.3863 23.4584L16.553 23.525L16.6863 23.5667H16.7863L16.9197 23.4584H17.0447L17.153 23.475L17.2613 23.4584L17.428 23.3584L17.453 23.3084L17.5697 23.2584L17.9697 23.2084L18.0863 23.2417L18.3863 23.1167L18.5863 23.1667L18.753 23.1084L19.1447 23.1917L19.2447 23.2667L19.3613 23.3917H19.503L19.4447 23.4834L19.6113 23.6667L19.7697 23.8917L19.778 23.925L19.8863 24.25L19.9697 24.3667L20.028 24.525V24.625L19.9447 24.7L19.928 24.7334V24.75L19.9447 24.7917L19.978 24.775L20.0363 24.7417L20.1197 24.725L20.253 24.7417L20.3447 24.75L20.4863 24.6834L20.5863 24.6334L20.7363 24.7H20.903L20.978 24.725L21.178 24.8167L21.278 24.825L21.3113 24.8L21.3363 24.75L21.328 24.6834L21.2447 24.5917L21.078 24.3917L21.0113 24.2917L20.9613 24.15L20.9447 23.9667L20.928 23.8417L20.953 23.675L20.9947 23.6167L21.028 23.4834L21.0363 23.45L21.1363 23.325L21.3863 23.1584L21.653 22.925L21.8613 22.7834L22.078 22.6917V22.6667L22.1113 22.675L22.6613 22.4834L22.9113 22.4417L24.578 22.5584L24.6363 22.5417L24.6947 22.3834L24.7197 22.3584L24.7447 22.3417L24.928 22.2584L25.0113 22.2417L25.2447 22.3L25.3447 22.325L25.503 22.2417H25.6113L25.8363 22.1167H25.978L26.0363 22.1L26.3113 21.9L26.5697 21.825L26.6363 21.7917L26.6613 21.775L26.9363 21.6334L27.103 21.5L27.253 21.4167L27.4197 21.3834L27.8363 21.35L27.928 21.2084L28.1113 21.1834L28.2197 21.0584L28.3447 21.0084L28.4363 20.875L28.5197 20.7667L28.6197 20.7084L28.9613 20.6834L29.3613 20.7334L29.4197 20.7L29.503 20.375L29.603 20.3167L29.853 19.9417V19.8084L29.8613 19.6917L29.903 19.525L29.878 19.2417L29.9113 18.9417L30.0697 18.5667L30.2113 18.4167L30.4363 18.2584L30.553 18.2084L30.7197 18.1834H30.7363L30.778 18.1667H31.5447L31.7363 18.1584L32.2113 18.2417H32.2447L32.403 18.3L32.5863 18.4417L32.7863 18.6334L32.8197 18.6667L32.9447 18.725L32.9863 18.7417L33.0863 18.725L33.2363 18.6417L33.353 18.5584L33.503 18.475V18.4584L33.5947 18.3334L33.628 18.275L33.928 18.1584L34.278 18.1417L34.3197 18.1167H34.3363L34.428 18H34.5113L34.728 18.0834L34.8697 18.05L34.9863 18.0917L35.078 18.0834L35.2447 18.0584L35.4363 18.1917L35.5447 18.2084L35.9197 18.425H35.953L35.9697 18.4334L36.0113 18.4167L36.078 18.4H36.0863L36.0947 18.4084L36.1447 18.4667L36.203 18.475L36.2697 18.3917L36.2447 18.3417L36.2363 18.325L36.0947 18.3L35.978 18.0917L36.0947 17.9667L35.9113 17.75L35.878 17.7084V17.7L35.8113 17.6L35.4947 17.1167L35.078 16.7834L34.9363 16.675L34.8863 16.6334L34.6613 16.4084L34.503 16.2L34.4863 16.1584L34.453 16.0834L34.3613 15.8834L34.1947 15.7584L34.0613 15.6084L33.778 15.225L33.7363 15.1667L33.6697 15.125H33.528L33.5197 15.1084H33.5113V15.1L33.578 15.0334L33.6613 15.0167L33.6863 14.9417L33.5447 14.5334V14.5167L33.5363 14.3917L33.6447 13.8L33.6613 13.725L33.8613 13.3334L33.978 13.2334L34.1113 12.975L34.228 12.8084L34.3363 12.7L34.353 12.6917L34.5447 12.575L34.7113 12.55L34.8697 12.525L35.1447 12.6084H35.3947L35.453 12.6L35.5697 12.5834L35.7613 12.525L35.853 12.4667L35.903 12.4L36.003 12.0667L36.0363 11.9584L36.0947 11.8417L36.453 11.4334L36.7197 11.1834L37.3197 10.75L37.6113 10.575L37.7613 10.4834L39.103 9.88337L39.453 9.53337L39.6363 9.35003L39.953 9.13337L40.328 8.97503L40.6613 8.72503L40.728 8.63337L40.8113 8.3417L40.8947 8.32503L40.953 8.18337L40.978 8.1417L41.2363 7.95837L41.2697 7.9417L42.2947 7.42503L42.4447 7.45003L42.528 7.32503L42.8197 7.27503H42.878L42.953 7.23337L43.0113 7.12503V7.10003L43.0197 6.8167L43.0863 6.7417L43.1197 6.55837L43.153 6.50837L43.1863 6.4667L43.2697 6.40837L43.253 6.37503V6.3667Z" fill="#D47600"/>
</g>
<defs>
<clipPath id="clip0_180_849">
<rect width="53.34" height="40" rx="10" fill="white"/>
</clipPath>
</defs>
</svg>
