<svg width="54" height="40" viewBox="0 0 54 40" fill="none" xmlns="http://www.w3.org/2000/svg">
<g clip-path="url(#clip0_180_1306)">
<path d="M0.00390625 0H53.3372V40H0.00390625V0Z" fill="#FFB700"/>
<path d="M2.22852 20L9.56185 2.22498H16.8952V37.775H9.56185L2.22852 20Z" fill="#FF5B00"/>
<path d="M2.22852 2.22498H9.56185V37.775H2.22852V2.22498Z" fill="#005641"/>
<path d="M19.1113 2.22498H51.3363V37.775H19.1113V2.22498Z" fill="#8D2029"/>
<path d="M48.2793 34.05C48.2793 34.05 48.5793 34.6584 48.9126 34.9167C49.4126 35.2834 50.4126 35.25 50.8543 35.6917C51.3626 36.2 50.8126 36.875 50.8126 36.9417L50.846 37.2917C50.846 37.2917 50.496 37.2917 50.346 37.3167C50.1293 37.35 50.046 37.5334 49.6293 37.5084C48.6043 37.4417 48.646 36.5084 48.5876 35.7167C48.5376 35.4167 48.421 35.0167 48.346 34.7167C48.2876 34.4667 48.2793 34.05 48.2793 34.05Z" fill="#FFB700" stroke="black" stroke-width="0.0916667"/>
<path d="M22.1699 34.05C22.1699 34.05 21.8699 34.6584 21.5366 34.9167C21.0366 35.2834 20.0366 35.25 19.5949 35.6917C19.0866 36.2 19.6366 36.875 19.6366 36.9417L19.6033 37.2917C19.6033 37.2917 19.9533 37.2917 20.1033 37.3167C20.3199 37.35 20.4033 37.5334 20.8199 37.5084C21.8449 37.4417 21.8033 36.5084 21.8616 35.7167C21.9116 35.4167 22.0283 35.0167 22.1033 34.7167C22.1616 34.4667 22.1699 34.05 22.1699 34.05Z" fill="#FFB700" stroke="black" stroke-width="0.0916667"/>
<path d="M48.2793 5.94995C48.2793 5.94995 48.5793 5.34162 48.9126 5.08328C49.4126 4.71662 50.4126 4.74995 50.8543 4.30829C51.3626 3.79995 50.8126 3.12495 50.8126 3.05829L50.846 2.70828C50.846 2.70828 50.496 2.70829 50.346 2.68329C50.1293 2.64995 50.046 2.46662 49.6293 2.49162C48.6043 2.55828 48.646 3.49162 48.5876 4.28328C48.5376 4.58328 48.421 4.98328 48.346 5.28328C48.2876 5.53328 48.2793 5.94995 48.2793 5.94995Z" fill="#FFB700" stroke="black" stroke-width="0.0916667"/>
<path d="M22.1777 5.94995C22.1777 5.94995 21.8777 5.34162 21.5444 5.08328C21.0444 4.71662 20.0444 4.74995 19.6027 4.30829C19.0944 3.79995 19.6444 3.12495 19.6444 3.05829L19.6111 2.70828C19.6111 2.70828 19.9611 2.70829 20.1111 2.68329C20.3277 2.64995 20.4111 2.46662 20.8277 2.49162C21.8527 2.55828 21.8111 3.49162 21.8694 4.28328C21.9194 4.58328 22.0361 4.98328 22.1111 5.28328C22.1694 5.53328 22.1777 5.94995 22.1777 5.94995Z" fill="#FFB700" stroke="black" stroke-width="0.0916667"/>
<path d="M30.2945 28.3166L30.4862 28.2L30.5695 28.3166C30.6779 28.4666 30.9862 28.4583 31.1862 28.3166L31.3445 28.1916L31.4779 28.3083C31.6445 28.4666 31.9612 28.4666 32.1695 28.3083C32.3112 28.2083 32.3362 28.2 32.4195 28.2833C32.4779 28.3333 32.6445 28.3833 32.7862 28.4083C33.0529 28.4416 33.0529 28.4416 33.2029 28.2083C33.3362 28.0166 33.3529 27.9416 33.3279 27.75C33.3046 27.6036 33.2879 27.4562 33.2779 27.3083C33.2612 27.0916 33.2695 27.0916 33.5779 26.975C33.7309 26.928 33.8812 26.8724 34.0279 26.8083C34.1529 26.7333 34.5029 26.325 34.5029 26.2416C34.5029 26.225 34.3695 26.1916 34.2029 26.175C33.5362 26.0916 33.4279 25.7416 33.8612 25.0916C34.5529 24.0083 34.9779 22.9666 34.9779 22.3083C34.9779 22.0083 35.0029 21.9083 35.0362 21.975C35.1945 22.2333 34.9112 23.3416 34.4945 24.1416L34.3279 24.4583L34.4862 24.425C34.5695 24.4 35.1029 24.175 35.6529 23.925C37.1695 23.2416 37.6862 23.1083 38.6695 23.15C39.4945 23.1833 39.8362 23.3416 40.4195 23.95C40.7279 24.2833 41.0279 24.5083 41.5695 24.85C42.7195 25.5666 42.7695 25.6333 42.8279 26.4833C42.8862 27.3416 42.8529 27.3916 42.2029 27.5333C41.6445 27.6583 41.2945 27.9166 41.2029 28.2833C41.1529 28.4666 41.2612 28.475 41.5362 28.2916L41.7445 28.1583L41.8362 28.2916C41.9612 28.4666 42.2112 28.4666 42.4195 28.2916L42.5862 28.1666L42.7529 28.2916C43.0029 28.5 43.3362 28.45 43.4362 28.1916C43.4529 28.15 43.5029 28.1583 43.6029 28.25C43.7945 28.4166 44.2695 28.4833 44.3195 28.35C44.3362 28.3 44.3029 28.1833 44.2362 28.0833C43.9612 27.6666 43.8695 27.475 43.8695 27.25C43.8695 26.9333 43.9529 26.775 44.3195 26.525C44.7529 26.2083 44.8862 25.8083 44.5529 25.8083C44.3529 25.8083 44.1445 25.625 44.0112 25.3333C43.7445 24.7333 43.8029 24.0666 44.2029 22.95C44.5096 22.2929 44.6634 21.575 44.6529 20.85C44.6529 20.2333 44.6362 20.1333 44.5029 19.7916C44.3986 19.5541 44.2701 19.3279 44.1195 19.1166L43.8862 18.8083L44.1779 18.5583C45.0779 17.8166 44.8945 16.6 43.8112 16.1333C43.4779 15.9833 43.3945 15.975 42.8112 15.975C42.4779 15.975 41.9362 16.025 41.6445 16.0833C41.253 16.1453 40.8575 16.1787 40.4612 16.1833C39.8945 16.1833 39.7945 16.1666 39.5779 16.05C39.3529 15.9333 39.3112 15.875 39.2695 15.5916C39.2655 15.5649 39.2551 15.5396 39.2391 15.5178C39.2231 15.4961 39.2021 15.4785 39.1779 15.4666C39.0945 15.4416 38.7445 15.75 38.6945 15.8833C38.6612 15.9583 38.6445 15.95 38.5695 15.8583C38.4988 15.7675 38.4426 15.6663 38.4029 15.5583C38.3195 15.2833 38.4279 15.0833 38.7529 14.925L39.0029 14.8083L38.8529 14.7166C38.5529 14.525 38.0362 14.6583 37.8529 14.9666C37.7945 15.05 37.7362 15.1333 37.7195 15.1333C37.7029 15.1333 37.6029 15.05 37.5029 14.9416C37.1112 14.5583 37.2445 13.9916 37.7695 13.825C38.0445 13.7333 38.2945 13.8 38.3445 13.9916C38.4279 14.2666 38.6612 13.9 38.6195 13.5583C38.5945 13.3333 38.5945 13.325 38.7529 13.325C38.9695 13.325 39.4195 13.6083 39.5695 13.825C39.7362 14.0833 39.7195 14.4916 39.5362 14.7916L39.3945 15.025L39.5862 14.9916C39.8529 14.9333 40.1195 14.7666 40.2529 14.5583C40.3231 14.4256 40.3626 14.2788 40.3684 14.1288C40.3741 13.9787 40.3461 13.8293 40.2862 13.6916C40.1612 13.4666 40.1779 13.4333 40.3612 13.5083C40.6612 13.6333 40.8279 13.775 40.9445 14.0166C41.0612 14.2333 41.0695 14.2833 41.0112 14.5166C40.9713 14.6587 40.9094 14.7937 40.8279 14.9166C40.7279 15.05 40.7195 15.075 40.8029 15.075C40.9529 15.075 41.2529 14.9333 41.3612 14.825C41.4195 14.7583 41.5029 14.6166 41.5445 14.4916L41.6279 14.2833L41.7112 14.45C41.8362 14.675 42.0862 14.8833 42.3862 15.0166C42.7112 15.15 42.8445 15.1583 42.6779 15.0333C42.5612 14.95 42.3445 14.325 42.4195 14.2666C42.7792 14.468 43.1076 14.7207 43.3945 15.0166C43.8695 15.4416 44.1695 15.5833 44.6029 15.5833C45.1612 15.5833 45.4862 15.1 45.2362 14.6416C45.0945 14.375 44.7695 14.3333 44.5695 14.5583C44.4862 14.6666 44.4612 14.75 44.4862 14.8666C44.5195 15 44.5112 15.0166 44.3862 15.0166C44.2195 15.0166 43.9029 14.8083 43.3362 14.3333C42.5474 13.6545 41.6407 13.1263 40.6612 12.775C39.9976 12.6216 39.3124 12.5849 38.6362 12.6666C38.1029 12.7666 37.4695 13.075 37.1195 13.4C36.5112 13.9833 36.5029 14.7583 37.0945 15.4666L37.2612 15.6666L37.1529 15.85C37.0714 15.9813 37.031 16.134 37.0369 16.2884C37.0429 16.4428 37.0949 16.592 37.1862 16.7166C37.2695 16.8333 37.3529 16.925 37.3779 16.925C37.3945 16.925 37.4112 16.85 37.4195 16.7583C37.4362 16.5333 37.5362 16.3833 37.7029 16.325C37.8529 16.2666 37.9529 16.3 38.6362 16.575C39.3612 16.8583 40.5529 16.875 41.8195 16.625C42.3685 16.4982 42.9398 16.5039 43.4862 16.6416C44.0862 16.8916 44.2195 17.5333 43.7862 18.0166C43.5945 18.2333 43.4195 18.3166 42.8112 18.4833C42.2816 18.623 41.731 18.6653 41.1862 18.6083C40.2862 18.6 39.9612 18.6166 39.6029 18.6916C39.1945 18.775 38.9529 18.7833 37.7862 18.7583L36.4279 18.725L36.5779 18.8416C36.6582 18.913 36.7446 18.9771 36.8362 19.0333C36.9445 19.0916 36.9362 19.1 36.7862 19.1583C36.7029 19.1916 36.5029 19.2166 36.3445 19.2166H36.0695L36.0362 19.45C36.0137 19.5599 36.0137 19.6733 36.0362 19.7833C36.0695 19.8666 36.0529 19.8833 35.9695 19.85C35.9112 19.825 35.7529 19.7833 35.6112 19.7583C35.4683 19.7277 35.3287 19.683 35.1945 19.625C35.0362 19.5416 35.0195 19.5416 34.9612 19.65C34.9112 19.7333 34.4445 20.0833 34.3779 20.0833C34.3477 19.8671 34.286 19.6565 34.1945 19.4583C34.1112 19.2833 34.0362 19.0833 34.0112 19.025C33.9862 18.9333 33.9695 18.925 33.9279 19C33.9029 19.0416 33.8695 19.1666 33.8445 19.2666C33.8153 19.4016 33.7647 19.531 33.6945 19.65L33.5695 19.8333L33.4862 19.675C33.4029 19.5083 33.2695 19.325 33.2195 19.325C33.2029 19.325 33.1779 19.375 33.1612 19.45C33.1195 19.5833 32.7945 19.975 32.7112 19.975C32.6862 19.975 32.6612 19.8666 32.6612 19.725C32.6612 19.6 32.6362 19.4833 32.6029 19.4833C32.5695 19.4833 32.5445 19.525 32.5445 19.5666C32.5445 19.6666 32.2695 19.9833 32.1695 19.9833C32.1362 19.9833 32.0695 20.0166 32.0279 20.0666C31.9279 20.175 31.8445 20.1583 31.8862 20.0333C31.8979 19.9266 31.8865 19.8186 31.8529 19.7166L31.7695 19.45C31.7529 19.4083 31.6529 19.425 31.4362 19.4916C31.1029 19.6 30.9862 19.575 31.1612 19.4416C31.2279 19.3916 31.3279 19.2166 31.3779 19.0583C31.4362 18.8916 31.5195 18.75 31.5612 18.7333C31.6195 18.7166 31.6195 18.7333 31.5445 18.8333C31.4963 18.8967 31.4648 18.9712 31.4529 19.05C31.4529 19.0916 31.4112 19.2 31.3695 19.2916C31.3195 19.375 31.2862 19.4583 31.2945 19.4666C31.3029 19.475 31.4362 19.425 31.5862 19.3583L31.8529 19.225V19.3416C31.8529 19.4083 31.8862 19.575 31.9279 19.7166L32.0029 19.9666L32.1862 19.8833C32.3695 19.8 32.5445 19.5 32.5445 19.2583C32.5445 19.1416 32.6112 19.1583 32.6445 19.2833C32.6445 19.3166 32.6945 19.4583 32.7279 19.5916L32.8112 19.825L32.9362 19.675C33.0112 19.5916 33.0945 19.425 33.1279 19.3166C33.1945 19.1166 33.2945 19.025 33.2945 19.175C33.2945 19.275 33.5779 19.6583 33.6279 19.625C33.6612 19.6083 33.7112 19.4666 33.7529 19.3083C33.8362 18.975 33.9612 18.7583 34.0445 18.8083C34.0779 18.825 34.0862 18.8583 34.0695 18.8916C34.0529 18.9083 34.1195 19.125 34.2195 19.3583C34.292 19.5332 34.3642 19.7082 34.4362 19.8833C34.4695 19.9666 34.5029 19.9666 34.7112 19.775C34.8362 19.6583 34.9612 19.5333 34.9695 19.4916C34.9945 19.425 35.0195 19.4333 35.1362 19.5083C35.3819 19.6381 35.6511 19.7174 35.9279 19.7416C35.9445 19.725 35.9612 19.575 35.9612 19.4083L35.9695 19.1L36.1362 19.1333C36.2195 19.1583 36.4112 19.1583 36.5529 19.1333L36.8029 19.1L36.5779 18.9333C36.4529 18.85 36.3279 18.7416 36.2945 18.6916C36.2695 18.6416 36.1529 18.5916 36.0279 18.5833C35.6862 18.55 35.0779 18.2166 35.0779 18.05C35.0779 18.0166 35.1612 18.075 35.2612 18.1666C35.4945 18.375 35.8112 18.5 36.0945 18.5H36.2945L36.1695 18.3333C36.0805 18.2041 36.0233 18.0556 36.0029 17.9C35.9862 17.65 35.9612 17.6166 35.7029 17.4416C35.5531 17.3355 35.4136 17.2155 35.2862 17.0833L35.1445 16.925L35.0695 17.1166C35.0279 17.225 34.9862 17.3083 34.9612 17.3083C34.9445 17.3083 34.8612 17.2416 34.7945 17.1666C34.7476 17.1123 34.6911 17.0671 34.6279 17.0333C34.6029 17.0333 34.5445 17.1333 34.4779 17.2583L34.3612 17.4833L34.2779 17.3583C34.2037 17.2561 34.12 17.1612 34.0279 17.075C33.9279 16.9916 33.8862 16.925 33.9195 16.925C33.9529 16.925 34.0612 17.0083 34.1695 17.1166L34.3529 17.3083L34.4362 17.1666C34.4843 17.0685 34.499 16.9572 34.4779 16.85C34.4445 16.7 34.4529 16.6916 34.5029 16.7916C34.5747 16.8857 34.6588 16.9698 34.7529 17.0416L34.9362 17.1916L35.0612 16.9666C35.1862 16.7333 35.1862 16.7333 35.2362 16.875C35.3195 17.05 35.8612 17.5 36.3195 17.7583C36.4029 17.8 36.3695 17.6666 36.2362 17.3416C36.1962 17.2348 36.1736 17.1223 36.1695 17.0083C36.1695 16.8583 36.1279 16.7916 35.9362 16.6416C35.817 16.5655 35.7173 16.4625 35.645 16.341C35.5727 16.2194 35.5297 16.0827 35.5195 15.9416C35.4945 15.8 35.4445 15.65 35.4029 15.6C35.3529 15.5166 35.3362 15.5666 35.3529 15.8166C35.3695 15.9916 35.3445 16.2083 35.3029 16.3L35.2362 16.4666L35.1862 16.325C35.1529 16.25 35.0195 16.1166 34.8945 16.0333C34.7695 15.95 34.6779 15.8666 34.6945 15.85C34.7112 15.8333 34.8445 15.9083 34.9862 16.0166C35.2112 16.1916 35.2529 16.2083 35.2862 16.1333C35.3195 16.05 35.2862 15.6666 35.2195 15.4C35.1862 15.2666 35.1862 15.2666 35.3529 15.4333C35.4695 15.55 35.5362 15.7 35.5945 15.95C35.6612 16.2666 35.6945 16.325 35.9862 16.5833C36.1612 16.7416 36.3195 16.8583 36.3279 16.85C36.3445 16.8333 36.3612 16.4333 36.3779 15.95C36.4112 15.025 36.3779 14.8 36.1529 14.5166L36.0362 14.3666L36.2195 14.175C36.4249 13.9785 36.5621 13.7216 36.6112 13.4416L36.6445 13.2166L36.4445 13.4083C36.2779 13.5666 36.1945 13.6 36.0029 13.6C35.8112 13.6 35.7362 13.5666 35.6112 13.4333C35.4165 13.2459 35.1791 13.1086 34.9195 13.0333C34.8195 13 34.7862 13.0166 34.7862 13.0833C34.7862 13.1333 34.7362 13.2666 34.6695 13.3916L34.5529 13.6083L34.3029 13.3583C34.1445 13.2166 33.9695 13.0916 33.8279 13.0583C33.4862 12.975 33.4695 12.975 33.4695 13.2333C33.4695 13.625 33.3029 13.7 33.0029 13.4416C32.7695 13.2416 32.5862 13.1916 32.1445 13.25L31.8112 13.2833L31.8695 13.4333C31.9195 13.5583 31.9112 13.6166 31.8029 13.7583C31.6279 13.9916 31.4029 14.0916 31.0529 14.0916C30.8862 14.0916 30.6862 14.125 30.6029 14.1666C30.5195 14.2083 30.3029 14.25 30.1279 14.2666C29.9612 14.2833 29.7695 14.3166 29.7112 14.3333C29.6279 14.3666 29.6279 14.3333 29.6529 14.15C29.6945 13.8666 29.4862 13.65 29.1779 13.65C28.7695 13.65 28.5862 14.0166 28.7445 14.5C28.7769 14.6043 28.8048 14.7099 28.8279 14.8166C28.9373 15.025 29.0842 15.2115 29.2612 15.3666C29.4779 15.5833 29.6779 15.8083 29.7112 15.8666C29.7783 15.9535 29.8636 16.0247 29.9612 16.075L30.1445 16.175L30.1195 15.975C30.0945 15.7583 30.1362 15.725 30.2529 15.8833C30.2945 15.9333 30.4029 16.025 30.4862 16.075C30.6279 16.1583 30.6529 16.1583 30.6529 16.0916C30.6529 16.0416 30.6779 15.9333 30.7112 15.85L30.7695 15.7L30.8779 15.9083C30.9362 16.025 31.1279 16.2833 31.3029 16.4916C31.6445 16.8833 31.8612 17.325 31.7529 17.425C31.7029 17.4666 31.5862 17.4666 31.3362 17.4166C31.1529 17.3833 30.9195 17.3583 30.8195 17.375C30.6279 17.4 30.6112 17.375 30.7362 17.225C30.8612 17.0583 30.8362 17.0333 30.5862 17.0333C30.2945 17.0333 29.5695 16.8916 29.2862 16.7833C29.0195 16.675 28.9529 16.7 28.8695 16.9583L28.7279 17.425L28.6445 17.675L28.9445 17.65C29.0992 17.6338 29.2524 17.6059 29.4029 17.5666C29.4619 17.547 29.5241 17.5385 29.5862 17.5416C29.6029 17.55 29.5612 17.65 29.5029 17.7666L29.3862 17.9666L29.5695 17.9333C29.6695 17.9083 29.8195 17.8583 29.9029 17.8166C30.0529 17.75 30.0695 17.75 30.1862 17.9416C30.3279 18.1666 30.4362 18.1583 30.4612 17.9166C30.4862 17.6666 30.5695 17.7 30.7279 18.0333C30.8779 18.35 31.0279 18.4666 31.0612 18.2833C31.0695 18.2166 31.1445 18.1166 31.2362 18.05C31.4195 17.925 31.5529 17.9666 31.6279 18.1583C31.7112 18.3666 31.5279 18.575 31.0112 18.8916C30.5327 19.1558 30.121 19.5259 29.8076 19.9737C29.4942 20.4215 29.2873 20.935 29.2029 21.475C29.0445 22.4583 29.5362 23.475 30.5029 24.2166C30.9695 24.5666 31.7112 24.9333 31.6612 24.8C31.4612 24.1916 31.4695 23.05 31.6695 22.8583C31.7029 22.825 31.6945 22.9416 31.6445 23.1166C31.4779 23.775 31.5612 24.2916 31.9779 25.5083C32.3445 26.6083 32.2945 27.0833 31.7612 27.3916C31.5945 27.4916 31.4862 27.5083 31.0279 27.5C30.5279 27.5 30.4695 27.5 30.3112 27.6333C30.1197 27.8288 29.9944 28.0795 29.9529 28.35C29.9529 28.4583 30.0695 28.4416 30.2862 28.3166H30.2945Z" fill="#FFB700" stroke="black" stroke-width="0.466667"/>
<path d="M38.3781 28.2916L38.5864 28.1583L38.7281 28.2916C38.9114 28.4666 39.1364 28.4583 39.3114 28.2833C39.3948 28.1999 39.4614 28.1499 39.4698 28.1583L39.5448 28.2916C39.5864 28.3666 39.6781 28.3999 39.8448 28.4166C40.0364 28.4249 40.0948 28.4166 40.1781 28.2999L40.2614 28.1583L40.4698 28.2916C41.0364 28.6583 41.3364 28.2749 41.0781 27.5166C40.9531 27.1333 41.0281 26.9166 41.4364 26.4333C41.6114 26.2249 41.7531 25.9999 41.7531 25.9333C41.7531 25.8416 41.7198 25.8249 41.4864 25.8333C41.2698 25.8333 41.2031 25.8083 41.0864 25.6833C40.8948 25.4749 40.9114 25.2333 41.1198 24.9666L41.2864 24.7583L40.9864 24.5583C40.747 24.3814 40.5238 24.1834 40.3198 23.9666C40.1379 23.7519 39.9155 23.5752 39.6652 23.4465C39.415 23.3178 39.1419 23.2397 38.8614 23.2166L38.4698 23.1749V23.4749C38.4698 23.8499 38.6531 24.2166 39.1364 24.8333C39.6864 25.5333 39.7198 25.6416 39.7448 26.5583L39.7698 27.3333L39.6031 27.4833C39.4614 27.6166 39.4031 27.6416 38.9364 27.6666C38.4948 27.6916 38.3948 27.7166 38.2698 27.8333C38.1235 27.94 38.0224 28.0975 37.9864 28.2749C37.9614 28.3999 37.9698 28.4249 38.0614 28.4249C38.1198 28.4249 38.2614 28.3666 38.3781 28.2916ZM26.5281 26.2916C26.5785 26.2176 26.6074 26.1311 26.6114 26.0416C26.6114 25.9583 26.6614 25.9249 26.8781 25.8916L27.1364 25.8583L26.9698 25.7166C26.7614 25.5499 26.7364 25.4249 26.9198 25.4249C27.1031 25.4249 27.4031 25.2416 27.4531 25.0999C27.4781 25.0333 27.4531 24.9499 27.4198 24.9083C27.3198 24.7916 27.1281 24.8083 27.0948 24.9416C27.0531 25.0749 26.9948 25.0749 26.8448 24.9416C26.6364 24.7333 26.6281 24.3083 26.8448 24.0583C26.9364 23.9416 26.9364 23.9416 26.8114 23.8166C26.6781 23.6833 26.5781 23.4333 26.6448 23.3666C26.6614 23.3499 26.7698 23.3666 26.8781 23.4083C27.0448 23.4583 27.1031 23.4583 27.1698 23.4083C27.3614 23.2499 27.1531 23.0499 26.8364 23.0999C26.7031 23.1166 26.6531 23.0999 26.6364 23.0333C26.6198 22.9833 26.5114 22.9166 26.3864 22.8833C26.1614 22.8249 26.1614 22.8249 26.1614 22.9833C26.1614 23.1499 26.0614 23.1833 25.8781 23.0749C25.7281 22.9916 25.5864 23.0583 25.5864 23.2166C25.5864 23.3666 25.7281 23.4333 26.0031 23.4166C26.2031 23.4083 26.2114 23.5583 26.0198 23.7749L25.8781 23.9416L25.9864 24.0999C26.1531 24.3333 26.1364 24.7249 25.9614 24.9249L25.8198 25.0749L25.7281 24.9499C25.5948 24.7833 25.4198 24.7916 25.3698 24.9749C25.3448 25.0916 25.3698 25.1416 25.5198 25.2749C25.6198 25.3583 25.7698 25.4249 25.8448 25.4249C26.0364 25.4249 26.0281 25.5833 25.8281 25.7333L25.6614 25.8583L25.9114 25.8916C26.0448 25.9166 26.1614 25.9499 26.1614 25.9749C26.1614 26.0833 26.3281 26.4083 26.3781 26.4083C26.4114 26.4083 26.4781 26.3499 26.5281 26.2833V26.2916Z" fill="#FFB700" stroke="black" stroke-width="0.466667"/>
<path d="M29.7113 24.9083C29.9363 24.825 30.4197 24.4083 30.4197 24.3166C30.4197 24.2833 30.2863 24.1333 30.1197 23.9833C29.7863 23.6833 29.4113 23.1583 29.3113 22.8583C29.2613 22.6916 29.0197 22.425 28.3363 21.7583L27.428 20.8833L27.1697 20.95C27.0197 20.9833 26.8447 21.0166 26.778 21.0166C26.653 21.0166 26.653 21.0166 26.8197 21.15L26.9863 21.2833L27.2363 21.15C27.4613 21.0166 27.4697 21.0166 27.4947 21.125C27.5113 21.1833 27.478 21.2916 27.4113 21.3666C27.353 21.4416 27.3197 21.5333 27.328 21.5583C27.353 21.5833 27.2947 21.6416 27.203 21.6916C27.0363 21.775 26.9113 22.05 27.0447 22.05C27.1697 22.05 27.4363 21.7166 27.403 21.6083C27.3863 21.55 27.403 21.4916 27.4197 21.475C27.528 21.4166 27.5197 21.675 27.4197 21.8083C27.353 21.875 27.3197 21.9583 27.3363 21.9916C27.353 22.0166 27.2947 22.075 27.203 22.125C27.0363 22.2083 26.9113 22.4833 27.0447 22.4833C27.178 22.4833 27.4363 22.1666 27.4113 22.05C27.3947 21.9916 27.3947 21.925 27.4197 21.9083C27.4947 21.875 27.528 22.075 27.4697 22.175C27.4543 22.2031 27.4463 22.2346 27.4463 22.2666C27.4463 22.2987 27.4543 22.3302 27.4697 22.3583C27.528 22.4666 27.4697 22.6666 27.3613 22.7333C27.3197 22.7583 27.3447 22.8166 27.4613 22.9C27.628 23.0166 27.628 23.0333 27.628 23.5666C27.628 24.0166 27.6447 24.1333 27.728 24.2083C27.8113 24.2916 27.828 24.2916 27.828 24.2083C27.828 24.125 27.9947 24.0083 28.1197 24.0083C28.1613 24.0083 28.403 24.2166 28.6613 24.4666C28.9197 24.7166 29.1947 24.9416 29.2697 24.95L29.453 24.9833C29.478 24.9833 29.5947 24.9583 29.7113 24.9V24.9083ZM26.9363 22.7333C26.9363 22.5916 26.6363 22.4333 26.278 22.4C25.9863 22.3583 25.9863 22.3666 25.9863 22.5083C25.9863 22.625 26.028 22.675 26.2363 22.7583C26.553 22.9 26.9363 22.8833 26.9363 22.7333Z" fill="#FFB700" stroke="black" stroke-width="0.466667"/>
<path d="M27.2615 22.7166C27.4115 22.5833 27.4781 22.4333 27.3865 22.4333C27.2865 22.4333 27.0198 22.6666 27.0198 22.7666C27.0198 22.9 27.0698 22.8916 27.2698 22.7166H27.2615ZM26.9531 22.2916C26.9615 22.2083 26.9115 22.1583 26.7615 22.0833C26.4281 21.9416 26.0448 21.8666 25.9531 21.9416C25.7781 22.0833 25.8948 22.2666 26.1698 22.3C26.2865 22.3083 26.4365 22.3416 26.5115 22.375C26.7281 22.4583 26.9281 22.4166 26.9531 22.2916ZM26.9531 21.85C26.9698 21.7416 26.8948 21.7 26.2865 21.4833C25.8281 21.3166 25.6281 21.4 25.7781 21.675C25.8281 21.7666 25.9115 21.8083 26.1031 21.8416C26.2448 21.8583 26.4365 21.9 26.5281 21.9333C26.7781 22.0166 26.9281 21.9833 26.9448 21.85H26.9531ZM27.2531 21.4416C27.3448 21.35 27.4198 21.2416 27.4198 21.1916C27.4198 21.0666 27.0615 21.3 27.0115 21.4666C26.9615 21.6583 27.0531 21.65 27.2615 21.4416H27.2531ZM26.9531 21.4166C26.9698 21.2833 26.7531 21.1666 26.3198 21.075C25.9948 21 25.8531 21.0416 25.8781 21.1916C25.8948 21.275 26.0031 21.3333 26.2948 21.425C26.7865 21.575 26.9281 21.575 26.9531 21.4166ZM27.3698 20.8C27.9365 20.55 27.9781 19.925 27.4531 19.7583C27.2365 19.6916 27.1031 19.7333 27.0198 19.875C26.9531 19.9916 26.9948 20.1916 27.0781 20.1916C27.1115 20.1916 27.1365 20.2333 27.1365 20.275C27.1365 20.5 26.2865 20.5916 25.9365 20.4166C25.8115 20.3583 25.7698 20.1916 25.8615 20.1916C25.9448 20.1916 25.9948 20.025 25.9531 19.9166C25.9031 19.75 25.7365 19.7 25.5115 19.7666C24.9865 19.9 25.0031 20.5166 25.5365 20.7666C26.1265 20.9832 26.7723 20.995 27.3698 20.8Z" fill="#FFB700" stroke="black" stroke-width="0.466667"/>
<path d="M27.0275 20.3166C27.0608 20.2833 27.0441 20.2333 26.9941 20.2C26.8775 20.1083 26.8858 19.9666 27.0108 19.8083C27.1108 19.6916 27.1191 19.5083 27.1525 17.7166C27.2108 14.625 27.4441 12.3 27.7441 11.7333C27.8691 11.5166 27.8525 11.5166 27.5358 11.7333C27.1204 12.0227 26.785 12.4126 26.5608 12.8666C26.0441 13.825 25.8691 15.1166 25.8691 17.8833C25.8691 19.45 25.8775 19.6583 25.9691 19.8C26.0525 19.95 26.0525 20 26.0025 20.15C25.9608 20.2416 25.9441 20.3416 25.9608 20.3583C26.0775 20.4666 26.9108 20.4416 27.0275 20.3166ZM31.7025 17.3666C31.7275 17.3416 31.6858 17.2 31.6191 17.0666C31.5191 16.85 31.4775 16.8166 31.3358 16.8166C30.6695 16.7587 30.0196 16.5779 29.4191 16.2833C28.9941 16.0916 28.8358 16.05 28.7941 16.1C28.6608 16.225 28.8775 16.5166 29.2108 16.675C29.7013 16.8517 30.2151 16.9556 30.7358 16.9833C30.9608 16.9833 30.9691 16.9833 30.8358 17.175L30.7525 17.3083H31.0025L31.4191 17.3583C31.6691 17.4166 31.6691 17.4166 31.7025 17.3666Z" fill="#FFB700" stroke="black" stroke-width="0.466667"/>
<path d="M34.3359 18.7583C34.3359 18.675 34.0942 18.4666 33.8609 18.325C33.6692 18.2166 33.6359 18.2083 33.6359 18.3C33.6359 18.4333 33.5192 18.775 33.4692 18.775C33.4442 18.775 33.4026 18.7083 33.3859 18.6333C33.3609 18.55 33.2692 18.3833 33.1776 18.275L33.0109 18.0666L32.8942 18.2583C32.7776 18.4416 32.5692 18.6166 32.4776 18.6166C32.4609 18.6166 32.4526 18.5166 32.4776 18.4083C32.4859 18.275 32.4776 18.175 32.4359 18.1583C32.4026 18.1333 32.3692 18.1416 32.3692 18.175C32.3692 18.2416 32.0859 18.5583 32.0359 18.5583C32.0026 18.5583 31.9692 18.475 31.9526 18.3583L31.8859 17.9583C31.8692 17.8583 31.9109 17.925 31.9692 18.125L32.1026 18.4666L32.2359 18.2583C32.2963 18.1722 32.3414 18.0764 32.3692 17.975C32.3692 17.9333 32.3942 17.9166 32.4276 17.9333C32.4609 17.95 32.5026 18.0916 32.5192 18.2416L32.5609 18.525L32.7109 18.3583C32.7894 18.2747 32.8618 18.1856 32.9276 18.0916C32.9859 17.9916 32.9942 17.9916 33.1192 18.0916C33.1859 18.1583 33.2942 18.3 33.3609 18.4166C33.4276 18.5333 33.4859 18.6166 33.4942 18.6083L33.5442 18.3416L33.5776 18.0916C33.5859 18.05 34.0276 18.3416 34.1942 18.4833C34.2942 18.575 34.3942 18.6416 34.4109 18.625C34.4276 18.6083 34.4442 18.475 34.4442 18.3166C34.4442 18.0833 34.4192 18.0166 34.2776 17.8916C34.1109 17.7416 34.1109 17.7416 34.0442 17.85C33.9609 17.9916 33.8692 17.9916 33.8692 17.85C33.8692 17.75 33.5526 17.3583 33.4776 17.3583C33.4526 17.3583 33.3859 17.4416 33.3276 17.55C33.2692 17.6583 33.2026 17.7416 33.1859 17.7416C33.1026 17.7416 32.6609 17.2416 32.6609 17.1583C32.6609 17.0916 32.6942 17.1083 32.7692 17.225C32.8437 17.3344 32.9304 17.4351 33.0276 17.525C33.1942 17.675 33.2609 17.6416 33.3276 17.35C33.3526 17.2666 33.3859 17.2 33.4109 17.2C33.4776 17.2 33.8609 17.6083 33.9109 17.7416L33.9692 17.875L34.0109 17.725C34.0609 17.5416 34.1192 17.5416 34.2026 17.7083C34.2359 17.775 34.4026 17.925 34.5692 18.025L34.8776 18.225L34.9359 18.025C34.9692 17.9166 35.0192 17.8583 35.0359 17.8916C35.0692 17.9333 34.9859 18.2666 34.9276 18.3333C34.9276 18.3416 34.8192 18.2833 34.7109 18.2083L34.5026 18.0583V18.325C34.5026 18.4666 34.4859 18.6416 34.4692 18.7083C34.4276 18.8416 34.3276 18.875 34.3276 18.7583H34.3359ZM32.7942 16.6416C32.4276 16.3416 32.3776 16.275 32.3776 16.125L32.3859 15.975L32.4109 16.1166C32.4276 16.2 32.5276 16.3333 32.6442 16.4333L32.8609 16.6L32.9859 16.45C33.0609 16.3666 33.1192 16.2666 33.1192 16.2333C33.1192 16.1333 33.1359 16.1416 33.3859 16.3583C33.6026 16.55 33.6109 16.55 33.6359 16.425C33.6609 16.3583 33.6526 16.225 33.6359 16.1333C33.5526 15.8833 33.5692 15.85 33.6776 16L33.8776 16.2333C33.9609 16.325 33.9692 16.325 34.0026 16.2083C34.0276 16.1333 34.0442 16.0083 34.0442 15.925V15.7666L34.2359 15.9916C34.4276 16.2083 34.4442 16.2166 34.4942 16.1083C34.5359 16.05 34.5609 15.9083 34.5609 15.8C34.5609 15.65 34.5776 15.6166 34.6109 15.6666C34.6776 15.7666 34.6359 16.0166 34.5192 16.2333L34.4359 16.4L34.3276 16.225C34.1859 16.0083 34.1359 16.0083 34.0526 16.2416C33.9692 16.4666 33.9109 16.4833 33.8276 16.3083C33.7776 16.2 33.7609 16.2166 33.7276 16.45L33.6859 16.7L33.4359 16.5083L33.1859 16.3166L33.0609 16.4416C33.0026 16.5166 32.9526 16.6083 32.9526 16.6416C32.9526 16.725 32.8859 16.725 32.7942 16.6416ZM36.0442 15.5083C35.9192 15.3916 35.8276 15.275 35.8442 15.2583C35.8692 15.2333 35.8859 15.225 35.8942 15.2416C35.9749 15.3276 36.0583 15.411 36.1442 15.4916C36.4276 15.7916 36.3692 15.8 36.0526 15.5083H36.0442ZM31.7109 15.0583C31.5942 14.8916 31.6026 14.7916 31.7526 14.6083C31.8526 14.4833 31.9026 14.4666 32.0859 14.4916C32.2109 14.5 32.4692 14.6083 32.6609 14.725C32.9379 14.8905 33.2549 14.9769 33.5776 14.975L33.4359 14.7416C33.2526 14.4666 33.2526 14.4333 33.4692 14.6C33.6859 14.775 33.9442 14.825 34.5276 14.8083L34.8109 14.8L34.6442 14.6333C34.4192 14.4083 34.4859 14.3833 34.7442 14.6083C34.9776 14.8166 34.9692 14.8333 34.4609 14.8833C34.2489 14.9047 34.0349 14.8906 33.8276 14.8416C33.5442 14.7583 33.5276 14.7666 33.5859 14.8583C33.6192 14.9166 33.6692 14.9583 33.6942 14.9583C33.7276 14.9583 33.7526 14.9916 33.7526 15.025C33.7526 15.1333 33.1359 15.0333 32.8359 14.8916C32.1692 14.55 32.0859 14.5166 31.9192 14.5666C31.8749 14.5837 31.8343 14.6095 31.8 14.6424C31.7656 14.6753 31.7382 14.7147 31.7192 14.7583C31.6109 15.0333 32.0026 15.25 32.1609 15.0083C32.2109 14.9333 32.2026 14.8916 32.1192 14.8C32.0026 14.6833 32.0192 14.6666 32.1692 14.7166C32.2776 14.7583 32.2859 15.0166 32.1859 15.1166C32.0776 15.225 31.8109 15.2 31.7109 15.0583Z" fill="black" stroke="black" stroke-width="0.466667"/>
<path d="M34.3698 14.3832C34.2865 14.2999 34.3531 14.2832 34.7281 14.2749C35.1948 14.2666 35.4781 14.1916 35.8115 13.9749C36.0781 13.8082 36.1531 13.8416 35.8948 14.0166C35.6698 14.1832 35.3115 14.2999 34.9531 14.3332L34.5281 14.3916C34.4615 14.4082 34.3865 14.3999 34.3615 14.3832H34.3698Z" fill="black" stroke="black" stroke-width="0.466667"/>
<path d="M30.2945 28.3166L30.4862 28.2L30.5695 28.3166C30.6779 28.4666 30.9862 28.4583 31.1862 28.3166L31.3445 28.1916L31.4779 28.3083C31.6445 28.4666 31.9612 28.4666 32.1695 28.3083C32.3112 28.2083 32.3362 28.2 32.4195 28.2833C32.4779 28.3333 32.6445 28.3833 32.7862 28.4083C33.0529 28.4416 33.0529 28.4416 33.2029 28.2083C33.3362 28.0166 33.3529 27.9416 33.3279 27.75C33.3046 27.6036 33.2879 27.4562 33.2779 27.3083C33.2612 27.0916 33.2695 27.0916 33.5779 26.975C33.7309 26.928 33.8812 26.8724 34.0279 26.8083C34.1529 26.7333 34.5029 26.325 34.5029 26.2416C34.5029 26.225 34.3695 26.1916 34.2029 26.175C33.5362 26.0916 33.4279 25.7416 33.8612 25.0916C34.5529 24.0083 34.9779 22.9666 34.9779 22.3083C34.9779 22.0083 35.0029 21.9083 35.0362 21.975C35.1945 22.2333 34.9112 23.3416 34.4945 24.1416L34.3279 24.4583L34.4862 24.425C34.5695 24.4 35.1029 24.175 35.6529 23.925C37.1695 23.2416 37.6862 23.1083 38.6695 23.15C39.4945 23.1833 39.8362 23.3416 40.4195 23.95C40.7279 24.2833 41.0279 24.5083 41.5695 24.85C42.7195 25.5666 42.7695 25.6333 42.8279 26.4833C42.8862 27.3416 42.8529 27.3916 42.2029 27.5333C41.6445 27.6583 41.2945 27.9166 41.2029 28.2833C41.1529 28.4666 41.2612 28.475 41.5362 28.2916L41.7445 28.1583L41.8362 28.2916C41.9612 28.4666 42.2112 28.4666 42.4195 28.2916L42.5862 28.1666L42.7529 28.2916C43.0029 28.5 43.3362 28.45 43.4362 28.1916C43.4529 28.15 43.5029 28.1583 43.6029 28.25C43.7945 28.4166 44.2695 28.4833 44.3195 28.35C44.3362 28.3 44.3029 28.1833 44.2362 28.0833C43.9612 27.6666 43.8695 27.475 43.8695 27.25C43.8695 26.9333 43.9529 26.775 44.3195 26.525C44.7529 26.2083 44.8862 25.8083 44.5529 25.8083C44.3529 25.8083 44.1445 25.625 44.0112 25.3333C43.7445 24.7333 43.8029 24.0666 44.2029 22.95C44.5096 22.2929 44.6634 21.575 44.6529 20.85C44.6529 20.2333 44.6362 20.1333 44.5029 19.7916C44.3986 19.5541 44.2701 19.3279 44.1195 19.1166L43.8862 18.8083L44.1779 18.5583C45.0779 17.8166 44.8945 16.6 43.8112 16.1333C43.4779 15.9833 43.3945 15.975 42.8112 15.975C42.4779 15.975 41.9362 16.025 41.6445 16.0833C41.253 16.1453 40.8575 16.1787 40.4612 16.1833C39.8945 16.1833 39.7945 16.1666 39.5779 16.05C39.3529 15.9333 39.3112 15.875 39.2695 15.5916C39.2655 15.5649 39.2551 15.5396 39.2391 15.5178C39.2231 15.4961 39.2021 15.4785 39.1779 15.4666C39.0945 15.4416 38.7445 15.75 38.6945 15.8833C38.6612 15.9583 38.6445 15.95 38.5695 15.8583C38.4988 15.7675 38.4426 15.6663 38.4029 15.5583C38.3195 15.2833 38.4279 15.0833 38.7529 14.925L39.0029 14.8083L38.8529 14.7166C38.5529 14.525 38.0362 14.6583 37.8529 14.9666C37.7945 15.05 37.7362 15.1333 37.7195 15.1333C37.7029 15.1333 37.6029 15.05 37.5029 14.9416C37.1112 14.5583 37.2445 13.9916 37.7695 13.825C38.0445 13.7333 38.2945 13.8 38.3445 13.9916C38.4279 14.2666 38.6612 13.9 38.6195 13.5583C38.5945 13.3333 38.5945 13.325 38.7529 13.325C38.9695 13.325 39.4195 13.6083 39.5695 13.825C39.7362 14.0833 39.7195 14.4916 39.5362 14.7916L39.3945 15.025L39.5862 14.9916C39.8529 14.9333 40.1195 14.7666 40.2529 14.5583C40.3231 14.4256 40.3626 14.2788 40.3684 14.1288C40.3741 13.9787 40.3461 13.8293 40.2862 13.6916C40.1612 13.4666 40.1779 13.4333 40.3612 13.5083C40.6612 13.6333 40.8279 13.775 40.9445 14.0166C41.0612 14.2333 41.0695 14.2833 41.0112 14.5166C40.9713 14.6587 40.9094 14.7937 40.8279 14.9166C40.7279 15.05 40.7195 15.075 40.8029 15.075C40.9529 15.075 41.2529 14.9333 41.3612 14.825C41.4195 14.7583 41.5029 14.6166 41.5445 14.4916L41.6279 14.2833L41.7112 14.45C41.8362 14.675 42.0862 14.8833 42.3862 15.0166C42.7112 15.15 42.8445 15.1583 42.6779 15.0333C42.5612 14.95 42.3445 14.325 42.4195 14.2666C42.7792 14.468 43.1076 14.7207 43.3945 15.0166C43.8695 15.4416 44.1695 15.5833 44.6029 15.5833C45.1612 15.5833 45.4862 15.1 45.2362 14.6416C45.0945 14.375 44.7695 14.3333 44.5695 14.5583C44.4862 14.6666 44.4612 14.75 44.4862 14.8666C44.5195 15 44.5112 15.0166 44.3862 15.0166C44.2195 15.0166 43.9029 14.8083 43.3362 14.3333C42.5474 13.6545 41.6407 13.1263 40.6612 12.775C39.9976 12.6216 39.3124 12.5849 38.6362 12.6666C38.1029 12.7666 37.4695 13.075 37.1195 13.4C36.5112 13.9833 36.5029 14.7583 37.0945 15.4666L37.2612 15.6666L37.1529 15.85C37.0714 15.9813 37.031 16.134 37.0369 16.2884C37.0429 16.4428 37.0949 16.592 37.1862 16.7166C37.2695 16.8333 37.3529 16.925 37.3779 16.925C37.3945 16.925 37.4112 16.85 37.4195 16.7583C37.4362 16.5333 37.5362 16.3833 37.7029 16.325C37.8529 16.2666 37.9529 16.3 38.6362 16.575C39.3612 16.8583 40.5529 16.875 41.8195 16.625C42.3685 16.4982 42.9398 16.5039 43.4862 16.6416C44.0862 16.8916 44.2195 17.5333 43.7862 18.0166C43.5945 18.2333 43.4195 18.3166 42.8112 18.4833C42.2816 18.623 41.731 18.6653 41.1862 18.6083C40.2862 18.6 39.9612 18.6166 39.6029 18.6916C39.1945 18.775 38.9529 18.7833 37.7862 18.7583L36.4279 18.725L36.5779 18.8416C36.6582 18.913 36.7446 18.9771 36.8362 19.0333C36.9445 19.0916 36.9362 19.1 36.7862 19.1583C36.7029 19.1916 36.5029 19.2166 36.3445 19.2166H36.0695L36.0362 19.45C36.0137 19.5599 36.0137 19.6733 36.0362 19.7833C36.0695 19.8666 36.0529 19.8833 35.9695 19.85C35.9112 19.825 35.7529 19.7833 35.6112 19.7583C35.4683 19.7277 35.3287 19.683 35.1945 19.625C35.0362 19.5416 35.0195 19.5416 34.9612 19.65C34.9112 19.7333 34.4445 20.0833 34.3779 20.0833C34.3477 19.8671 34.286 19.6565 34.1945 19.4583C34.1112 19.2833 34.0362 19.0833 34.0112 19.025C33.9862 18.9333 33.9695 18.925 33.9279 19C33.9029 19.0416 33.8695 19.1666 33.8445 19.2666C33.8153 19.4016 33.7647 19.531 33.6945 19.65L33.5695 19.8333L33.4862 19.675C33.4029 19.5083 33.2695 19.325 33.2195 19.325C33.2029 19.325 33.1779 19.375 33.1612 19.45C33.1195 19.5833 32.7945 19.975 32.7112 19.975C32.6862 19.975 32.6612 19.8666 32.6612 19.725C32.6612 19.6 32.6362 19.4833 32.6029 19.4833C32.5695 19.4833 32.5445 19.525 32.5445 19.5666C32.5445 19.6666 32.2695 19.9833 32.1695 19.9833C32.1362 19.9833 32.0695 20.0166 32.0279 20.0666C31.9279 20.175 31.8445 20.1583 31.8862 20.0333C31.8979 19.9266 31.8865 19.8186 31.8529 19.7166L31.7695 19.45C31.7529 19.4083 31.6529 19.425 31.4362 19.4916C31.1029 19.6 30.9862 19.575 31.1612 19.4416C31.2279 19.3916 31.3279 19.2166 31.3779 19.0583C31.4362 18.8916 31.5195 18.75 31.5612 18.7333C31.6195 18.7166 31.6195 18.7333 31.5445 18.8333C31.4963 18.8967 31.4648 18.9712 31.4529 19.05C31.4529 19.0916 31.4112 19.2 31.3695 19.2916C31.3195 19.375 31.2862 19.4583 31.2945 19.4666C31.3029 19.475 31.4362 19.425 31.5862 19.3583L31.8529 19.225V19.3416C31.8529 19.4083 31.8862 19.575 31.9279 19.7166L32.0029 19.9666L32.1862 19.8833C32.3695 19.8 32.5445 19.5 32.5445 19.2583C32.5445 19.1416 32.6112 19.1583 32.6445 19.2833C32.6445 19.3166 32.6945 19.4583 32.7279 19.5916L32.8112 19.825L32.9362 19.675C33.0112 19.5916 33.0945 19.425 33.1279 19.3166C33.1945 19.1166 33.2945 19.025 33.2945 19.175C33.2945 19.275 33.5779 19.6583 33.6279 19.625C33.6612 19.6083 33.7112 19.4666 33.7529 19.3083C33.8362 18.975 33.9612 18.7583 34.0445 18.8083C34.0779 18.825 34.0862 18.8583 34.0695 18.8916C34.0529 18.9083 34.1195 19.125 34.2195 19.3583C34.292 19.5332 34.3642 19.7082 34.4362 19.8833C34.4695 19.9666 34.5029 19.9666 34.7112 19.775C34.8362 19.6583 34.9612 19.5333 34.9695 19.4916C34.9945 19.425 35.0195 19.4333 35.1362 19.5083C35.3819 19.6381 35.6511 19.7174 35.9279 19.7416C35.9445 19.725 35.9612 19.575 35.9612 19.4083L35.9695 19.1L36.1362 19.1333C36.2195 19.1583 36.4112 19.1583 36.5529 19.1333L36.8029 19.1L36.5779 18.9333C36.4529 18.85 36.3279 18.7416 36.2945 18.6916C36.2695 18.6416 36.1529 18.5916 36.0279 18.5833C35.6862 18.55 35.0779 18.2166 35.0779 18.05C35.0779 18.0166 35.1612 18.075 35.2612 18.1666C35.4945 18.375 35.8112 18.5 36.0945 18.5H36.2945L36.1695 18.3333C36.0805 18.2041 36.0233 18.0556 36.0029 17.9C35.9862 17.65 35.9612 17.6166 35.7029 17.4416C35.5531 17.3355 35.4136 17.2155 35.2862 17.0833L35.1445 16.925L35.0695 17.1166C35.0279 17.225 34.9862 17.3083 34.9612 17.3083C34.9445 17.3083 34.8612 17.2416 34.7945 17.1666C34.7476 17.1123 34.6911 17.0671 34.6279 17.0333C34.6029 17.0333 34.5445 17.1333 34.4779 17.2583L34.3612 17.4833L34.2779 17.3583C34.2037 17.2561 34.12 17.1612 34.0279 17.075C33.9279 16.9916 33.8862 16.925 33.9195 16.925C33.9529 16.925 34.0612 17.0083 34.1695 17.1166L34.3529 17.3083L34.4362 17.1666C34.4843 17.0685 34.499 16.9572 34.4779 16.85C34.4445 16.7 34.4529 16.6916 34.5029 16.7916C34.5747 16.8857 34.6588 16.9698 34.7529 17.0416L34.9362 17.1916L35.0612 16.9666C35.1862 16.7333 35.1862 16.7333 35.2362 16.875C35.3195 17.05 35.8612 17.5 36.3195 17.7583C36.4029 17.8 36.3695 17.6666 36.2362 17.3416C36.1962 17.2348 36.1736 17.1223 36.1695 17.0083C36.1695 16.8583 36.1279 16.7916 35.9362 16.6416C35.817 16.5655 35.7173 16.4625 35.645 16.341C35.5727 16.2194 35.5297 16.0827 35.5195 15.9416C35.4945 15.8 35.4445 15.65 35.4029 15.6C35.3529 15.5166 35.3362 15.5666 35.3529 15.8166C35.3695 15.9916 35.3445 16.2083 35.3029 16.3L35.2362 16.4666L35.1862 16.325C35.1529 16.25 35.0195 16.1166 34.8945 16.0333C34.7695 15.95 34.6779 15.8666 34.6945 15.85C34.7112 15.8333 34.8445 15.9083 34.9862 16.0166C35.2112 16.1916 35.2529 16.2083 35.2862 16.1333C35.3195 16.05 35.2862 15.6666 35.2195 15.4C35.1862 15.2666 35.1862 15.2666 35.3529 15.4333C35.4695 15.55 35.5362 15.7 35.5945 15.95C35.6612 16.2666 35.6945 16.325 35.9862 16.5833C36.1612 16.7416 36.3195 16.8583 36.3279 16.85C36.3445 16.8333 36.3612 16.4333 36.3779 15.95C36.4112 15.025 36.3779 14.8 36.1529 14.5166L36.0362 14.3666L36.2195 14.175C36.4249 13.9785 36.5621 13.7216 36.6112 13.4416L36.6445 13.2166L36.4445 13.4083C36.2779 13.5666 36.1945 13.6 36.0029 13.6C35.8112 13.6 35.7362 13.5666 35.6112 13.4333C35.4165 13.2459 35.1791 13.1086 34.9195 13.0333C34.8195 13 34.7862 13.0166 34.7862 13.0833C34.7862 13.1333 34.7362 13.2666 34.6695 13.3916L34.5529 13.6083L34.3029 13.3583C34.1445 13.2166 33.9695 13.0916 33.8279 13.0583C33.4862 12.975 33.4695 12.975 33.4695 13.2333C33.4695 13.625 33.3029 13.7 33.0029 13.4416C32.7695 13.2416 32.5862 13.1916 32.1445 13.25L31.8112 13.2833L31.8695 13.4333C31.9195 13.5583 31.9112 13.6166 31.8029 13.7583C31.6279 13.9916 31.4029 14.0916 31.0529 14.0916C30.8862 14.0916 30.6862 14.125 30.6029 14.1666C30.5195 14.2083 30.3029 14.25 30.1279 14.2666C29.9612 14.2833 29.7695 14.3166 29.7112 14.3333C29.6279 14.3666 29.6279 14.3333 29.6529 14.15C29.6945 13.8666 29.4862 13.65 29.1779 13.65C28.7695 13.65 28.5862 14.0166 28.7445 14.5C28.7769 14.6043 28.8048 14.7099 28.8279 14.8166C28.9373 15.025 29.0842 15.2115 29.2612 15.3666C29.4779 15.5833 29.6779 15.8083 29.7112 15.8666C29.7783 15.9535 29.8636 16.0247 29.9612 16.075L30.1445 16.175L30.1195 15.975C30.0945 15.7583 30.1362 15.725 30.2529 15.8833C30.2945 15.9333 30.4029 16.025 30.4862 16.075C30.6279 16.1583 30.6529 16.1583 30.6529 16.0916C30.6529 16.0416 30.6779 15.9333 30.7112 15.85L30.7695 15.7L30.8779 15.9083C30.9362 16.025 31.1279 16.2833 31.3029 16.4916C31.6445 16.8833 31.8612 17.325 31.7529 17.425C31.7029 17.4666 31.5862 17.4666 31.3362 17.4166C31.1529 17.3833 30.9195 17.3583 30.8195 17.375C30.6279 17.4 30.6112 17.375 30.7362 17.225C30.8612 17.0583 30.8362 17.0333 30.5862 17.0333C30.2945 17.0333 29.5695 16.8916 29.2862 16.7833C29.0195 16.675 28.9529 16.7 28.8695 16.9583L28.7279 17.425L28.6445 17.675L28.9445 17.65C29.0992 17.6338 29.2524 17.6059 29.4029 17.5666C29.4619 17.547 29.5241 17.5385 29.5862 17.5416C29.6029 17.55 29.5612 17.65 29.5029 17.7666L29.3862 17.9666L29.5695 17.9333C29.6695 17.9083 29.8195 17.8583 29.9029 17.8166C30.0529 17.75 30.0695 17.75 30.1862 17.9416C30.3279 18.1666 30.4362 18.1583 30.4612 17.9166C30.4862 17.6666 30.5695 17.7 30.7279 18.0333C30.8779 18.35 31.0279 18.4666 31.0612 18.2833C31.0695 18.2166 31.1445 18.1166 31.2362 18.05C31.4195 17.925 31.5529 17.9666 31.6279 18.1583C31.7112 18.3666 31.5279 18.575 31.0112 18.8916C30.5327 19.1558 30.121 19.5259 29.8076 19.9737C29.4942 20.4215 29.2873 20.935 29.2029 21.475C29.0445 22.4583 29.5362 23.475 30.5029 24.2166C30.9695 24.5666 31.7112 24.9333 31.6612 24.8C31.4612 24.1916 31.4695 23.05 31.6695 22.8583C31.7029 22.825 31.6945 22.9416 31.6445 23.1166C31.4779 23.775 31.5612 24.2916 31.9779 25.5083C32.3445 26.6083 32.2945 27.0833 31.7612 27.3916C31.5945 27.4916 31.4862 27.5083 31.0279 27.5C30.5279 27.5 30.4695 27.5 30.3112 27.6333C30.1197 27.8288 29.9944 28.0795 29.9529 28.35C29.9529 28.4583 30.0695 28.4416 30.2862 28.3166H30.2945Z" fill="#FFB700"/>
<path d="M38.3781 28.2916L38.5864 28.1583L38.7281 28.2916C38.9114 28.4666 39.1364 28.4583 39.3114 28.2833C39.3948 28.1999 39.4614 28.1499 39.4698 28.1583L39.5448 28.2916C39.5864 28.3666 39.6781 28.3999 39.8448 28.4166C40.0364 28.4249 40.0948 28.4166 40.1781 28.2999L40.2614 28.1583L40.4698 28.2916C41.0364 28.6583 41.3364 28.2749 41.0781 27.5166C40.9531 27.1333 41.0281 26.9166 41.4364 26.4333C41.6114 26.2249 41.7531 25.9999 41.7531 25.9333C41.7531 25.8416 41.7198 25.8249 41.4864 25.8333C41.2698 25.8333 41.2031 25.8083 41.0864 25.6833C40.8948 25.4749 40.9114 25.2333 41.1198 24.9666L41.2864 24.7583L40.9864 24.5583C40.747 24.3814 40.5238 24.1834 40.3198 23.9666C40.1379 23.7519 39.9155 23.5752 39.6652 23.4465C39.415 23.3178 39.1419 23.2397 38.8614 23.2166L38.4698 23.1749V23.4749C38.4698 23.8499 38.6531 24.2166 39.1364 24.8333C39.6864 25.5333 39.7198 25.6416 39.7448 26.5583L39.7698 27.3333L39.6031 27.4833C39.4614 27.6166 39.4031 27.6416 38.9364 27.6666C38.4948 27.6916 38.3948 27.7166 38.2698 27.8333C38.1235 27.94 38.0224 28.0975 37.9864 28.2749C37.9614 28.3999 37.9698 28.4249 38.0614 28.4249C38.1198 28.4249 38.2614 28.3666 38.3781 28.2916ZM26.5281 26.2916C26.5785 26.2176 26.6074 26.1311 26.6114 26.0416C26.6114 25.9583 26.6614 25.9249 26.8781 25.8916L27.1364 25.8583L26.9698 25.7166C26.7614 25.5499 26.7364 25.4249 26.9198 25.4249C27.1031 25.4249 27.4031 25.2416 27.4531 25.0999C27.4781 25.0333 27.4531 24.9499 27.4198 24.9083C27.3198 24.7916 27.1281 24.8083 27.0948 24.9416C27.0531 25.0749 26.9948 25.0749 26.8448 24.9416C26.6364 24.7333 26.6281 24.3083 26.8448 24.0583C26.9364 23.9416 26.9364 23.9416 26.8114 23.8166C26.6781 23.6833 26.5781 23.4333 26.6448 23.3666C26.6614 23.3499 26.7698 23.3666 26.8781 23.4083C27.0448 23.4583 27.1031 23.4583 27.1698 23.4083C27.3614 23.2499 27.1531 23.0499 26.8364 23.0999C26.7031 23.1166 26.6531 23.0999 26.6364 23.0333C26.6198 22.9833 26.5114 22.9166 26.3864 22.8833C26.1614 22.8249 26.1614 22.8249 26.1614 22.9833C26.1614 23.1499 26.0614 23.1833 25.8781 23.0749C25.7281 22.9916 25.5864 23.0583 25.5864 23.2166C25.5864 23.3666 25.7281 23.4333 26.0031 23.4166C26.2031 23.4083 26.2114 23.5583 26.0198 23.7749L25.8781 23.9416L25.9864 24.0999C26.1531 24.3333 26.1364 24.7249 25.9614 24.9249L25.8198 25.0749L25.7281 24.9499C25.5948 24.7833 25.4198 24.7916 25.3698 24.9749C25.3448 25.0916 25.3698 25.1416 25.5198 25.2749C25.6198 25.3583 25.7698 25.4249 25.8448 25.4249C26.0364 25.4249 26.0281 25.5833 25.8281 25.7333L25.6614 25.8583L25.9114 25.8916C26.0448 25.9166 26.1614 25.9499 26.1614 25.9749C26.1614 26.0833 26.3281 26.4083 26.3781 26.4083C26.4114 26.4083 26.4781 26.3499 26.5281 26.2833V26.2916Z" fill="#FFB700"/>
<path d="M29.7113 24.9083C29.9363 24.825 30.4197 24.4083 30.4197 24.3166C30.4197 24.2833 30.2863 24.1333 30.1197 23.9833C29.7863 23.6833 29.4113 23.1583 29.3113 22.8583C29.2613 22.6916 29.0197 22.425 28.3363 21.7583L27.428 20.8833L27.1697 20.95C27.0197 20.9833 26.8447 21.0166 26.778 21.0166C26.653 21.0166 26.653 21.0166 26.8197 21.15L26.9863 21.2833L27.2363 21.15C27.4613 21.0166 27.4697 21.0166 27.4947 21.125C27.5113 21.1833 27.478 21.2916 27.4113 21.3666C27.353 21.4416 27.3197 21.5333 27.328 21.5583C27.353 21.5833 27.2947 21.6416 27.203 21.6916C27.0363 21.775 26.9113 22.05 27.0447 22.05C27.1697 22.05 27.4363 21.7166 27.403 21.6083C27.3863 21.55 27.403 21.4916 27.4197 21.475C27.528 21.4166 27.5197 21.675 27.4197 21.8083C27.353 21.875 27.3197 21.9583 27.3363 21.9916C27.353 22.0166 27.2947 22.075 27.203 22.125C27.0363 22.2083 26.9113 22.4833 27.0447 22.4833C27.178 22.4833 27.4363 22.1666 27.4113 22.05C27.3947 21.9916 27.3947 21.925 27.4197 21.9083C27.4947 21.875 27.528 22.075 27.4697 22.175C27.4543 22.2031 27.4463 22.2346 27.4463 22.2666C27.4463 22.2987 27.4543 22.3302 27.4697 22.3583C27.528 22.4666 27.4697 22.6666 27.3613 22.7333C27.3197 22.7583 27.3447 22.8166 27.4613 22.9C27.628 23.0166 27.628 23.0333 27.628 23.5666C27.628 24.0166 27.6447 24.1333 27.728 24.2083C27.8113 24.2916 27.828 24.2916 27.828 24.2083C27.828 24.125 27.9947 24.0083 28.1197 24.0083C28.1613 24.0083 28.403 24.2166 28.6613 24.4666C28.9197 24.7166 29.1947 24.9416 29.2697 24.95L29.453 24.9833C29.478 24.9833 29.5947 24.9583 29.7113 24.9V24.9083ZM26.9363 22.7333C26.9363 22.5916 26.6363 22.4333 26.278 22.4C25.9863 22.3583 25.9863 22.3666 25.9863 22.5083C25.9863 22.625 26.028 22.675 26.2363 22.7583C26.553 22.9 26.9363 22.8833 26.9363 22.7333Z" fill="#FFB700"/>
<path d="M27.2615 22.7166C27.4115 22.5833 27.4781 22.4333 27.3865 22.4333C27.2865 22.4333 27.0198 22.6666 27.0198 22.7666C27.0198 22.9 27.0698 22.8916 27.2698 22.7166H27.2615ZM26.9531 22.2916C26.9615 22.2083 26.9115 22.1583 26.7615 22.0833C26.4281 21.9416 26.0448 21.8666 25.9531 21.9416C25.7781 22.0833 25.8948 22.2666 26.1698 22.3C26.2865 22.3083 26.4365 22.3416 26.5115 22.375C26.7281 22.4583 26.9281 22.4166 26.9531 22.2916ZM26.9531 21.85C26.9698 21.7416 26.8948 21.7 26.2865 21.4833C25.8281 21.3166 25.6281 21.4 25.7781 21.675C25.8281 21.7666 25.9115 21.8083 26.1031 21.8416C26.2448 21.8583 26.4365 21.9 26.5281 21.9333C26.7781 22.0166 26.9281 21.9833 26.9448 21.85H26.9531ZM27.2531 21.4416C27.3448 21.35 27.4198 21.2416 27.4198 21.1916C27.4198 21.0666 27.0615 21.3 27.0115 21.4666C26.9615 21.6583 27.0531 21.65 27.2615 21.4416H27.2531ZM26.9531 21.4166C26.9698 21.2833 26.7531 21.1666 26.3198 21.075C25.9948 21 25.8531 21.0416 25.8781 21.1916C25.8948 21.275 26.0031 21.3333 26.2948 21.425C26.7865 21.575 26.9281 21.575 26.9531 21.4166ZM27.3698 20.8C27.9365 20.55 27.9781 19.925 27.4531 19.7583C27.2365 19.6916 27.1031 19.7333 27.0198 19.875C26.9531 19.9916 26.9948 20.1916 27.0781 20.1916C27.1115 20.1916 27.1365 20.2333 27.1365 20.275C27.1365 20.5 26.2865 20.5916 25.9365 20.4166C25.8115 20.3583 25.7698 20.1916 25.8615 20.1916C25.9448 20.1916 25.9948 20.025 25.9531 19.9166C25.9031 19.75 25.7365 19.7 25.5115 19.7666C24.9865 19.9 25.0031 20.5166 25.5365 20.7666C26.1265 20.9832 26.7723 20.995 27.3698 20.8Z" fill="#FFB700"/>
<path d="M27.0275 20.3166C27.0608 20.2833 27.0441 20.2333 26.9941 20.2C26.8775 20.1083 26.8858 19.9666 27.0108 19.8083C27.1108 19.6916 27.1191 19.5083 27.1525 17.7166C27.2108 14.625 27.4441 12.3 27.7441 11.7333C27.8691 11.5166 27.8525 11.5166 27.5358 11.7333C27.1204 12.0227 26.785 12.4126 26.5608 12.8666C26.0441 13.825 25.8691 15.1166 25.8691 17.8833C25.8691 19.45 25.8775 19.6583 25.9691 19.8C26.0525 19.95 26.0525 20 26.0025 20.15C25.9608 20.2416 25.9441 20.3416 25.9608 20.3583C26.0775 20.4666 26.9108 20.4416 27.0275 20.3166ZM31.7025 17.3666C31.7275 17.3416 31.6858 17.2 31.6191 17.0666C31.5191 16.85 31.4775 16.8166 31.3358 16.8166C30.6695 16.7587 30.0196 16.5779 29.4191 16.2833C28.9941 16.0916 28.8358 16.05 28.7941 16.1C28.6608 16.225 28.8775 16.5166 29.2108 16.675C29.7013 16.8517 30.2151 16.9556 30.7358 16.9833C30.9608 16.9833 30.9691 16.9833 30.8358 17.175L30.7525 17.3083H31.0025L31.4191 17.3583C31.6691 17.4166 31.6691 17.4166 31.7025 17.3666Z" fill="#FFB700"/>
<path d="M34.3359 18.7583C34.3359 18.675 34.0942 18.4666 33.8609 18.325C33.6692 18.2166 33.6359 18.2083 33.6359 18.3C33.6359 18.4333 33.5192 18.775 33.4692 18.775C33.4442 18.775 33.4026 18.7083 33.3859 18.6333C33.3609 18.55 33.2692 18.3833 33.1776 18.275L33.0109 18.0666L32.8942 18.2583C32.7776 18.4416 32.5692 18.6166 32.4776 18.6166C32.4609 18.6166 32.4526 18.5166 32.4776 18.4083C32.4859 18.275 32.4776 18.175 32.4359 18.1583C32.4026 18.1333 32.3692 18.1416 32.3692 18.175C32.3692 18.2416 32.0859 18.5583 32.0359 18.5583C32.0026 18.5583 31.9692 18.475 31.9526 18.3583L31.8859 17.9583C31.8692 17.8583 31.9109 17.925 31.9692 18.125L32.1026 18.4666L32.2359 18.2583C32.2963 18.1722 32.3414 18.0764 32.3692 17.975C32.3692 17.9333 32.3942 17.9166 32.4276 17.9333C32.4609 17.95 32.5026 18.0916 32.5192 18.2416L32.5609 18.525L32.7109 18.3583C32.7894 18.2747 32.8618 18.1856 32.9276 18.0916C32.9859 17.9916 32.9942 17.9916 33.1192 18.0916C33.1859 18.1583 33.2942 18.3 33.3609 18.4166C33.4276 18.5333 33.4859 18.6166 33.4942 18.6083L33.5442 18.3416L33.5776 18.0916C33.5859 18.05 34.0276 18.3416 34.1942 18.4833C34.2942 18.575 34.3942 18.6416 34.4109 18.625C34.4276 18.6083 34.4442 18.475 34.4442 18.3166C34.4442 18.0833 34.4192 18.0166 34.2776 17.8916C34.1109 17.7416 34.1109 17.7416 34.0442 17.85C33.9609 17.9916 33.8692 17.9916 33.8692 17.85C33.8692 17.75 33.5526 17.3583 33.4776 17.3583C33.4526 17.3583 33.3859 17.4416 33.3276 17.55C33.2692 17.6583 33.2026 17.7416 33.1859 17.7416C33.1026 17.7416 32.6609 17.2416 32.6609 17.1583C32.6609 17.0916 32.6942 17.1083 32.7692 17.225C32.8437 17.3344 32.9304 17.4351 33.0276 17.525C33.1942 17.675 33.2609 17.6416 33.3276 17.35C33.3526 17.2666 33.3859 17.2 33.4109 17.2C33.4776 17.2 33.8609 17.6083 33.9109 17.7416L33.9692 17.875L34.0109 17.725C34.0609 17.5416 34.1192 17.5416 34.2026 17.7083C34.2359 17.775 34.4026 17.925 34.5692 18.025L34.8776 18.225L34.9359 18.025C34.9692 17.9166 35.0192 17.8583 35.0359 17.8916C35.0692 17.9333 34.9859 18.2666 34.9276 18.3333C34.9276 18.3416 34.8192 18.2833 34.7109 18.2083L34.5026 18.0583V18.325C34.5026 18.4666 34.4859 18.6416 34.4692 18.7083C34.4276 18.8416 34.3276 18.875 34.3276 18.7583H34.3359ZM32.7942 16.6416C32.4276 16.3416 32.3776 16.275 32.3776 16.125L32.3859 15.975L32.4109 16.1166C32.4276 16.2 32.5276 16.3333 32.6442 16.4333L32.8609 16.6L32.9859 16.45C33.0609 16.3666 33.1192 16.2666 33.1192 16.2333C33.1192 16.1333 33.1359 16.1416 33.3859 16.3583C33.6026 16.55 33.6109 16.55 33.6359 16.425C33.6609 16.3583 33.6526 16.225 33.6359 16.1333C33.5526 15.8833 33.5692 15.85 33.6776 16L33.8776 16.2333C33.9609 16.325 33.9692 16.325 34.0026 16.2083C34.0276 16.1333 34.0442 16.0083 34.0442 15.925V15.7666L34.2359 15.9916C34.4276 16.2083 34.4442 16.2166 34.4942 16.1083C34.5359 16.05 34.5609 15.9083 34.5609 15.8C34.5609 15.65 34.5776 15.6166 34.6109 15.6666C34.6776 15.7666 34.6359 16.0166 34.5192 16.2333L34.4359 16.4L34.3276 16.225C34.1859 16.0083 34.1359 16.0083 34.0526 16.2416C33.9692 16.4666 33.9109 16.4833 33.8276 16.3083C33.7776 16.2 33.7609 16.2166 33.7276 16.45L33.6859 16.7L33.4359 16.5083L33.1859 16.3166L33.0609 16.4416C33.0026 16.5166 32.9526 16.6083 32.9526 16.6416C32.9526 16.725 32.8859 16.725 32.7942 16.6416ZM36.0442 15.5083C35.9192 15.3916 35.8276 15.275 35.8442 15.2583C35.8692 15.2333 35.8859 15.225 35.8942 15.2416C35.9749 15.3276 36.0583 15.411 36.1442 15.4916C36.4276 15.7916 36.3692 15.8 36.0526 15.5083H36.0442ZM31.7109 15.0583C31.5942 14.8916 31.6026 14.7916 31.7526 14.6083C31.8526 14.4833 31.9026 14.4666 32.0859 14.4916C32.2109 14.5 32.4692 14.6083 32.6609 14.725C32.9379 14.8905 33.2549 14.9769 33.5776 14.975L33.4359 14.7416C33.2526 14.4666 33.2526 14.4333 33.4692 14.6C33.6859 14.775 33.9442 14.825 34.5276 14.8083L34.8109 14.8L34.6442 14.6333C34.4192 14.4083 34.4859 14.3833 34.7442 14.6083C34.9776 14.8166 34.9692 14.8333 34.4609 14.8833C34.2489 14.9047 34.0349 14.8906 33.8276 14.8416C33.5442 14.7583 33.5276 14.7666 33.5859 14.8583C33.6192 14.9166 33.6692 14.9583 33.6942 14.9583C33.7276 14.9583 33.7526 14.9916 33.7526 15.025C33.7526 15.1333 33.1359 15.0333 32.8359 14.8916C32.1692 14.55 32.0859 14.5166 31.9192 14.5666C31.8749 14.5837 31.8343 14.6095 31.8 14.6424C31.7656 14.6753 31.7382 14.7147 31.7192 14.7583C31.6109 15.0333 32.0026 15.25 32.1609 15.0083C32.2109 14.9333 32.2026 14.8916 32.1192 14.8C32.0026 14.6833 32.0192 14.6666 32.1692 14.7166C32.2776 14.7583 32.2859 15.0166 32.1859 15.1166C32.0776 15.225 31.8109 15.2 31.7109 15.0583Z" fill="black"/>
<path d="M34.3698 14.3832C34.2865 14.2999 34.3531 14.2832 34.7281 14.2749C35.1948 14.2666 35.4781 14.1916 35.8115 13.9749C36.0781 13.8082 36.1531 13.8416 35.8948 14.0166C35.6698 14.1832 35.3115 14.2999 34.9531 14.3332L34.5281 14.3916C34.4615 14.4082 34.3865 14.3999 34.3615 14.3832H34.3698Z" fill="black"/>
</g>
<defs>
<clipPath id="clip0_180_1306">
<rect width="53.34" height="40" rx="10" fill="white"/>
</clipPath>
</defs>
</svg>
