<svg width="54" height="40" viewBox="0 0 54 40" fill="none" xmlns="http://www.w3.org/2000/svg">
<g clip-path="url(#clip0_180_1272)">
<mask id="mask0_180_1272" style="mask-type:luminance" maskUnits="userSpaceOnUse" x="0" y="0" width="54" height="40">
<path d="M0.00390625 0H53.3372V40H0.00390625V0Z" fill="white"/>
</mask>
<g mask="url(#mask0_180_1272)">
<path fill-rule="evenodd" clip-rule="evenodd" d="M-1.66211 0H58.3379V40H-1.66211V0Z" fill="white"/>
<path fill-rule="evenodd" clip-rule="evenodd" d="M-1.66211 0H58.3379V20H-1.66211V0Z" fill="#DF0000"/>
<path fill-rule="evenodd" clip-rule="evenodd" d="M12.1718 3.34997C10.5933 3.6892 9.17961 4.56117 8.16801 5.81949C7.1564 7.07781 6.60852 8.64586 6.61633 10.2604C6.62415 11.8749 7.1872 13.4376 8.21095 14.686C9.23469 15.9345 10.6568 16.7927 12.2385 17.1166C11.3324 17.3788 10.3834 17.4596 9.44605 17.3542C8.50867 17.2489 7.60131 16.9595 6.776 16.5027C5.95069 16.0459 5.22368 15.4307 4.63666 14.6924C4.04963 13.954 3.61414 13.107 3.35517 12.2C2.84081 10.3767 3.06928 8.42397 3.99061 6.76868C4.91195 5.11339 6.45121 3.89023 8.27183 3.36664C9.60517 2.9833 10.8385 2.97497 12.1802 3.34997H12.1718Z" fill="white"/>
<path fill-rule="evenodd" clip-rule="evenodd" d="M11.0885 9.16672L11.4969 10.4167L10.4135 9.65006L9.34687 10.4334L9.73854 9.16672L8.67188 8.39172L9.99688 8.37506L10.4135 7.12506L10.8302 8.37506H12.1469L11.0885 9.16672ZM12.5469 13.5001L12.9635 14.7584L11.8802 13.9917L10.8052 14.7667L11.2052 13.5084L10.1385 12.7251L11.4635 12.7167L11.8719 11.4584L12.2885 12.7084H13.6219L12.5469 13.5001ZM17.4219 13.4667L17.8302 14.7334L16.7469 13.9584L15.6802 14.7334L16.0719 13.4751L15.0052 12.7001L16.3302 12.6834L16.7469 11.4334L17.1635 12.6834H18.4802L17.4219 13.4667ZM18.8719 9.16672L19.2802 10.4251L18.1969 9.65839L17.1302 10.4334L17.5302 9.17506L16.4552 8.39172L17.7885 8.38339L18.1885 7.12506L18.6052 8.37506H19.9385L18.8719 9.16672ZM15.0135 6.30839L15.4302 7.57506L14.3469 6.80006L13.2719 7.58339L13.6719 6.31672L12.6052 5.53339L13.9219 5.52506L14.3385 4.26672L14.7552 5.51672H16.0885L15.0135 6.30839Z" fill="white"/>
</g>
</g>
<defs>
<clipPath id="clip0_180_1272">
<rect width="53.34" height="40" rx="10" fill="white"/>
</clipPath>
</defs>
</svg>
