<svg width="54" height="40" viewBox="0 0 54 40" fill="none" xmlns="http://www.w3.org/2000/svg">
<g clip-path="url(#clip0_180_846)">
<path d="M12.5122 0H40.8206V40H12.5039L12.5122 0Z" fill="white"/>
<path d="M-1.63867 0H12.5113V40H-1.63867V0ZM40.8197 0H54.9697V40H40.828L40.8197 0ZM16.753 19.3333L15.6447 19.7L20.7613 24.2C21.153 25.3417 20.628 25.6833 20.2947 26.2833L25.8447 25.5833L25.7113 31.1667L26.8697 31.1417L26.6113 25.5917L32.1697 26.2583C31.828 25.5333 31.5197 25.15 31.8363 23.9917L36.9447 19.7417L36.053 19.4083C35.3197 18.8417 36.3697 16.6917 36.5197 15.3333C36.5197 15.3333 33.5447 16.3583 33.353 15.8167L32.5863 14.3583L29.8697 17.3417C29.578 17.4167 29.453 17.3 29.378 17.05L30.628 10.8167L28.6447 11.9333C28.478 12.0083 28.3113 11.9417 28.2113 11.75L26.2947 7.91667L24.328 11.9C24.178 12.0417 24.028 12.0583 23.9113 11.9583L22.003 10.9L23.1447 17.075C23.053 17.325 22.8363 17.3917 22.5863 17.2583L19.9863 14.3167C19.653 14.8583 19.4197 15.7417 18.9697 15.9417C18.5197 16.1333 17.0113 15.5667 16.003 15.3583C16.353 16.5917 17.4197 18.6583 16.753 19.3333Z" fill="#D52B1E"/>
</g>
<defs>
<clipPath id="clip0_180_846">
<rect width="53.34" height="40" rx="10" fill="white"/>
</clipPath>
</defs>
</svg>
