<svg width="62" height="48" viewBox="0 0 62 48" fill="none" xmlns="http://www.w3.org/2000/svg">
<g filter="url(#filter0_d_180_1251)">
<g clip-path="url(#clip0_180_1251)">
<mask id="mask0_180_1251" style="mask-type:luminance" maskUnits="userSpaceOnUse" x="4" y="0" width="54" height="40">
<path d="M4.00586 0H57.334V40H4.00586V0Z" fill="white"/>
</mask>
<g mask="url(#mask0_180_1251)">
<path fill-rule="evenodd" clip-rule="evenodd" d="M0.669922 0H60.6699V40H0.669922V0Z" fill="#165D31"/>
<path fill-rule="evenodd" clip-rule="evenodd" d="M15.7877 11.3359C15.7252 12.2734 15.6314 13.914 16.4361 14.0859C17.397 14.1796 16.8658 12.4609 17.2173 12.1484C17.2798 11.9921 17.397 11.9921 17.4048 12.1874V13.6484C17.4048 14.1171 17.7173 14.2578 17.9517 14.3515C18.2017 14.3359 18.3736 14.3515 18.4673 14.5859L18.5923 17.1093C18.5923 17.1093 19.1705 17.2812 19.2017 15.6953C19.2252 14.7578 19.0142 13.9843 19.1392 13.8046C19.1392 13.6249 19.3736 13.6171 19.5298 13.7031C19.7798 13.8749 19.8892 14.0937 20.2798 14.0156C20.8736 13.8437 21.233 13.5546 21.2408 13.1015C21.229 12.6562 21.1364 12.2168 20.9673 11.8046C20.9986 11.7265 20.858 11.5156 20.8892 11.4374C20.9908 11.6093 21.1548 11.5937 21.1861 11.4374C21.0845 11.1093 20.9283 10.789 20.6783 10.6562C20.4673 10.4687 20.1548 10.4999 20.0533 10.8906C19.9908 11.3359 20.2095 11.8593 20.5298 12.2968C20.6002 12.4609 20.6939 12.7421 20.6548 12.9921C20.483 13.0937 20.3111 13.0468 20.1627 12.8984C20.1627 12.8984 19.6939 12.5468 19.6939 12.4609C19.8189 11.664 19.7173 11.5703 19.647 11.3437C19.6002 11.039 19.4517 10.9374 19.3345 10.7343C19.2173 10.6093 19.0611 10.6093 18.983 10.7343C18.772 11.0937 18.8736 11.8671 19.022 12.2187C19.1314 12.539 19.2955 12.7421 19.2173 12.7421C19.1548 12.9218 19.022 12.8749 18.9205 12.664C18.8061 12.2201 18.751 11.763 18.7564 11.3046C18.7173 10.9453 18.6705 10.1796 18.4283 9.97651C18.2877 9.78901 18.0767 9.88276 17.9986 10.0546C17.978 10.4036 17.9858 10.7538 18.022 11.1015C18.1783 11.6796 18.233 12.1953 18.3111 12.7812C18.3345 13.5703 17.858 13.1249 17.8814 12.7265C17.9839 12.2256 17.9759 11.7084 17.858 11.2109C17.7798 11.0078 17.6939 10.9609 17.4986 10.9921C17.3502 10.9921 16.9673 11.4062 16.858 12.1093C16.858 12.1093 16.7642 12.4687 16.7252 12.789C16.6705 13.1484 16.4361 13.414 16.2642 12.7421C16.1236 12.2499 16.0298 11.0546 15.7955 11.3359H15.7877Z" fill="white"/>
<path fill-rule="evenodd" clip-rule="evenodd" d="M18.4043 15.1719L15.9043 16.375C15.9277 15.8047 17.084 14.7812 17.8809 14.7734C18.3887 14.7812 18.2637 14.9687 18.3965 15.1719H18.4043Z" fill="white"/>
<path fill-rule="evenodd" clip-rule="evenodd" d="M17.9591 15.9532C16.6466 19.3516 21.045 19.8282 21.5372 16.0938C21.5841 15.9375 21.7716 15.7891 21.8028 16.0391C21.7013 19.4219 18.3966 19.6485 17.8341 18.586C17.7018 18.2204 17.6356 17.8341 17.6388 17.4454C17.5607 16.7813 17.2091 17.0391 17.1544 17.6954C17.0997 18.0625 17.1153 18.1641 17.1153 18.5157C17.2872 21.1875 21.545 20.0391 22.2403 17.836C22.6075 16.6172 22.1778 15.7188 22.3732 15.7188C22.795 16.1719 23.3888 15.7813 23.5216 15.625C23.5763 15.5469 23.7169 15.4922 23.8107 15.5938C24.1388 15.8282 24.7169 15.7188 24.8419 15.3047C24.9122 14.8907 24.9669 14.4688 24.9825 14.0391C24.7091 14.1172 24.5138 14.1719 24.4903 14.2891L24.4357 14.6485C24.4122 14.7657 24.1857 14.7657 24.17 14.6172C24.0685 14.1485 23.6466 14.0938 23.3888 14.8125C23.2247 14.9532 22.9122 14.9844 22.881 14.7735C22.92 14.2891 22.7247 14.2266 22.3341 14.4532L21.9591 11.625C22.1153 11.625 22.2716 11.7422 22.42 11.5547C22.2638 11.0469 21.9122 10.0157 21.7169 9.93754C21.631 9.82817 21.5528 9.89848 21.4278 9.92973C21.2247 9.99223 21.0372 10.1641 21.0997 10.5079C21.3341 11.9766 21.4903 13.0938 21.7325 14.5704C21.7716 14.7344 21.631 14.961 21.4435 14.9375C21.131 14.7266 21.0528 14.2969 20.506 14.3125C20.1153 14.3125 19.6778 14.7422 19.6232 15.1485C19.5528 15.4766 19.5294 15.8282 19.6232 16.1094C19.8966 16.4375 20.2247 16.4063 20.5138 16.336C20.7482 16.2344 20.9435 16 21.0294 16.0547C21.0841 16.125 21.0372 16.9063 19.9122 17.5C19.2325 17.8125 18.6857 17.875 18.3966 17.3204C18.2169 16.9688 18.4122 15.6485 17.9591 15.9532Z" fill="white"/>
<path fill-rule="evenodd" clip-rule="evenodd" d="M23.5607 12.4999C23.8185 12.4062 25.0685 10.9687 25.0685 10.9687L24.881 10.8124C24.8107 10.7578 24.8185 10.6953 24.881 10.6406C25.1935 10.4531 25.092 10.0624 24.9357 9.87494C24.8296 9.82323 24.713 9.79701 24.595 9.79837C24.4769 9.79972 24.3609 9.82862 24.256 9.88276C24.0373 10.0937 23.9904 10.4296 24.1623 10.6328C24.3263 10.7109 24.4904 10.8828 24.381 10.9765C23.8654 11.5234 22.467 12.4687 22.631 12.4999C22.6623 12.5468 23.5295 12.5468 23.5529 12.4999H23.5607ZM15.9826 17.5781C15.5138 18.3281 15.4748 19.4453 15.7326 19.7812C15.8732 19.9374 16.0998 20.0078 16.2638 19.9531C16.5607 19.8281 16.6935 19.2265 16.6232 19.0156C16.5217 18.8593 16.4435 18.8359 16.342 18.9609C16.1388 19.3828 16.0529 19.0937 16.0295 18.8593C16.0071 18.4624 16.028 18.0642 16.092 17.6718C16.1467 17.3437 16.092 17.4374 15.9826 17.5781ZM36.0685 16.3828C35.6154 15.3984 34.9826 14.4296 34.7873 14.0624C34.1785 13.1 33.5321 12.1618 32.8498 11.2499C32.3654 10.6718 33.6467 11.4921 32.6935 10.3359L31.9982 9.74994C31.842 9.64057 31.467 9.43744 31.4045 9.76557C31.3732 10.0624 31.3888 10.2187 31.4357 10.4609C31.4748 10.6171 31.7092 10.8906 31.8263 11.0468C33.428 13.1683 34.8348 15.4301 36.0295 17.8046C36.2326 17.7031 36.1857 16.5468 36.0685 16.3828Z" fill="white"/>
<path fill-rule="evenodd" clip-rule="evenodd" d="M34.0753 19.6484C33.9816 19.75 34.2941 20.1797 34.7003 20.1797C35.3722 20.1016 35.966 19.7266 36.5128 18.7266C36.7351 18.3939 36.8768 18.0141 36.9269 17.6172C36.9931 15.7206 36.841 13.8228 36.4738 11.9609C36.4503 11.8047 36.4738 11.6172 36.4894 11.5703C36.5363 11.5156 36.6847 11.5703 36.7628 11.4375C36.88 11.3203 36.4503 10.3438 36.216 9.97657C36.1378 9.8047 36.0988 9.69532 35.9581 9.9922C35.7885 10.3198 35.7076 10.6861 35.7238 11.0547C36.0441 13.2813 36.1456 15.2266 36.3488 17.4531C36.3722 17.6719 36.341 17.9844 36.1925 18.1094C35.603 18.7657 34.8815 19.2902 34.0753 19.6484ZM43.1769 19.6406C42.6925 19.9219 42.6925 20.2422 43.0831 20.25C43.755 20.1719 44.5519 20.1172 45.0988 19.2891C45.2919 18.899 45.4036 18.4737 45.4269 18.0391C45.5252 16.1717 45.402 14.2993 45.0597 12.4609C45.0441 12.3047 44.9738 11.9375 44.9972 11.8906C45.0441 11.7813 45.2628 11.8984 45.341 11.7734C45.4503 11.6563 44.7706 10.7813 44.5285 10.4063C44.4503 10.2344 44.4191 10.125 44.2706 10.4219C44.1133 10.7525 44.0641 11.1242 44.13 11.4844C44.4894 13.9063 44.755 15.7188 44.8097 17.8594C44.7785 18.0625 44.7706 18.1719 44.6769 18.4297C44.466 18.6953 44.2316 19.0391 44.0128 19.2031C43.7941 19.3594 43.3253 19.5156 43.1769 19.6406Z" fill="white"/>
<path fill-rule="evenodd" clip-rule="evenodd" d="M43.5378 17.4766C43.5378 16.9063 43.5457 16.4219 43.53 15.9922C43.525 15.6283 43.4452 15.2693 43.2957 14.9375C43.155 14.6172 43.241 14.3594 43.1707 14.0156C43.1082 13.6719 43.1238 13.1563 43.03 12.7578C42.9988 12.6016 42.9207 12.0938 42.9441 12.0391C42.9832 11.9297 43.1316 12.0391 43.2097 11.9141C43.3191 11.7969 42.8191 10.5078 42.5691 10.1406C42.4831 9.97657 42.3113 10.0313 42.116 10.2969C41.9207 10.4766 41.991 10.875 42.0691 11.2578C42.5457 13.7813 42.9128 16.0703 42.8347 18.4688C42.8035 18.6719 43.5378 17.8594 43.5378 17.4766ZM39.9675 14.3516C39.6628 14.3359 39.03 13.75 38.8425 13.4141C38.8118 13.332 38.7988 13.2443 38.8041 13.1568C38.8095 13.0694 38.8332 12.984 38.8738 12.9063C38.991 12.8281 39.1628 12.75 39.2957 12.8281C39.2957 12.8281 39.4285 13.0156 39.405 13.0391C39.5613 13.1172 39.6394 13.0781 39.655 13.0078C39.6628 12.8906 39.6082 12.8203 39.6082 12.6953C39.6785 12.3359 40.0769 12.2813 40.2332 12.5078C40.3425 12.6484 40.3894 12.9375 40.3972 13.1328C40.3972 13.2344 40.241 13.1172 40.1394 13.1328C40.0535 13.1641 40.03 13.2734 40.0222 13.3672C40.0066 13.625 39.9753 14.0391 39.9675 14.3438V14.3516ZM34.3582 18.1016C34.4363 17.3359 34.3269 15.9688 34.3191 15.5156C34.2773 14.3503 34.1808 13.1876 34.03 12.0313C33.9363 11.375 34.2956 12.1016 34.2488 11.7188C34.1316 11.0703 33.7722 10.625 33.3425 10.0391C33.2097 9.84376 33.2097 9.8047 32.9988 10.0859C32.7644 10.6094 32.9675 10.9766 33.03 11.3906C33.3347 12.7344 33.5144 13.9688 33.6003 15.1953C33.6903 16.4695 33.7007 17.748 33.6316 19.0234C33.866 19.0313 34.2253 18.6563 34.3582 18.1016Z" fill="white"/>
<path fill-rule="evenodd" clip-rule="evenodd" d="M44.5764 16.875C44.0373 15.9687 43.2326 15 43.0139 14.6328C42.2894 13.6211 41.5285 12.6361 40.7326 11.6797C40.0685 10.9765 41.0451 11.5625 40.6076 11.0156C40.2404 10.6172 40.1389 10.4843 39.8185 10.2422C39.6623 10.1406 39.5685 9.94528 39.506 10.2812C39.4811 10.5722 39.4759 10.8645 39.4904 11.1562C39.4904 11.289 39.631 11.5468 39.756 11.7031C41.3732 13.6953 43.1467 15.7265 44.5685 18.2812C44.7717 18.1797 44.7014 17.0312 44.5685 16.875H44.5764Z" fill="white"/>
<path fill-rule="evenodd" clip-rule="evenodd" d="M20.2489 15.211C20.2098 15.2813 20.1239 15.3672 20.1551 15.4532C20.2098 15.5313 20.2645 15.5547 20.3583 15.5547C20.4442 15.5547 20.5692 15.5782 20.5926 15.5313C20.6395 15.4766 20.6708 15.375 20.6395 15.2735C20.5458 15.0391 20.2958 15.1329 20.2489 15.211Z" fill="#165D31"/>
<path fill-rule="evenodd" clip-rule="evenodd" d="M38.3418 28.3203C39.0605 28.3516 39.5293 28.3594 40.1621 28.4297L40.9121 28.3516C41.7402 28.2735 41.7715 29.5313 41.7715 29.5313C41.7715 30.2735 41.4824 30.3125 41.1152 30.3907C40.9043 30.4219 40.8027 30.2657 40.6855 30.1094C40.5089 30.166 40.3207 30.1768 40.1387 30.1407C39.834 30.125 39.5371 30.125 39.2402 30.1016C38.9277 30.0782 38.7559 30.1407 38.4355 30.1094C38.373 30.211 38.2793 30.3516 38.0918 30.3125C37.9355 30.2891 37.7402 29.8438 37.7949 29.4922C37.9121 29.2422 37.873 29.3282 37.873 29.2188C34.9355 29.1407 31.9746 29.0078 29.0996 29.0469C26.8496 29.0547 24.6309 29.1485 22.4043 29.2422C21.2168 29.2266 20.3105 29.0391 19.6855 28.125C19.748 28.125 22.7168 28.2891 23.584 28.2344C25.1855 28.2188 26.6543 28.086 28.2871 28.0391C31.5059 28.0938 34.7012 28.0938 37.9199 28.3203C37.6074 28.1094 37.6074 27.6172 38.0762 27.4922C38.1152 27.461 38.1387 27.7344 38.209 27.7266C38.5918 27.7032 38.4199 28.2188 38.3418 28.3203ZM25.4043 10.5703C24.9199 11.961 25.6855 13.4922 26.2168 13.3438C26.6074 13.5 26.8418 12.7657 26.998 11.9688C27.1152 11.7422 27.1934 11.7188 27.248 11.836C27.2324 12.8985 27.3262 13.1407 27.5996 13.461C28.209 13.9297 28.7168 13.5235 28.7559 13.4844L29.2246 13.0078C29.334 12.8907 29.4746 12.8907 29.623 12.9844C29.7715 13.1172 29.748 13.3438 30.0605 13.5C30.3262 13.6094 30.8809 13.5313 31.0137 13.3047C31.1855 13 31.2324 12.8985 31.3105 12.7891C31.4355 12.625 31.6465 12.6953 31.6465 12.75C31.623 12.8438 31.498 12.9297 31.584 13.1016C31.7402 13.211 31.7715 13.1407 31.8574 13.1172C32.1699 12.961 32.4043 12.2891 32.4043 12.2891C32.4121 12.0391 32.2715 12.0547 32.1777 12.1172L31.9355 12.2813C31.7793 12.3047 31.4902 12.4063 31.3418 12.1797C31.1934 11.9141 31.1934 11.5313 31.084 11.2578C31.084 11.2422 30.8809 10.8282 31.0684 10.8047C31.1621 10.8203 31.3574 10.875 31.3887 10.711C31.4824 10.5469 31.1855 10.086 30.9746 9.85159C30.7949 9.65628 30.5449 9.63284 30.3027 9.83597C30.1309 9.99222 30.1543 10.1641 30.123 10.3282C30.0934 10.4457 30.0921 10.5687 30.1193 10.6868C30.1465 10.805 30.2013 10.915 30.2793 11.0078C30.4512 11.336 30.7559 11.7657 30.6543 12.375C30.6543 12.375 30.4746 12.6563 30.1621 12.6172C30.0293 12.5938 29.8184 12.5391 29.709 11.6953C29.623 11.0703 29.7246 10.1797 29.459 9.76566C29.3574 9.50784 29.2871 9.26566 29.0527 9.69534C28.9902 9.86722 28.7168 10.125 28.9121 10.6485C29.0969 11.1202 29.1509 11.633 29.0684 12.1328C28.9512 12.3047 28.9277 12.3594 28.7793 12.5235C28.5762 12.7578 28.3496 12.6953 28.1777 12.6094C28.0215 12.5078 27.8965 12.4532 27.8184 12.1016C27.834 11.5547 27.8652 10.6563 27.7637 10.4688C27.6152 10.1719 27.373 10.2813 27.2715 10.375C26.8067 10.8913 26.4956 11.5272 26.373 12.211C26.2324 12.6641 26.084 12.5313 25.9824 12.3516C25.7324 12.1172 25.709 10.2657 25.4043 10.5703Z" fill="white"/>
<path fill-rule="evenodd" clip-rule="evenodd" d="M26.8738 13.6015C27.1004 13.4453 26.9988 13.3359 27.3269 13.664C27.7504 14.4134 27.9963 15.25 28.0457 16.1094C28.03 16.3125 28.1707 16.4375 28.241 16.3906C28.2722 15.9219 29.4207 15.2656 30.4754 15.1719C30.6316 15.1328 30.5535 14.8281 30.5769 14.6719C30.5144 14.0859 30.905 13.5547 31.4519 13.5156C32.2019 13.625 32.4519 14.0234 32.4675 14.625C32.3816 15.7969 31.1629 15.9922 30.4832 16.0859C30.3816 16.125 30.3347 16.1719 30.4832 16.2265L33.3425 16.2422L33.491 16.3203C33.5066 16.3984 33.4441 16.3359 33.3347 16.5234C33.1774 16.7998 33.079 17.1056 33.0457 17.4219C32.1941 17.7031 31.3113 17.8125 30.4207 17.9297C30.1082 18.0859 29.9519 18.2969 30.0144 18.5312C30.1238 18.789 30.8113 19.0547 30.8113 19.0625C30.9441 19.1406 31.0925 19.3359 30.7722 19.7344C29.3816 19.6719 28.2957 19.0781 27.9207 18.2422C27.8113 18.1562 27.6863 18.2422 27.6082 18.3515C27.0613 19.0547 26.53 19.6797 25.6004 20.0234C25.0535 20.164 24.4832 19.9375 24.2175 19.5781C24.0379 19.3672 24.0457 19.1406 23.9832 19.0937C23.6785 19.2265 21.1004 20.3203 21.4285 19.8047C22.0535 19.1406 23.1472 18.6406 24.1004 17.9844C24.1707 17.7578 24.2957 17.0078 24.6707 16.7656C24.6941 16.7656 24.616 17.2031 24.6238 17.3906C24.6238 17.5469 24.6082 17.6015 24.6394 17.5625C24.7097 17.5234 25.866 16.6094 25.9675 16.3281C26.0769 16.1719 25.991 15.7656 25.991 15.75C25.7722 15.1875 25.4675 15.1406 25.3582 14.8594C25.2566 14.4922 25.3035 14.0703 25.5144 13.9453C25.7019 13.7812 25.9207 13.7969 26.1316 13.9844C26.366 14.1953 26.5691 14.6094 26.6316 14.914C26.5925 15.0312 26.3191 14.8359 26.241 14.8906C26.3913 15.0634 26.4913 15.2742 26.53 15.5C26.6863 16.1406 26.6394 16.3906 26.4832 16.8047C25.9675 17.8906 25.3113 18.2109 24.7332 18.6172C24.7175 18.6172 24.7097 18.8906 24.9207 19.039C24.9988 19.1172 25.3035 19.1562 25.655 19.039C26.4061 18.6219 27.0134 17.9874 27.3972 17.2187C27.4636 16.6339 27.3996 16.0415 27.2097 15.4844C26.9832 14.9609 26.7175 14.2187 26.7175 14.2031C26.7097 13.875 26.7332 13.7656 26.8738 13.6015ZM19.3894 10.5859C19.7175 10.7422 20.3425 10.6719 20.3113 10.1406L20.2957 9.89842C20.2332 9.74217 20.0457 9.78123 20.0066 9.93748C19.991 9.99217 20.03 10.0781 19.9832 10.1015C19.9519 10.1328 19.8504 10.1172 19.8504 9.96873C19.8504 9.92186 19.8191 9.87498 19.7957 9.84373C19.78 9.82811 19.7644 9.82811 19.7254 9.82811C19.6785 9.82811 19.6785 9.83592 19.655 9.87498C19.6472 9.91404 19.6316 9.95311 19.6316 9.99998C19.6316 10.0547 19.6004 10.0703 19.5691 10.0781C19.5222 10.0781 19.53 10.0781 19.491 10.0625C19.4754 10.039 19.4519 10.0312 19.4519 9.98436L19.4285 9.85936C19.4129 9.83592 19.3816 9.82029 19.3504 9.81248C19.1707 9.81248 19.155 10.0234 19.1707 10.1015C19.155 10.1172 19.1472 10.4844 19.3894 10.5859Z" fill="white"/>
<path fill-rule="evenodd" clip-rule="evenodd" d="M29.0379 14.6641C29.366 14.8204 30.1551 14.7344 29.9598 14.2266L29.9441 13.9766C29.8738 13.8204 29.6941 13.8594 29.6551 14.0235C29.6394 14.0704 29.6785 14.1563 29.6238 14.1797C29.6004 14.211 29.491 14.1954 29.4988 14.0547C29.4988 14.0079 29.4676 13.9532 29.4441 13.9219C29.4207 13.9141 29.4129 13.9063 29.366 13.9063C29.3269 13.9063 29.3269 13.9219 29.3035 13.961C29.2879 14.0001 29.2801 14.0391 29.2801 14.086C29.2723 14.1329 29.2488 14.1485 29.2098 14.1641C29.1707 14.1641 29.1785 14.1641 29.1473 14.1407C29.1238 14.1172 29.1004 14.1094 29.1004 14.0704L29.0769 13.9454C29.0613 13.9219 29.0301 13.9063 28.9988 13.8985C28.8191 13.8985 28.8035 14.1016 28.8113 14.1797C28.8035 14.1954 28.7957 14.5704 29.0457 14.6641H29.0379ZM34.6629 12.9766C34.991 13.1329 35.6082 13.0626 35.5848 12.5391L35.5691 12.2891C35.4988 12.1329 35.3191 12.1719 35.2801 12.3282C35.2644 12.3829 35.3035 12.4688 35.2488 12.5001C35.2254 12.5235 35.116 12.5079 35.1238 12.3594C35.1238 12.3126 35.0926 12.2657 35.0691 12.2344C35.0457 12.2188 35.0379 12.2188 34.991 12.2188C34.9519 12.2188 34.9519 12.2344 34.9285 12.2735L34.9051 12.3907C34.8973 12.4454 34.8738 12.4688 34.8348 12.4688C34.7957 12.4688 34.8035 12.4688 34.7723 12.4532C34.7488 12.4297 34.7254 12.4219 34.7254 12.3829C34.7254 12.3438 34.7176 12.2813 34.7019 12.2501C34.6863 12.2266 34.6551 12.2188 34.6238 12.211C34.4441 12.211 34.4285 12.4141 34.4363 12.4922C34.4285 12.5079 34.4207 12.8751 34.6707 12.9766H34.6629ZM37.5769 17.2188C37.0066 17.8672 37.2566 18.9376 37.3894 19.1719C37.5769 19.5469 37.7254 19.7891 38.0926 19.9766C38.4285 20.2188 38.6941 20.0704 38.8348 19.8985C39.1707 19.5469 39.1785 18.6485 39.3348 18.4766C39.4441 18.1485 39.7254 18.2032 39.8582 18.3516C39.9825 18.528 40.149 18.6704 40.3426 18.7657C40.6551 19.0391 41.0301 19.0938 41.4051 18.8438C41.6551 18.6954 41.8191 18.5157 41.9676 18.1485C42.1238 17.711 42.0457 15.6797 42.0066 14.4766L41.6785 12.7969C41.6785 12.7813 41.6394 12.0001 41.6004 11.8204C41.6004 11.7422 41.5769 11.7188 41.6551 11.7266C41.741 11.8047 41.7488 11.8047 41.8113 11.8282C41.8894 11.8438 41.9676 11.6954 41.9129 11.5704L41.1316 10.1172C41.0691 10.0547 40.9832 9.99224 40.8816 10.1329C40.8217 10.1871 40.774 10.2535 40.7417 10.3276C40.7094 10.4016 40.6931 10.4817 40.6941 10.5626C40.7176 10.9063 40.7723 11.2579 40.7957 11.6016L41.1082 13.3672C41.2098 14.6172 41.2332 15.6485 41.3348 16.9063C41.3191 17.4376 41.1551 17.8985 40.9988 17.9688C40.9988 17.9688 40.7644 18.1016 40.6082 17.9532C40.491 17.9063 40.0301 17.1797 40.0301 17.1797C39.7957 16.9688 39.6394 17.0235 39.4754 17.1797C39.0066 17.6329 38.8035 18.461 38.4832 19.0391C38.4051 19.1719 38.1707 19.2735 37.9207 19.0313C37.2801 18.1485 37.6551 16.8985 37.5769 17.2188ZM34.8113 9.89849C35.1082 10.0157 35.3113 10.6172 35.2488 10.9141C35.1863 11.2657 35.0301 11.6563 34.9207 11.6094C34.7957 11.5626 34.9988 11.2501 34.8816 10.9219C34.8191 10.7032 34.4129 10.3126 34.4598 10.2032C34.3816 9.96099 34.6316 9.85162 34.8113 9.89068V9.89849Z" fill="white"/>
<path fill-rule="evenodd" clip-rule="evenodd" d="M38.5285 17.5781C38.5832 16.8593 38.4816 16.4218 38.466 16C38.4504 15.5781 37.9895 12.3593 37.8957 12.0468C37.7785 11.4375 38.341 11.9687 38.2785 11.6093C38.0832 11.1718 37.6066 10.5234 37.4582 10.1406C37.3645 9.98434 37.4035 9.82809 37.2004 10.1015C37.0255 10.5809 36.964 11.0944 37.0207 11.6015C37.5051 14.125 37.9973 16.2187 37.9191 18.6172C38.1535 18.6172 38.4113 18.0937 38.5285 17.5781ZM43.5598 10.914C43.8332 11.0468 43.9895 11.7968 43.9582 12.0078C43.9035 12.3984 43.7629 12.8203 43.6613 12.7656C43.5441 12.7187 43.6848 12.1875 43.6301 12.0234C43.5676 11.789 43.2004 11.3672 43.2395 11.2422C43.1613 10.9765 43.3957 10.8672 43.5598 10.914ZM23.5832 16.2187C23.841 16.3203 23.9973 16.8672 23.9738 17.0234C23.9113 17.3125 23.7785 17.625 23.677 17.5781C23.5754 17.5468 23.7004 17.1562 23.6535 17.0312C23.6301 16.7422 23.2707 16.5859 23.2785 16.4609C23.216 16.2265 23.4348 16.1875 23.591 16.2187H23.5832Z" fill="white"/>
<path fill-rule="evenodd" clip-rule="evenodd" d="M29.8031 17.0469C30.1312 17.0625 30.2952 17.3281 29.9906 17.4375C29.6781 17.5391 29.389 17.625 29.3812 18.0625C29.4984 18.6875 29.2249 18.4688 29.0687 18.3906C28.8812 18.25 28.3499 17.9219 28.2718 17.2188C28.264 17.0547 28.3968 16.9062 28.6077 16.9062C28.9202 16.9922 29.389 17 29.8031 17.0469Z" fill="#165D31"/>
<path fill-rule="evenodd" clip-rule="evenodd" d="M16.7163 9.71881C17.0913 9.82818 17.1148 10.3907 17.0913 10.5547C17.0366 10.8516 16.9038 11.1719 16.8101 11.1329C16.7007 11.0938 16.8101 10.6876 16.7554 10.5626C16.7007 10.3907 16.3804 10.0626 16.4116 9.96881C16.3413 9.77349 16.5679 9.67974 16.7163 9.71881ZM24.2085 12.3438C23.9116 12.5001 23.8023 12.9688 23.9819 13.2501C24.1538 13.4844 24.4194 13.3985 24.4507 13.3985C24.7398 13.4297 24.9116 12.8594 24.9116 12.8594C24.9116 12.8594 24.9194 12.7032 24.5835 13.0079C24.4351 13.0313 24.4273 12.9766 24.3882 12.8985C24.3524 12.7498 24.3661 12.5934 24.4273 12.4532C24.4819 12.3126 24.3726 12.2501 24.2085 12.3438ZM26.396 9.50006C26.2398 9.60162 25.9507 9.90631 25.9429 10.2501C25.9351 10.4454 25.896 10.4454 26.021 10.5626C26.1226 10.7032 26.2085 10.6954 26.396 10.5938C26.4427 10.5644 26.4828 10.5256 26.5138 10.4799C26.5447 10.4341 26.5658 10.3825 26.5757 10.3282C26.6226 10.1094 26.3413 10.4376 26.3101 10.1876C26.2476 9.95318 26.4273 9.85943 26.5991 9.64068C26.5991 9.48443 26.5991 9.38287 26.3882 9.50006H26.396ZM28.146 9.81256C28.0771 10.097 28.0353 10.3874 28.021 10.6797C27.9741 10.8985 28.2554 10.9922 28.3726 10.711C28.5601 10.2032 28.5601 9.98443 28.5757 9.77349C28.521 9.43756 28.2944 9.44537 28.146 9.81256ZM39.2398 15.461C39.271 15.4219 40.8023 14.336 40.8023 14.336C40.9585 14.2813 40.9194 14.8985 40.8491 14.8907C40.3743 15.3484 39.828 15.7257 39.2319 16.0079C39.1538 16.0626 39.0835 15.5938 39.2319 15.461H39.2398ZM40.6226 15.4454C40.896 15.5782 41.0054 16.3672 40.9741 16.5782C40.9741 17.0001 40.7163 17.3282 40.6069 17.2813C40.4976 17.2266 40.6226 16.7579 40.5679 16.5938C40.5054 16.3594 40.2788 15.9297 40.3179 15.8047C40.2398 15.5391 40.4585 15.3985 40.6304 15.4454H40.6226ZM31.5601 18.836C31.6868 18.6881 31.8341 18.5592 31.9976 18.4532C32.1538 18.3751 32.2944 18.5157 32.2866 18.5079C32.3101 18.6641 32.1929 18.7969 32.2319 19.0001C32.2632 19.0782 32.2866 19.1719 32.4351 19.1407C32.6773 18.9454 32.9038 18.9297 33.1382 18.9219C33.3335 18.9297 33.3413 19.2501 33.2163 19.2501C32.771 19.3438 32.5757 19.4688 32.2554 19.586C32.0991 19.6797 31.9741 19.5626 31.9741 19.5547C31.9741 19.5469 31.8882 19.4688 31.9429 19.2657C31.9585 19.1094 31.896 19.0157 31.7554 19.0313C31.6616 19.0938 31.5679 19.1251 31.521 19.0079C31.4976 18.9297 31.4898 18.8829 31.5601 18.836ZM42.2319 19.2579C42.2944 19.336 42.3413 19.4141 42.2241 19.5547L41.9351 19.8047C41.8882 19.8829 41.8569 20.0235 42.0132 20.0626C42.2944 20.1407 42.9507 19.711 42.9507 19.7032C43.0601 19.6251 43.0288 19.4688 43.0132 19.4688C42.9507 19.3985 42.8101 19.4454 42.7163 19.4297C42.6694 19.4297 42.521 19.4141 42.5913 19.2735C42.6438 19.2045 42.6859 19.1281 42.7163 19.0469C42.7554 18.9532 42.7163 18.8907 42.5601 18.836C42.396 18.8047 42.3257 18.8204 42.146 18.836C42.0523 18.8516 42.021 18.8985 41.9976 19.0157C42.0054 19.1954 42.1148 19.1876 42.2319 19.2501V19.2579Z" fill="white"/>
<path fill-rule="evenodd" clip-rule="evenodd" d="M31.6158 14.8203C31.5768 14.8985 31.4362 14.8985 31.3033 14.8203C31.1705 14.7422 31.0924 14.6172 31.1393 14.5469C31.1862 14.4766 31.319 14.4766 31.4518 14.5469C31.5846 14.6172 31.6549 14.75 31.6158 14.8203ZM24.6627 10.6328C24.5846 10.6563 24.4752 10.586 24.4283 10.4766C24.3815 10.3672 24.4049 10.2735 24.483 10.25C24.5612 10.2266 24.6627 10.3047 24.7174 10.4063C24.7721 10.5078 24.7408 10.6172 24.6549 10.6407L24.6627 10.6328ZM38.4205 29.2969C39.1549 29.3282 39.8424 29.2969 40.569 29.336C40.7018 29.4532 40.608 29.7266 40.5221 29.711L39.9127 29.6875C39.9049 29.4532 39.3112 29.4922 39.3268 29.6953C39.0065 29.7344 38.7174 29.6875 38.3893 29.6719C38.2955 29.5547 38.3112 29.3438 38.4205 29.2969Z" fill="#165D31"/>
</g>
</g>
</g>
<defs>
<filter id="filter0_d_180_1251" x="0" y="0" width="61.3398" height="48" filterUnits="userSpaceOnUse" color-interpolation-filters="sRGB">
<feFlood flood-opacity="0" result="BackgroundImageFix"/>
<feColorMatrix in="SourceAlpha" type="matrix" values="0 0 0 0 0 0 0 0 0 0 0 0 0 0 0 0 0 0 127 0" result="hardAlpha"/>
<feOffset dy="4"/>
<feGaussianBlur stdDeviation="2"/>
<feComposite in2="hardAlpha" operator="out"/>
<feColorMatrix type="matrix" values="0 0 0 0 0 0 0 0 0 0 0 0 0 0 0 0 0 0 0.25 0"/>
<feBlend mode="normal" in2="BackgroundImageFix" result="effect1_dropShadow_180_1251"/>
<feBlend mode="normal" in="SourceGraphic" in2="effect1_dropShadow_180_1251" result="shape"/>
</filter>
<clipPath id="clip0_180_1251">
<rect x="4" width="53.34" height="40" rx="10" fill="white"/>
</clipPath>
</defs>
</svg>
