<svg width="54" height="40" viewBox="0 0 54 40" fill="none" xmlns="http://www.w3.org/2000/svg">
<g clip-path="url(#clip0_180_1281)">
<path d="M0.00390625 0H53.3372V40H0.00390625V0Z" fill="#EE1C25"/>
<path d="M0.00390625 0H53.3372V26.6667H0.00390625V0Z" fill="#0B4EA2"/>
<path d="M0.00390625 0H53.3372V13.3333H0.00390625V0Z" fill="white"/>
<path d="M19.4198 30.9C15.8365 29.175 10.7031 25.7416 10.7031 18.9666C10.7031 12.1833 11.0365 9.09998 11.0365 9.09998H27.8115C27.8115 9.09998 28.1365 12.1833 28.1365 18.9666C28.1365 25.75 23.0031 29.1666 19.4198 30.9Z" fill="white"/>
<path d="M19.4199 30C16.1283 28.4167 11.4199 25.2667 11.4199 19.05C11.4199 12.8333 11.7199 10 11.7199 10H27.1199C27.1199 10 27.4116 12.8333 27.4116 19.05C27.4199 25.275 22.7116 28.4167 19.4199 30Z" fill="#EE1C25"/>
<path d="M20.1199 17.4166C21.0116 17.4333 22.7533 17.4666 24.2949 16.95C24.2949 16.95 24.2616 17.5083 24.2616 18.15C24.2616 18.7916 24.3033 19.35 24.3033 19.35C22.8866 18.875 21.1283 18.8666 20.1199 18.875V22.3083H18.7199V18.875C17.7199 18.8666 15.9616 18.875 14.5449 19.35C14.5449 19.35 14.5866 18.7916 14.5866 18.15C14.5866 17.5 14.5449 16.95 14.5449 16.95C16.0866 17.4666 17.8283 17.4333 18.7116 17.4166V15.2583C17.9033 15.2583 16.7366 15.2916 15.4116 15.7333C15.4116 15.7333 15.4533 15.1833 15.4533 14.5333C15.4533 13.8916 15.4116 13.3333 15.4116 13.3333C16.7366 13.775 17.9033 13.8166 18.7116 13.8083C18.6699 12.4416 18.2699 10.725 18.2699 10.725C18.2699 10.725 19.0949 10.7833 19.4199 10.7833C19.7533 10.7833 20.5699 10.725 20.5699 10.725C20.5699 10.725 20.1699 12.4416 20.1283 13.8083C20.9366 13.8166 22.1033 13.775 23.4283 13.3333C23.4283 13.3333 23.3866 13.8916 23.3866 14.5333C23.3866 15.1833 23.4283 15.7333 23.4283 15.7333C22.3603 15.3889 21.2416 15.2283 20.1199 15.2583V17.425V17.4166Z" fill="white"/>
<path d="M19.4201 21.9417C17.7617 21.9417 16.8784 24.2333 16.8784 24.2333C16.8784 24.2333 16.3784 23.15 15.0284 23.15C14.1117 23.15 13.4451 23.9583 13.0117 24.7167C14.6784 27.3583 17.3367 28.9917 19.4201 30C21.5034 29 24.1701 27.3583 25.8284 24.7167C25.3951 23.9667 24.7284 23.15 23.8117 23.15C22.4617 23.15 21.9617 24.2333 21.9617 24.2333C21.9617 24.2333 21.0867 21.9417 19.4201 21.9417Z" fill="#0B4EA2"/>
</g>
<defs>
<clipPath id="clip0_180_1281">
<rect width="53.34" height="40" rx="10" fill="white"/>
</clipPath>
</defs>
</svg>
