<svg width="18" height="14" fill="none" xmlns="http://www.w3.org/2000/svg"><path fill-rule="evenodd" clip-rule="evenodd" d="M.185 3.618c-.269 2.414-.257 5.198.117 7.603.207 1.33 1.329 2.35 2.714 2.467l1.448.122a54.13 54.13 0 009.072 0l1.448-.122c1.385-.117 2.507-1.137 2.714-2.467.374-2.405.386-5.189.117-7.603a27.67 27.67 0 00-.117-.839C17.491 1.45 16.37.43 14.984.312L13.536.19a54.128 54.128 0 00-9.072 0L3.016.312C1.63.43.509 1.45.302 2.78c-.044.28-.083.559-.117.839zm4.403-2.041a52.642 52.642 0 018.824 0l1.447.121c.724.061 1.31.594 1.417 1.288.012.072.022.144.033.217l-5.33 2.865a4.193 4.193 0 01-3.958 0l-5.33-2.865c.01-.073.021-.145.033-.217.108-.694.693-1.227 1.416-1.288l1.448-.121zM16.485 4.7a26.132 26.132 0 01-.209 6.314c-.108.694-.693 1.227-1.416 1.288l-1.448.122a52.65 52.65 0 01-8.824 0l-1.448-.122c-.723-.061-1.308-.594-1.416-1.288A26.128 26.128 0 011.515 4.7l4.808 2.584a5.673 5.673 0 005.354 0L16.485 4.7z" fill="#FD780F"/></svg>