<svg width="18" height="18" fill="none" xmlns="http://www.w3.org/2000/svg"><g clip-path="url(#clip0_133_258)"><path d="M15.5 3h-13A1.5 1.5 0 001 4.5v9A1.5 1.5 0 002.5 15h13.002a1.5 1.5 0 001.5-1.5v-9A1.5 1.5 0 0015.5 3zm1 10.278l-4.729-4.73 4.73-3.014v7.744zM2.5 3.5h13.002c.551 0 1 .449 1 1v.442L9.617 9.328c-.373.238-.849.23-1.213-.017L1.5 4.617V4.5c0-.551.449-1 1-1zm-1 1.721l4.796 3.26L1.5 13.278V5.22zM15.501 14.5H2.499a1 1 0 01-.919-.607l5.13-5.13 1.414.96a1.599 1.599 0 001.761.027l1.46-.931 5.075 5.074a1.001 1.001 0 01-.92.607z" fill="#fff"/></g><defs><clipPath id="clip0_133_258"><path fill="#fff" transform="translate(1 1)" d="M0 0h16v16H0z"/></clipPath></defs></svg>