<svg width="20" height="17" fill="none" xmlns="http://www.w3.org/2000/svg"><path fill-rule="evenodd" clip-rule="evenodd" d="M18.913 1.507c.225.4.302.969.002 1.472l-.182.307a82.514 82.514 0 01-9.54 12.983c-.47.523-1.142.496-1.594.24a1.484 1.484 0 01-.744-1.363l.27-5.614c.029-.62-.325-1.235-.837-1.504l-4.85-2.549a1.483 1.483 0 01-.785-1.34c.008-.497.296-1.104.98-1.268A77.668 77.668 0 0117.286.767l.349-.011c.602-.02 1.054.352 1.278.751zm-1.314.75l-.264.01A76.204 76.204 0 002.322 4.248l4.664 2.45c1.045.55 1.693 1.721 1.637 2.905l-.256 5.34a81.091 81.091 0 009.077-12.425l.155-.261z" fill="#FD780F"/></svg>