<svg width="18" height="18" fill="none" xmlns="http://www.w3.org/2000/svg"><path d="M9 .36a5.758 5.758 0 00-5.76 5.76c0 2.631 1.39 5.459 2.756 7.65a31.68 31.68 0 002.734 3.746.363.363 0 00.27.123.363.363 0 00.27-.123s1.368-1.587 2.734-3.791C13.369 11.52 14.76 8.7 14.76 6.12A5.759 5.759 0 009 .36zm0 .72a5.026 5.026 0 015.04 5.04c0 2.316-1.31 5.07-2.644 7.222-1.118 1.805-2.064 2.966-2.396 3.364-.335-.395-1.281-1.531-2.396-3.319C5.27 11.25 3.96 8.492 3.96 6.12A5.026 5.026 0 019 1.08zm0 2.88a2.525 2.525 0 00-2.52 2.52A2.525 2.525 0 009 9a2.525 2.525 0 002.52-2.52A2.525 2.525 0 009 3.96zm0 .72c.998 0 1.8.801 1.8 1.8 0 .998-.802 1.8-1.8 1.8s-1.8-.802-1.8-1.8c0-.999.802-1.8 1.8-1.8z" fill="#fff"/></svg>