<svg width="18" height="18" fill="none" xmlns="http://www.w3.org/2000/svg"><path d="M12.453 9.3H2.311A.307.307 0 012 9c0-.165.14-.3.311-.3h10.142l-1.96-1.89a.283.283 0 010-.42.309.309 0 01.436 0l2.489 2.4c.124.12.124.3 0 .42l-2.49 2.4a.313.313 0 01-.217.09.313.313 0 01-.218-.09.283.283 0 010-.42l1.96-1.89zM14.756 3H4.8c-.684 0-1.244.54-1.244 1.2v2.4c0 .165.14.3.31.3a.307.307 0 00.312-.3V4.2c0-.33.28-.6.622-.6h9.956c.342 0 .622.27.622.6v9.6c0 .33-.28.6-.622.6H4.8a.613.613 0 01-.622-.6v-2.4c0-.165-.14-.3-.311-.3a.307.307 0 00-.311.3v2.4c0 .66.56 1.2 1.244 1.2h9.956C15.44 15 16 14.46 16 13.8V4.2c0-.66-.56-1.2-1.244-1.2z" fill="#fff"/></svg>