<svg width="84" height="84" fill="none" xmlns="http://www.w3.org/2000/svg"><path d="M84 84H0V0h84v84z" fill="#FD780F"/><path d="M9.451 37.927h1.968c.048.026.196.349.456.973.015.027 1.243 2.826 3.682 8.403h.027c.132-.334 1.513-3.455 4.138-9.376h1.82l.048.015c-3.318 7.593-5.239 11.943-5.763 13.054h-.619c-.116-.185-.825-1.788-2.132-4.804-2.355-5.297-3.561-8.054-3.625-8.265zm19.515 0c2.18 0 3.973.825 5.386 2.47.9 1.191 1.35 2.504 1.35 3.948v.233c0 2.111-.895 3.847-2.688 5.206a7.229 7.229 0 01-4.07 1.212c-2.338 0-4.206-.905-5.603-2.709-.799-1.138-1.196-2.376-1.196-3.71v-.232c0-1.99.826-3.667 2.471-5.027 1.26-.926 2.71-1.391 4.35-1.391zm-4.98 6.386v.291c0 1.334.52 2.503 1.561 3.503.969.83 2.101 1.249 3.398 1.249 1.672 0 3.016-.667 4.032-2.006.587-.857.883-1.772.883-2.746v-.29c0-1.572-.704-2.885-2.106-3.938a5.25 5.25 0 00-2.81-.81c-1.724 0-3.105.705-4.143 2.107-.545.852-.814 1.73-.814 2.64zm20.044-6.386c1.212 0 2.265.222 3.164.672.408.195.614.307.625.338-.01.683-.032 1.291-.064 1.826h-.016c-1.11-.8-2.29-1.196-3.545-1.196h-.248c-1.604 0-2.927.635-3.98 1.905-.64.883-.957 1.883-.957 3 0 1.72.725 3.074 2.17 4.074.856.54 1.772.81 2.75.81h.313c.963 0 1.9-.265 2.815-.794v-2.407H43.69c-.037 0-.163-.434-.391-1.302a11.33 11.33 0 01-.138-.44l.037-.026h5.578c.026.006.036.021.036.048v4.92a5.837 5.837 0 01-1.455.932 8.334 8.334 0 01-3.38.71c-2.345 0-4.218-.906-5.62-2.715-.783-1.159-1.175-2.35-1.175-3.582v-.413c0-1.8.704-3.355 2.106-4.672 1.302-1.128 2.884-1.688 4.741-1.688zm7.43-.011h1.788c.026.005.042.021.042.048v7.434c0 1.857.656 3.074 1.963 3.646a4.575 4.575 0 001.64.29c1.667 0 2.762-.66 3.297-1.984.238-.581.36-1.27.36-2.068v-7.318c0-.032.01-.048.031-.048h1.725c.032.005.048.021.048.048v7.519c0 2.38-.926 4.042-2.773 4.984-.81.355-1.709.53-2.709.53-2.534 0-4.217-1.059-5.058-3.18a7.152 7.152 0 01-.392-2.334v-7.52c.005-.031.021-.047.037-.047zm13.661.01h9.17v.016c0 .059-.17.583-.502 1.577l-6.842.048v4h6.514l.037.021c-.334 1.053-.508 1.577-.535 1.577h-6.016v4.207h7.572c.026.005.037.02.037.047l-.492 1.577H65.12c-.026 0-.042-.016-.042-.047v-12.98c.005-.027.016-.042.042-.042zM18.602 58.46c.032.005.048.021.048.042-.29 1.021-.46 1.556-.503 1.598h-3.952v11.382c0 .032-.016.048-.048.048H12.36c-.027 0-.037-.016-.037-.048V60.1H7.887l-.047-.02.518-1.62h10.244zm1.503 0h5.334c1.413 0 2.624.376 3.63 1.122 1.037.852 1.555 1.936 1.555 3.254v.354c0 1.508-.65 2.683-1.947 3.525a3.332 3.332 0 01-.894.412v.048l3.042 4.307v.048H28.82c-.042-.032-.984-1.366-2.826-4-.36.026-.724.036-1.1.036h-2.947v3.916c0 .032-.011.048-.037.048h-1.805c-.026 0-.042-.016-.042-.048v-12.98c.005-.026.016-.042.042-.042zm1.841 1.64v5.852h3.302c1.699 0 2.8-.587 3.297-1.767.121-.344.185-.661.185-.952v-.37c0-1.329-.725-2.202-2.18-2.62a6.364 6.364 0 00-1.323-.143h-3.28zm15.986-1.64c.185.312 2.264 4.625 6.238 12.943.01 0 .032.037.064.11l-.048.017h-1.92c-.122-.201-.64-1.286-1.551-3.255h-6.233c-.027 0-.408.805-1.143 2.408-.27.556-.418.841-.434.847h-1.926l-.043-.016 6.398-13.054h.598zm-.37 3.206l-2.382 5.08h4.805l-2.381-5.08h-.043zm5.15-3.206h1.968c.047.026.196.35.455.974.016.026 1.244 2.825 3.683 8.402h.026c.133-.333 1.514-3.455 4.138-9.376h1.82l.048.016c-3.318 7.593-5.239 11.942-5.762 13.054h-.62c-.116-.186-.825-1.789-2.132-4.805-2.355-5.297-3.561-8.053-3.624-8.265zm13.413 0h9.17v.016c0 .058-.17.582-.503 1.577l-6.841.047v4h6.513l.037.022c-.333 1.053-.508 1.576-.534 1.576H57.95v4.207h7.572c.026.005.037.021.037.048l-.493 1.577h-8.942c-.026 0-.042-.016-.042-.048v-12.98c.005-.026.016-.042.042-.042zm11.154 0h1.778c.032.005.048.021.048.042V69.89h7.016c.027.006.037.021.037.048l-.492 1.577h-.047c-1.281 0-4.07.005-8.366.016l-.016-.048v-12.98c.005-.026.016-.042.042-.042zM18.586 18.49c1.904.7 3.774 1.47 5.647 2.236l1.397.588c.232.097.467.202.697.291l.684.262c.922.316 1.852.606 2.812.751 3.817.66 7.81-.102 11.067-2.11.793-.488 1.646-1.105 2.474-1.665l2.51-1.696a291.58 291.58 0 015.063-3.33c3.393-2.195 6.82-4.34 10.345-6.344-3.117 2.593-6.331 5.046-9.58 7.449a292.686 292.686 0 01-4.9 3.567l-2.47 1.752-1.243.867c-.21.145-.405.289-.63.434l-.67.433c-3.625 2.237-8.144 2.96-12.238 1.954a15.5 15.5 0 01-2.97-1.024l-.703-.346c-.231-.116-.448-.238-.673-.357l-1.335-.718c-1.771-.977-3.544-1.95-5.284-2.993zm30.472.861l7.44-2.345 5.398-1.729.334-.108a2.786 2.786 0 001.319-.922c.137-.168.25-.373.377-.575l1.488-2.412-1.223 2.556c-.103.209-.196.431-.334.647a3.22 3.22 0 01-1.421 1.232l-.327.145-5.183 2.292-14.754 5.696 6.886-4.477zm-19.962 6.294l-2.102.965a1.033 1.033 0 00.863 1.878l4.75-2.182c.029-.013.053-.031.08-.047a15.728 15.728 0 01-3.591-.614z" fill="#fff"/></svg>