<svg width="130" height="130" fill="none" xmlns="http://www.w3.org/2000/svg"><g clip-path="url(#clip0_133_121)"><path d="M15.286 58.78h3.006c.073.039.3.532.696 1.485.023.042 1.899 4.317 5.624 12.835h.041c.202-.51 2.311-5.277 6.32-14.32h2.78l.074.022C28.759 70.4 25.825 77.043 25.024 78.74h-.945c-.177-.282-1.26-2.73-3.256-7.337-3.597-8.09-5.44-12.302-5.537-12.624zm29.806 0c3.33 0 6.069 1.26 8.227 3.772 1.374 1.819 2.062 3.824 2.062 6.03v.356c0 3.224-1.367 5.875-4.106 7.951a11.041 11.041 0 01-6.216 1.851c-3.571 0-6.424-1.382-8.558-4.137-1.22-1.738-1.827-3.63-1.827-5.667v-.354c0-3.04 1.262-5.601 3.774-7.678 1.925-1.415 4.14-2.125 6.644-2.125zm-7.606 9.753v.444c0 2.038.794 3.823 2.384 5.35 1.48 1.268 3.21 1.908 5.19 1.908 2.554 0 4.607-1.018 6.159-3.064.896-1.309 1.348-2.706 1.348-4.194v-.443c0-2.4-1.075-4.406-3.216-6.014a8.018 8.018 0 00-4.292-1.237c-2.633 0-4.743 1.076-6.328 3.218-.833 1.301-1.243 2.642-1.243 4.032h-.002zM68.1 58.779c1.852 0 3.46.34 4.833 1.027.623.297.938.469.955.516a62.33 62.33 0 01-.098 2.789h-.025c-1.695-1.222-3.497-1.827-5.414-1.827h-.379c-2.45 0-4.47.97-6.079 2.91-.977 1.348-1.461 2.876-1.461 4.582 0 2.627 1.107 4.695 3.314 6.222 1.307.825 2.706 1.237 4.2 1.237h.478c1.471 0 2.902-.404 4.3-1.212v-3.677H67.58c-.056 0-.249-.663-.597-1.988a17.317 17.317 0 01-.21-.672l.056-.04h8.52c.039.01.054.032.054.073v7.515a8.915 8.915 0 01-2.222 1.423 12.73 12.73 0 01-5.163 1.085c-3.581 0-6.442-1.384-8.583-4.147-1.196-1.77-1.795-3.59-1.795-5.471v-.63c0-2.75 1.075-5.125 3.217-7.137 1.988-1.722 4.405-2.578 7.24-2.578h.002zm11.349-.017h2.73c.04.008.065.032.065.074V70.19c0 2.836 1.002 4.695 2.998 5.569.8.3 1.65.45 2.505.443 2.546 0 4.218-1.008 5.035-3.03.364-.888.55-1.94.55-3.16V58.837c0-.05.016-.074.048-.074h2.634c.05.008.074.032.074.074V70.32c0 3.635-1.415 6.174-4.236 7.612-1.237.543-2.61.81-4.137.81-3.87 0-6.441-1.618-7.726-4.857a10.923 10.923 0 01-.598-3.565V58.834c.007-.047.032-.072.056-.072h.002zm20.865.016h14.006v.024c0 .09-.26.89-.767 2.409l-10.45.073v6.11h9.949l.057.032c-.511 1.608-.776 2.408-.818 2.408h-9.188v6.426h11.565c.04.007.057.03.057.072l-.752 2.408h-13.661c-.039 0-.064-.024-.064-.072V58.843c.008-.04.025-.064.064-.064l.002-.001zM29.263 90.14c.049.008.073.032.073.065-.443 1.559-.702 2.376-.768 2.44h-6.036v17.385c0 .049-.025.073-.073.073h-2.73c-.041 0-.056-.024-.056-.073V92.645h-6.776l-.072-.03.792-2.475h15.646zm2.295 0h8.147c2.159 0 4.008.575 5.545 1.714 1.584 1.301 2.375 2.957 2.375 4.97v.54c0 2.304-.993 4.099-2.974 5.385a5.095 5.095 0 01-1.366.629v.073l4.647 6.579v.073h-3.063c-.064-.049-1.503-2.086-4.316-6.109a23.69 23.69 0 01-1.68.055h-4.501v5.981c0 .049-.017.073-.057.073H31.56c-.04 0-.065-.024-.065-.073V90.205c.008-.04.025-.065.064-.065zm2.812 2.505v8.938h5.044c2.595 0 4.276-.896 5.035-2.698.185-.526.283-1.01.283-1.455v-.565c0-2.03-1.107-3.363-3.33-4.001a9.723 9.723 0 00-2.02-.219H34.37zm24.417-2.505c.282.477 3.458 7.064 9.527 19.769.016 0 .05.056.098.168l-.073.026h-2.933c-.186-.307-.977-1.964-2.369-4.972h-9.52c-.041 0-.623 1.23-1.745 3.678-.413.849-.639 1.285-.663 1.294h-2.942l-.066-.024 9.772-19.939h.914zm-.566 4.897l-3.638 7.759h7.34l-3.637-7.759h-.066.002zm7.866-4.897h3.006c.072.04.3.535.695 1.488.025.04 1.9 4.315 5.625 12.833h.04c.203-.509 2.313-5.277 6.32-14.32h2.78l.073.024c-5.067 11.597-8.001 18.24-8.8 19.938h-.947c-.177-.284-1.26-2.732-3.257-7.339-3.596-8.09-5.438-12.3-5.535-12.624zm20.487 0h14.006v.025c0 .088-.26.889-.769 2.408l-10.448.072v6.11h9.947l.057.033c-.509 1.609-.776 2.407-.816 2.407h-9.19v6.426h11.565c.04.008.057.032.057.073l-.753 2.409H86.572c-.04 0-.064-.024-.064-.073V90.205c.008-.04.025-.065.064-.065h.002zm17.036 0h2.716c.048.008.073.032.073.065v17.393h10.716c.041.009.056.032.056.073l-.751 2.409h-.072c-1.956 0-6.216.008-12.778.024l-.024-.073V90.206c.007-.04.024-.064.064-.064v-.002zM29.238 29.092c2.909 1.07 5.765 2.245 8.625 3.415l2.134.898c.354.148.713.309 1.065.445l1.044.4c1.409.483 2.829.925 4.295 1.147 5.83 1.008 11.929-.156 16.903-3.223 1.212-.745 2.515-1.688 3.78-2.543l3.833-2.59a445.33 445.33 0 017.733-5.086c5.182-3.353 10.416-6.629 15.8-9.69-4.76 3.96-9.67 7.707-14.632 11.377a447.4 447.4 0 01-7.484 5.448l-3.772 2.676-1.899 1.325c-.32.221-.618.441-.962.663l-1.023.66c-5.537 3.417-12.44 4.522-18.692 2.985a23.677 23.677 0 01-4.536-1.564l-1.074-.528c-.353-.177-.684-.364-1.028-.545l-2.039-1.097c-2.705-1.492-5.413-2.978-8.07-4.572v-.001zm46.542 1.315l11.364-3.582 8.244-2.64.51-.165a4.255 4.255 0 002.015-1.409c.21-.256.382-.57.576-.878l2.272-3.684-1.867 3.904c-.158.32-.3.658-.51.988a4.918 4.918 0 01-2.171 1.882l-.5.221-7.916 3.501-22.534 8.7 10.517-6.838zM45.29 40.02l-3.21 1.474a1.579 1.579 0 001.319 2.868l7.255-3.332c.044-.02.08-.047.122-.072a24.023 24.023 0 01-5.485-.938z" fill="#fff"/></g><defs><clipPath id="clip0_133_121"><path fill="#fff" transform="translate(.851 .851)" d="M0 0h128.298v128.298H0z"/></clipPath></defs></svg>