<svg width="25" height="21" fill="none" xmlns="http://www.w3.org/2000/svg"><path d="M12.799 1.022h0l-8.92 5.074s0 0 0 0a.18.18 0 00-.09.212.196.196 0 00.193.137h17.837c.09 0 .167-.055.192-.137h0a.183.183 0 00-.09-.212l-8.918-5.074h0a.21.21 0 00-.204 0zM4.3 6.173l8.6-4.892 8.598 4.892H4.301zm-.313 7.86h17.826l.342-.33h.005v0-.386a.339.339 0 00-.347-.329H3.987a.339.339 0 00-.347.33v.386c0 .181.155.329.347.329zm-.06-.717c0-.032.026-.057.06-.057h17.826c.034 0 .06.025.06.057v.386a.059.059 0 01-.06.058H3.987a.058.058 0 01-.06-.057v-.387z" fill="#606060" stroke="#000" stroke-width=".01"/><path d="M7.165 18.026a.14.14 0 00.144.137.14.14 0 00.144-.137v-4.13a.14.14 0 00-.144-.137.14.14 0 00-.144.136v4.131zm.978-.024a.14.14 0 00.144.136.14.14 0 00.144-.136v-4.106a.14.14 0 00-.144-.136.14.14 0 00-.144.136v4.106zm9.515 1.291v0-5.398a.14.14 0 00-.144-.136.14.14 0 00-.144.136v5.398a.14.14 0 00.144.136c.078 0 .143-.06.144-.136zm.691-.024a.14.14 0 00.143.136.14.14 0 00.145-.136v-5.373a.14.14 0 00-.145-.136.14.14 0 00-.143.136v5.373zM6.43 13.123a.14.14 0 00.145.137.14.14 0 00.143-.136V6.31a.14.14 0 00-.143-.136.14.14 0 00-.144.136v6.813zm2.292 0a.14.14 0 00.144.137.14.14 0 00.143-.136V6.31a.14.14 0 00-.143-.136.14.14 0 00-.144.136v6.813zm8.07 0a.14.14 0 00.144.137c.078 0 .144-.06.144-.136V6.31a.14.14 0 00-.144-.136.14.14 0 00-.144.136v6.813zm2.578.001v0V6.31a.14.14 0 00-.143-.136.14.14 0 00-.144.136v6.813a.14.14 0 00.144.137.143.143 0 00.144-.136z" fill="#606060" stroke="#000" stroke-width=".01"/><path d="M24.807 19.868v0a.142.142 0 01-.144.137c-.447 0-.782-.09-1.06-.225-.277-.134-.497-.311-.713-.486h0c-.207-.166-.406-.328-.653-.448a2.07 2.07 0 00-.935-.198 2.07 2.07 0 00-.934.198c-.247.12-.447.282-.653.448h0c-.432.35-.88.71-1.773.71-.893 0-1.341-.36-1.773-.71h-.001c-.206-.166-.405-.328-.652-.448a2.07 2.07 0 00-.935-.198 2.07 2.07 0 00-.935.198c-.246.12-.446.282-.652.448h0c-.432.35-.88.71-1.773.71-.893 0-1.341-.36-1.774-.71m15.36.574l-15.36-.574m15.36.574a.14.14 0 00-.144-.137 2.07 2.07 0 01-.935-.198c-.247-.12-.446-.281-.652-.447h0c-.217-.175-.436-.353-.714-.487a2.365 2.365 0 00-1.06-.224c-.892 0-1.34.36-1.773.71h0c-.206.167-.406.328-.652.448a2.07 2.07 0 01-.935.198 2.07 2.07 0 01-.935-.198c-.247-.12-.446-.281-.652-.447h0c-.433-.35-.881-.711-1.774-.711-.892 0-1.34.36-1.773.71h0c-.206.167-.406.328-.653.448a2.07 2.07 0 01-.934.198 2.07 2.07 0 01-.935-.198m14.52.335l-14.52-.335m-.838-.239h-.001m0 0h0m-.652-.448a2.07 2.07 0 00-.935-.198 2.07 2.07 0 00-.935.198c-.246.12-.446.282-.652.448h0m2.522-.448l-2.522.448m2.522-.448c.246.12.446.282.652.448m-.652-.448l.652.448m-3.174 0c-.433.35-.881.71-1.773.71-.893 0-1.341-.36-1.774-.71m3.547 0H2.726m0 0h0m0 0h0m-.652-.448a2.07 2.07 0 00-.935-.198.14.14 0 01-.144-.136.14.14 0 01.144-.137c.892 0 1.34.36 1.773.71h0m-.838-.239l.838.24m-.838-.24c.246.12.446.282.652.448m-.652-.448l.652.448m.186-.209h0c.206.167.406.328.653.448s.54.198.935.198c.394 0 .688-.078.934-.198.247-.12.447-.281.652-.447h0m-3.174 0h3.175m0 0c.432-.35.88-.711 1.773-.711.893 0 1.34.36 1.773.71m-3.546 0h3.546m0 0h0m0 0h0m.653.448c-.247-.12-.446-.281-.652-.447m.652.447l-.652-.447" fill="#606060" stroke="#000" stroke-width=".01"/></svg>