<svg width="24" height="21" fill="none" xmlns="http://www.w3.org/2000/svg"><path d="M23.616 12.804l-.023.002-23.278-.097c-.16 0-.289-.144-.288-.321 0-.177.13-.32.29-.318l23.277.096c.16 0 .29.144.288.32 0 .169-.118.305-.266.318z" fill="#606060"/><path d="M19.544 18.313a2.86 2.86 0 01-.244.01L4.056 18.26c-.962-.004-1.996-.776-2.838-2.117C.466 14.945-.002 13.511 0 12.4c0-.177.13-.319.29-.319.16 0 .288.144.288.32-.001 1.91 1.717 5.213 3.479 5.22l15.245.063c.863.003 1.833-.523 2.596-1.408.851-.989 1.34-2.283 1.375-3.645.004-.177.137-.315.298-.31.16.004.285.153.28.328-.082 3.131-2.291 5.494-4.307 5.665zm-4.453-6.527l-.578-.003v-.32c0-.076-.006-7.532-2.611-9.206-2.835 1.644-2.896 9.108-2.896 9.184l-.002.32-.578-.004.001-.319c.002-.333.065-8.17 3.36-9.831l.127-.063.123.069c3.047 1.69 3.057 9.521 3.055 9.854l-.001.319z" fill="#606060"/><path d="M.473 13.42l-.002.639 23.019.1.002-.638-23.02-.1z" fill="#606060"/><path d="M22.011 16.545a.278.278 0 01-.26-.137l-1.129-1.802-1.075 1.699a.282.282 0 01-.236.136.285.285 0 01-.238-.135l-1.104-1.714-1.059 1.7a.28.28 0 01-.248.137.287.287 0 01-.24-.157l-.867-1.635-.997 1.73a.283.283 0 01-.245.148.284.284 0 01-.245-.15l-.99-1.749-1.022 1.801a.284.284 0 01-.258.15.29.29 0 01-.246-.172l-.828-1.774-1.104 1.738a.285.285 0 01-.241.136.285.285 0 01-.238-.145l-1.035-1.765-.965 1.659a.286.286 0 01-.24.146.28.28 0 01-.243-.14l-1.036-1.69-1.055 1.77a.285.285 0 01-.253.144.288.288 0 01-.242-.163l-.88-1.736-1.242 1.958a.273.273 0 01-.403.078.34.34 0 01-.07-.445l1.505-2.375a.283.283 0 01.251-.136.29.29 0 01.238.163l.874 1.721 1.032-1.732a.281.281 0 01.24-.143c.097 0 .188.052.242.14l1.034 1.686.97-1.67a.282.282 0 01.243-.146c.098 0 .19.056.243.145l1.046 1.783 1.132-1.783a.28.28 0 01.257-.135c.1.008.191.074.237.173l.815 1.744.997-1.758a.285.285 0 01.245-.15c.1 0 .193.058.246.15l.993 1.752 1.005-1.744a.285.285 0 01.25-.149c.1.002.192.062.244.158l.877 1.652 1.034-1.661a.28.28 0 01.237-.138.278.278 0 01.237.135l1.105 1.717 1.08-1.705a.283.283 0 01.238-.136c.095 0 .183.052.237.137l1.365 2.182a.339.339 0 01-.074.443.247.247 0 01-.14.059zm-7.323-7.041l-.024.002-5.786-.024c-.16 0-.29-.144-.288-.32 0-.177.13-.32.29-.318l5.787.024c.16 0 .29.144.288.32-.001.167-.118.303-.268.316zm-.004 1.347l-.023.002-5.787-.024c-.16 0-.29-.144-.288-.32 0-.178.13-.32.29-.319l5.787.024c.16 0 .29.144.288.321-.001.168-.12.304-.267.316zM5.202 8.128c-.027.003-.055.003-.083.003-.567-.003-1.026-.514-1.023-1.139.002-.617.463-1.133 1.032-1.13.274.002.532.12.726.336.194.216.3.5.299.803-.004.586-.421 1.082-.95 1.127zm-.115-1.626c-.23.02-.413.237-.414.493-.002.273.2.497.448.497.247.002.45-.223.45-.494a.528.528 0 00-.13-.352.423.423 0 00-.317-.147l-.037.003zm.699 3.094c-.001.275-.205.499-.455.499-.25-.002-.452-.227-.452-.502.001-.276.205-.5.455-.5.25.002.453.227.452.503zm12.871-.06a.273.273 0 01-.22-.085l-1.25-1.292a.346.346 0 01-.014-.452l1.17-1.38a.27.27 0 01.41-.015l1.25 1.29a.346.346 0 01.014.452l-1.171 1.38a.273.273 0 01-.189.102zm-.863-1.624l.828.854.774-.914-.828-.854-.774.914z" fill="#606060"/><path d="M18.616 6.796l-.023.002c-.16 0-.29-.144-.288-.321l.002-.772c0-.176.13-.319.291-.317.16 0 .29.144.288.32l-.003.772c-.001.166-.118.304-.267.316zm-.01 3.283l-.023.001c-.16 0-.29-.144-.288-.32l.003-.6c0-.176.13-.319.29-.317.16 0 .29.144.288.32l-.003.6c-.001.166-.118.304-.267.316zm-1.163-1.837l-.023.002-.648-.003c-.16 0-.289-.144-.288-.32 0-.178.13-.32.29-.318l.647.003c.16 0 .29.143.288.32 0 .166-.118.304-.266.316zm3.097.013l-.024.001-.646-.003c-.16 0-.29-.143-.288-.32 0-.177.13-.32.29-.318l.647.003c.16 0 .29.144.288.32-.002.167-.118.304-.268.317zM10.468.711a.291.291 0 01-.296-.215.343.343 0 01-.002-.2c.017-.16.123-.259.314-.292.158-.028.306.092.331.267a.343.343 0 01-.06.252.37.37 0 01-.287.188zm-2.88 5.15a.198.198 0 01-.051-.001c-.159-.018-.274-.176-.258-.35.221-2.382 1.163-3.752 1.916-4.482a.271.271 0 01.408.028.343.343 0 01-.025.451c-.674.655-1.52 1.893-1.723 4.068-.017.157-.13.276-.267.286zm11.11 14.461l-.444.036c-.163.013-.33.025-.5.04-.16.014-.3-.118-.312-.293-.012-.176.107-.33.266-.344.173-.015.341-.028.504-.04 1.078-.085 1.93-.153 2.733-.497.93-.4 1.632-.85 2.029-1.743.07-.159.244-.223.387-.145.144.078.202.27.131.427-.507 1.141-1.422 1.663-2.338 2.057-.759.325-1.557.425-2.456.502zm5.016-3.514a.28.28 0 01-.262-.14.325.325 0 01-.078-.146c-.041-.162.042-.333.186-.388a.27.27 0 01.15-.012c.135 0 .257.103.284.255a.353.353 0 01-.026.21.307.307 0 01-.165.198.265.265 0 01-.089.023z" fill="#606060"/></svg>