<svg width="21" height="22" fill="none" xmlns="http://www.w3.org/2000/svg"><mask id="a" maskUnits="userSpaceOnUse" x="0" y="0" width="21" height="22" fill="#000"><path fill="#fff" d="M0 0h21v22H0z"/><path d="M19.992 17.1v-5.07h-1s-.048-.011-.072-.011c-.09 0-.26.01-.26.01h-.732v-.248c0-.034.004-.454-.28-.729-.151-.149-.353-.223-.598-.227-.245 0-.443.07-.593.212a.841.841 0 00-.119.145v-.42h-.114c-.02-.208-.091-.569-.336-.81a.852.852 0 00-.61-.238 1.04 1.04 0 00-.28.04V7.168h.139v-.554l.015-.133c.008-.049.147-1.175-.13-2.09-.708-2.35-3.582-2.799-4.333-2.877L10.657 1h-.332l-.032.517c-.81.089-3.586.565-4.282 2.87-.268.888-.146 1.97-.13 2.078l-.004.699h.13v2.58a.881.881 0 00-.36-.064.87.87 0 00-.62.246c-.257.249-.328.624-.348.832h-.083v.473a.779.779 0 00-.154-.209.797.797 0 00-.562-.204.785.785 0 00-.561.216c-.285.278-.277.72-.277.743v.245H1.006c-.035.1.095 8.64.115 8.978h18.875c.011-.208-.004-.628-.004-.628V17.1zm-3.298-5.844a.477.477 0 01.352-.119.49.49 0 01.36.13.65.65 0 01.17.357h-1.06c.024-.115.068-.267.178-.367zm-1.221.666v.892h-.396v-.892h-.332v.892h-.166v-1.74h1.427v1.74h-.201v-.892h-.332zm-1.91.17v.722h-.099v-.721h-.668v.721h-.099v-.721h-.668v.721h-.099v-.721h-.668v.721h-.099v-.721h-.668v.721h-.099v-.721h-.668v.721h-.099v-.721h-.668v.721h-.099v-.721h-.668v.721h-.099v-.721h-.668v.721h-.099v-.721h-.633v-.487h7.552v1.208h-.016v-.721h-.668zM6.34 7.168h3.388c-.902.175-2.392.67-3.029 2.067-.134.29-.213.614-.264.9a.84.84 0 00-.1-.141V7.167h.005zm-.13-.312v-.238h4.139l-.016.238H6.209zm.481 4.435v-.216h7.556v.216H6.691zm.004-.528c.016-.286.083-.907.309-1.405.842-1.844 3.44-1.97 3.455-1.97h.044c.099.003 2.633.152 3.46 1.97.225.494.288 1.115.308 1.405H6.695zm3.994-4.149h4.115v.238h-4.1l-.015-.238zm3.582 2.621c-.637-1.398-2.127-1.892-3.029-2.067h3.424v2.774a.788.788 0 00-.134.17 3.57 3.57 0 00-.261-.877zm1.004.792c.26.004.439.141.542.416.043.116.063.23.075.32h-1.226c.02-.17.075-.446.25-.606a.494.494 0 01.359-.13zM6.332 4.472c.72-2.383 3.906-2.643 4.183-2.662.276.019 3.475.276 4.194 2.662.202.677.163 1.506.135 1.83H6.197c-.027-.324-.067-1.153.135-1.83zM5.09 10.427c.107-.286.293-.427.562-.43.154-.004.28.04.38.133.177.167.236.454.256.632H5.015c.008-.093.028-.216.075-.335zm-.162.647h1.427v1.74h-.181v-.892H5.84v.892h-.395v-.892h-.332v.892h-.186v-1.74zm-1.368.183a.453.453 0 01.324-.12.44.44 0 01.32.108c.111.104.155.26.175.376H3.39a.644.644 0 01.17-.364zm-.186.68h1.08v.877h-.17v-.784h-.91v-.093zm.245 8.435H1.607v-7.718h2.009v7.718h.003zm3.776 0H5.051v-1.896l.3-.22-.043-.107c-.004-.008-.238-.591-.198-1.093.047-.632.913-.889 1.103-.937.194.048 1.095.305 1.147.937.04.498-.202 1.085-.202 1.093l-.043.107.288.22v1.896h-.008zm4.887 0H8.72V18.07l.435-.26-.064-.127c-.004-.007-.348-.699-.288-1.29.075-.788 1.459-1.093 1.68-1.137.225.044 1.665.349 1.74 1.137.055.587-.293 1.283-.297 1.29l-.063.123.419.26v2.305zm3.665 0h-2.345v-1.896l.297-.22-.043-.107c-.004-.008-.238-.595-.198-1.093.047-.632.913-.889 1.103-.937.194.048 1.095.301 1.147.937.039.498-.202 1.085-.202 1.093l-.044.107.289.22v1.896h-.004zm.704 0h-.368v-2.049l-.225-.17c.075-.209.217-.685.186-1.12-.072-.936-1.388-1.215-1.444-1.226l-.04-.011-.035.007c-.055.011-1.324.29-1.4 1.227-.035.435.107.907.179 1.119l-.238.174v2.049h-.656V17.9l-.332-.205c.107-.245.32-.806.269-1.327-.103-1.09-1.965-1.413-2.044-1.424l-.028-.004-.027.004c-.076.015-1.879.335-1.981 1.424-.052.517.158 1.078.26 1.327l-.343.205v2.476h-.657v-2.049l-.225-.17c.075-.209.217-.685.186-1.12-.071-.937-1.388-1.215-1.443-1.227l-.036-.007-.035.007c-.056.012-1.325.29-1.4 1.227-.036.435.107.907.178 1.12l-.233.166v2.049h-.435v-7.246h12.363v7.246h.004zm0-7.558h-.17v-.877h1.115v.093h-.945v.784zm2.676 7.558H17.32v-7.718h2.008v7.718z"/></mask><path d="M19.992 17.1v-5.07h-1s-.048-.011-.072-.011c-.09 0-.26.01-.26.01h-.732v-.248c0-.034.004-.454-.28-.729-.151-.149-.353-.223-.598-.227-.245 0-.443.07-.593.212a.841.841 0 00-.119.145v-.42h-.114c-.02-.208-.091-.569-.336-.81a.852.852 0 00-.61-.238 1.04 1.04 0 00-.28.04V7.168h.139v-.554l.015-.133c.008-.049.147-1.175-.13-2.09-.708-2.35-3.582-2.799-4.333-2.877L10.657 1h-.332l-.032.517c-.81.089-3.586.565-4.282 2.87-.268.888-.146 1.97-.13 2.078l-.004.699h.13v2.58a.881.881 0 00-.36-.064.87.87 0 00-.62.246c-.257.249-.328.624-.348.832h-.083v.473a.779.779 0 00-.154-.209.797.797 0 00-.562-.204.785.785 0 00-.561.216c-.285.278-.277.72-.277.743v.245H1.006c-.035.1.095 8.64.115 8.978h18.875c.011-.208-.004-.628-.004-.628V17.1zm-3.298-5.844a.477.477 0 01.352-.119.49.49 0 01.36.13.65.65 0 01.17.357h-1.06c.024-.115.068-.267.178-.367zm-1.221.666v.892h-.396v-.892h-.332v.892h-.166v-1.74h1.427v1.74h-.201v-.892h-.332zm-1.91.17v.722h-.099v-.721h-.668v.721h-.099v-.721h-.668v.721h-.099v-.721h-.668v.721h-.099v-.721h-.668v.721h-.099v-.721h-.668v.721h-.099v-.721h-.668v.721h-.099v-.721h-.668v.721h-.099v-.721h-.668v.721h-.099v-.721h-.633v-.487h7.552v1.208h-.016v-.721h-.668zM6.34 7.168h3.388c-.902.175-2.392.67-3.029 2.067-.134.29-.213.614-.264.9a.84.84 0 00-.1-.141V7.167h.005zm-.13-.312v-.238h4.139l-.016.238H6.209zm.481 4.435v-.216h7.556v.216H6.691zm.004-.528c.016-.286.083-.907.309-1.405.842-1.844 3.44-1.97 3.455-1.97h.044c.099.003 2.633.152 3.46 1.97.225.494.288 1.115.308 1.405H6.695zm3.994-4.149h4.115v.238h-4.1l-.015-.238zm3.582 2.621c-.637-1.398-2.127-1.892-3.029-2.067h3.424v2.774a.788.788 0 00-.134.17 3.57 3.57 0 00-.261-.877zm1.004.792c.26.004.439.141.542.416.043.116.063.23.075.32h-1.226c.02-.17.075-.446.25-.606a.494.494 0 01.359-.13zM6.332 4.472c.72-2.383 3.906-2.643 4.183-2.662.276.019 3.475.276 4.194 2.662.202.677.163 1.506.135 1.83H6.197c-.027-.324-.067-1.153.135-1.83zM5.09 10.427c.107-.286.293-.427.562-.43.154-.004.28.04.38.133.177.167.236.454.256.632H5.015c.008-.093.028-.216.075-.335zm-.162.647h1.427v1.74h-.181v-.892H5.84v.892h-.395v-.892h-.332v.892h-.186v-1.74zm-1.368.183a.453.453 0 01.324-.12.44.44 0 01.32.108c.111.104.155.26.175.376H3.39a.644.644 0 01.17-.364zm-.186.68h1.08v.877h-.17v-.784h-.91v-.093zm.245 8.435H1.607v-7.718h2.009v7.718h.003zm3.776 0H5.051v-1.896l.3-.22-.043-.107c-.004-.008-.238-.591-.198-1.093.047-.632.913-.889 1.103-.937.194.048 1.095.305 1.147.937.04.498-.202 1.085-.202 1.093l-.043.107.288.22v1.896h-.008zm4.887 0H8.72V18.07l.435-.26-.064-.127c-.004-.007-.348-.699-.288-1.29.075-.788 1.459-1.093 1.68-1.137.225.044 1.665.349 1.74 1.137.055.587-.293 1.283-.297 1.29l-.063.123.419.26v2.305zm3.665 0h-2.345v-1.896l.297-.22-.043-.107c-.004-.008-.238-.595-.198-1.093.047-.632.913-.889 1.103-.937.194.048 1.095.301 1.147.937.039.498-.202 1.085-.202 1.093l-.044.107.289.22v1.896h-.004zm.704 0h-.368v-2.049l-.225-.17c.075-.209.217-.685.186-1.12-.072-.936-1.388-1.215-1.444-1.226l-.04-.011-.035.007c-.055.011-1.324.29-1.4 1.227-.035.435.107.907.179 1.119l-.238.174v2.049h-.656V17.9l-.332-.205c.107-.245.32-.806.269-1.327-.103-1.09-1.965-1.413-2.044-1.424l-.028-.004-.027.004c-.076.015-1.879.335-1.981 1.424-.052.517.158 1.078.26 1.327l-.343.205v2.476h-.657v-2.049l-.225-.17c.075-.209.217-.685.186-1.12-.071-.937-1.388-1.215-1.443-1.227l-.036-.007-.035.007c-.056.012-1.325.29-1.4 1.227-.036.435.107.907.178 1.12l-.233.166v2.049h-.435v-7.246h12.363v7.246h.004zm0-7.558h-.17v-.877h1.115v.093h-.945v.784zm2.676 7.558H17.32v-7.718h2.008v7.718z" fill="#606060"/><path d="M19.992 17.1v-5.07h-1s-.048-.011-.072-.011c-.09 0-.26.01-.26.01h-.732v-.248c0-.034.004-.454-.28-.729-.151-.149-.353-.223-.598-.227-.245 0-.443.07-.593.212a.841.841 0 00-.119.145v-.42h-.114c-.02-.208-.091-.569-.336-.81a.852.852 0 00-.61-.238 1.04 1.04 0 00-.28.04V7.168h.139v-.554l.015-.133c.008-.049.147-1.175-.13-2.09-.708-2.35-3.582-2.799-4.333-2.877L10.657 1h-.332l-.032.517c-.81.089-3.586.565-4.282 2.87-.268.888-.146 1.97-.13 2.078l-.004.699h.13v2.58a.881.881 0 00-.36-.064.87.87 0 00-.62.246c-.257.249-.328.624-.348.832h-.083v.473a.779.779 0 00-.154-.209.797.797 0 00-.562-.204.785.785 0 00-.561.216c-.285.278-.277.72-.277.743v.245H1.006c-.035.1.095 8.64.115 8.978h18.875c.011-.208-.004-.628-.004-.628V17.1zm-3.298-5.844a.477.477 0 01.352-.119.49.49 0 01.36.13.65.65 0 01.17.357h-1.06c.024-.115.068-.267.178-.367zm-1.221.666v.892h-.396v-.892h-.332v.892h-.166v-1.74h1.427v1.74h-.201v-.892h-.332zm-1.91.17v.722h-.099v-.721h-.668v.721h-.099v-.721h-.668v.721h-.099v-.721h-.668v.721h-.099v-.721h-.668v.721h-.099v-.721h-.668v.721h-.099v-.721h-.668v.721h-.099v-.721h-.668v.721h-.099v-.721h-.668v.721h-.099v-.721h-.633v-.487h7.552v1.208h-.016v-.721h-.668zM6.34 7.168h3.388c-.902.175-2.392.67-3.029 2.067-.134.29-.213.614-.264.9a.84.84 0 00-.1-.141V7.167h.005zm-.13-.312v-.238h4.139l-.016.238H6.209zm.481 4.435v-.216h7.556v.216H6.691zm.004-.528c.016-.286.083-.907.309-1.405.842-1.844 3.44-1.97 3.455-1.97h.044c.099.003 2.633.152 3.46 1.97.225.494.288 1.115.308 1.405H6.695zm3.994-4.149h4.115v.238h-4.1l-.015-.238zm3.582 2.621c-.637-1.398-2.127-1.892-3.029-2.067h3.424v2.774a.788.788 0 00-.134.17 3.57 3.57 0 00-.261-.877zm1.004.792c.26.004.439.141.542.416.043.116.063.23.075.32h-1.226c.02-.17.075-.446.25-.606a.494.494 0 01.359-.13zM6.332 4.472c.72-2.383 3.906-2.643 4.183-2.662.276.019 3.475.276 4.194 2.662.202.677.163 1.506.135 1.83H6.197c-.027-.324-.067-1.153.135-1.83zM5.09 10.427c.107-.286.293-.427.562-.43.154-.004.28.04.38.133.177.167.236.454.256.632H5.015c.008-.093.028-.216.075-.335zm-.162.647h1.427v1.74h-.181v-.892H5.84v.892h-.395v-.892h-.332v.892h-.186v-1.74zm-1.368.183a.453.453 0 01.324-.12.44.44 0 01.32.108c.111.104.155.26.175.376H3.39a.644.644 0 01.17-.364zm-.186.68h1.08v.877h-.17v-.784h-.91v-.093zm.245 8.435H1.607v-7.718h2.009v7.718h.003zm3.776 0H5.051v-1.896l.3-.22-.043-.107c-.004-.008-.238-.591-.198-1.093.047-.632.913-.889 1.103-.937.194.048 1.095.305 1.147.937.04.498-.202 1.085-.202 1.093l-.043.107.288.22v1.896h-.008zm4.887 0H8.72V18.07l.435-.26-.064-.127c-.004-.007-.348-.699-.288-1.29.075-.788 1.459-1.093 1.68-1.137.225.044 1.665.349 1.74 1.137.055.587-.293 1.283-.297 1.29l-.063.123.419.26v2.305zm3.665 0h-2.345v-1.896l.297-.22-.043-.107c-.004-.008-.238-.595-.198-1.093.047-.632.913-.889 1.103-.937.194.048 1.095.301 1.147.937.039.498-.202 1.085-.202 1.093l-.044.107.289.22v1.896h-.004zm.704 0h-.368v-2.049l-.225-.17c.075-.209.217-.685.186-1.12-.072-.936-1.388-1.215-1.444-1.226l-.04-.011-.035.007c-.055.011-1.324.29-1.4 1.227-.035.435.107.907.179 1.119l-.238.174v2.049h-.656V17.9l-.332-.205c.107-.245.32-.806.269-1.327-.103-1.09-1.965-1.413-2.044-1.424l-.028-.004-.027.004c-.076.015-1.879.335-1.981 1.424-.052.517.158 1.078.26 1.327l-.343.205v2.476h-.657v-2.049l-.225-.17c.075-.209.217-.685.186-1.12-.071-.937-1.388-1.215-1.443-1.227l-.036-.007-.035.007c-.056.012-1.325.29-1.4 1.227-.036.435.107.907.178 1.12l-.233.166v2.049h-.435v-7.246h12.363v7.246h.004zm0-7.558h-.17v-.877h1.115v.093h-.945v.784zm2.676 7.558H17.32v-7.718h2.008v7.718z" stroke="#000" stroke-width=".02" mask="url(#a)"/></svg>