<svg width="24" height="23" fill="none" xmlns="http://www.w3.org/2000/svg"><path d="M18.613 3.418l.325-.428a.345.345 0 11.549.418l-.326.428a.344.344 0 11-.548-.418zM2.655 11.444a.347.347 0 00.427-.238c.007-.024.686-2.412 1.358-3.391a.346.346 0 00-.089-.48.346.346 0 00-.48.09c-.737 1.073-1.423 3.49-1.452 3.593a.34.34 0 00.236.425zm2.13-4.375a.34.34 0 00.257-.115l.194-.214a.345.345 0 00-.512-.463l-.195.214a.345.345 0 00.026.487c.065.062.149.09.23.09zm12.378 8.45c-1.204 1.422-2.67 2.072-2.686 2.079a.347.347 0 00-.18.454.343.343 0 00.452.178c.065-.029 1.624-.715 2.937-2.266a.343.343 0 10-.523-.445zm1.314-1.045a.345.345 0 00-.484.068l-.216.285a.346.346 0 00.274.554.344.344 0 00.275-.137l.216-.285a.345.345 0 00-.066-.485zm5.492-.337a.344.344 0 01-.297.203 29.58 29.58 0 01-1.43.033c-1.034 0-2.363-.053-3.044-.296-.729-.26-1.326-.8-1.67-1.162a11 11 0 01-.603.824.37.37 0 01-.045.063l-.017.015c-1.22 1.495-2.712 2.642-3.186 2.991-.058.042-.12.084-.183.122.283.52.443 1.376-.222 2.299-.932 1.293-2.803 2.668-2.88 2.726a.35.35 0 01-.204.067.346.346 0 01-.336-.425c.005-.024.521-2.256.252-3.701-1.295.176-2.58.23-3.342.249h-.033c-.298 0-.586-.087-.835-.255l-.45-.3a1.295 1.295 0 01-.468-.544 7.103 7.103 0 01-.377-1.09c-1.833-.021-4.117.761-4.14.768a.35.35 0 01-.372-.098.346.346 0 01-.051-.38c1.425-2.888 3.721-3.747 4.47-3.958.349-1.916 1.248-3.737 2.341-5.103.031-.04.068-.076.1-.115a.398.398 0 01.037-.041c.365-.407.842-.763 1.382-1.072-.748-.31-1.884-.853-2.487-1.507C4.613 3.075 4.362.485 4.351.377a.345.345 0 01.536-.318c.587.394 1.566.637 2.603.895.863.214 1.753.436 2.493.766 1.342.603 1.805 2.156 1.952 2.893a24.564 24.564 0 012.667-.514c.381-.628 1.755-2.735 3.043-2.814l.15-.01c1.688-.107 2.447-.138 2.721.26.228.329.71 2.648.11 3.405-.406.51-1.966 2.058-2.477 2.563a7.6 7.6 0 01.413 1.721c.472-.156 1.246-.26 2.167.205.939.474 1.571 1.617 2.183 2.72.34.613.66 1.192 1.014 1.63.08.102.096.24.044.358zm-6.054-4.12a166.48 166.48 0 00-3.945-.72l.06 1.645c.407.323 1.7 1.357 2.55 2.114.721-.948 1.284-2.007 1.335-3.038zm-4.68 6.257c-.698-.63-2.133-1.969-2.315-2.51-.229.042-.545.097-.821.126-.147.652-.547 2.433-.72 3.398 1.626-.178 3.129-.502 3.857-1.014zM5.12 12.78l1.956-.675-.165-1.228-1.219-.28a10.165 10.165 0 00-.538 1.963.341.341 0 01-.018.122l-.016.098zm4.692.44c.272-.01.712-.084.999-.139a16.936 16.936 0 01-.033-1.574l-2.352-1.25-.834.513.184 1.365c.824.53 1.802 1.074 2.036 1.085zM7.776 7.212l.797.487 2.347-.578.514-1.13-.07-.504c-.668.194-1.356.432-1.986.723l-.04.02c-.598.28-1.141.604-1.562.982zm4.261-1.907l.054.398c.738.01 1.743.047 2.008.16.256.109 1.037.565 1.326.735l1.386-.156c-.514-.703-1.2-1.26-2.056-1.665-.324.043-1.432.201-2.718.528zm2.783 1.74c-.398-.23-.845-.483-.992-.547-.158-.052-1.024-.094-1.816-.105l-.404.886 1.944 1.166c.269-.287.788-.846 1.268-1.4zm-.52 1.607c.907.158 2.565.45 3.577.652a6.777 6.777 0 00-.456-1.772 5.732 5.732 0 00-.207-.44l-1.691.19a42.513 42.513 0 01-1.223 1.37zm-2.76 2.48l1.796-.308-.066-1.741-2.163-1.297-2.262.556-.074 1.316 2.768 1.473zM15.3 4.28a5.93 5.93 0 012.38 2.24l.029.046c.049.084.094.175.14.264.621-.616 1.896-1.89 2.234-2.318.307-.386.058-2.153-.125-2.558-.26-.107-1.332-.038-2.122.012l-.152.01c-.718.043-1.764 1.329-2.384 2.304zM9.191 5.54a15.28 15.28 0 012.072-.743c-.118-.607-.494-1.963-1.566-2.443-.68-.305-1.542-.52-2.376-.726-.799-.198-1.565-.389-2.188-.656.149.816.5 2.2 1.25 3.015.699.752 2.34 1.384 2.808 1.553zM5.96 9.953l1.199.274.919-.565.08-1.406-.861-.525c-.507.65-.967 1.406-1.337 2.222zm-1.51 5.315a8.522 8.522 0 01-.056-2.214c-.746.273-2.216 1.003-3.331 2.766.837-.232 2.17-.537 3.387-.552zm4.218 2.088c.151-.91.567-2.78.74-3.539-.598-.218-1.486-.764-2-1.095l-2.362.817c-.058 1.099.102 2.201.558 3.23a.587.587 0 00.218.252l.45.3c.14.092.304.14.473.137a35.83 35.83 0 001.923-.101zm4.207-.118c-.597.246-1.331.424-2.092.556.176.98.045 2.214-.086 3.044.618-.509 1.493-1.288 2.015-2.01.523-.729.33-1.304.163-1.59zm3.27-3.646c-.828-.741-2.147-1.796-2.549-2.114l-2.058.352a.317.317 0 01-.058.006l-.016-.002c-.004.648.02 1.43.11 1.712.093.28 1.2 1.386 2.219 2.3.583-.469 1.518-1.279 2.352-2.254zm6.854.082c-.242-.374-.47-.787-.694-1.19-.562-1.013-1.141-2.06-1.891-2.439-.852-.43-1.523-.23-1.806-.103-.018.799-.292 1.598-.707 2.353.255.29.834.881 1.528 1.13.714.256 2.47.274 3.57.249z" fill="#606060"/></svg>