<svg width="60" height="60" fill="none" xmlns="http://www.w3.org/2000/svg"><path d="M34.688 39.375h-9.376a.938.938 0 010-1.875h9.375a.938.938 0 010 1.875z" fill="#636363" stroke="#fff" stroke-width=".5"/><path d="M42.188 55.313a.938.938 0 01-.938-.938V45H37.5v9.375a.938.938 0 01-1.875 0V44.062a.938.938 0 01.938-.937h5.624a.938.938 0 01.938.938v10.312a.938.938 0 01-.938.938z" fill="#319BA5" stroke="#fff" stroke-width=".5"/><path d="M42.102 24a.955.955 0 01-.581-.183.798.798 0 01-.313-.48c-2.156-10.733-9.677-14.78-9.758-14.82a.878.878 0 01-.264-.21.786.786 0 01-.155-.283.739.739 0 01.088-.617.844.844 0 01.23-.238.939.939 0 01.314-.14.988.988 0 01.682.079c.34.178 8.326 4.427 10.643 15.961a.75.75 0 01-.151.6.908.908 0 01-.574.33h-.16zm-24.204 0a.955.955 0 00.582-.183.798.798 0 00.312-.48c2.156-10.733 9.677-14.78 9.758-14.82a.878.878 0 00.264-.21.786.786 0 00.155-.283.739.739 0 00-.088-.617.844.844 0 00-.23-.238.939.939 0 00-.314-.14.988.988 0 00-.682.079c-.34.178-8.326 4.427-10.643 15.961a.75.75 0 00.151.6.908.908 0 00.574.33h.16z" fill="#636363" stroke="#fff" stroke-width=".5"/><path d="M51.403 24.375H8.597a.938.938 0 01-.938-.938c0-10.312 10.022-18.75 22.34-18.75 12.32 0 22.341 8.438 22.341 18.75a.937.937 0 01-.937.938zM9.563 22.5h40.874C49.847 13.613 40.903 6.562 30 6.562S10.153 13.613 9.562 22.5z" fill="#636363" stroke="#fff" stroke-width=".5"/><path d="M30 55a1.07 1.07 0 01-.707-.26.842.842 0 01-.293-.63V7.892s.174-.592.5-.773a1.098 1.098 0 011 0 .94.94 0 01.367.327.81.81 0 01.133.446v46.22a.842.842 0 01-.293.628A1.07 1.07 0 0130 55z" fill="#636363" stroke="#fff" stroke-width=".5"/><path d="M45 55.313H15a.938.938 0 010-1.876h30a.938.938 0 010 1.876z" fill="#636363" stroke="#fff" stroke-width=".5"/><path d="M23.438 54.375a.938.938 0 01-.938-.938v-9.374h-3.75v9.374a.938.938 0 01-1.875 0V43.126a.938.938 0 01.938-.938h5.625a.938.938 0 01.937.938v10.313a.938.938 0 01-.938.937z" fill="#319BA5" stroke="#fff" stroke-width=".5"/></svg>