<svg width="60" height="60" fill="none" xmlns="http://www.w3.org/2000/svg"><path d="M6.098 59.8c0 .11.09.2.2.2h20.197a.2.2 0 00.2-.2V31.16a.2.2 0 00-.2-.2H6.298a.2.2 0 00-.2.2V59.8zM7.5 32.7c0-.11.09-.2.2-.2h17.1c.11 0 .2.09.2.2v25.6a.2.2 0 01-.2.2H7.7a.2.2 0 01-.2-.2V32.7z" fill="#636363"/><path d="M18.273 36.3c0 .11.09.2.2.2h.827c.11 0 .2.09.2.2v4.558c0 1.564-1.54 3.242-3.104 3.242s-2.836-1.678-2.836-3.242V36.7c0-.11.09-.2.2-.2h.56a.2.2 0 00.2-.2v-1.1a.2.2 0 00-.2-.2h-3.353a.2.2 0 00-.2.2v1.1c0 .11.09.2.2.2h.833c.11 0 .2.09.2.2v4.558c0 2.575 1.822 4.67 4.396 4.67a4.675 4.675 0 004.67-4.67l-.063-4.555a.2.2 0 01.2-.203h.597a.2.2 0 00.2-.2v-1.1a.2.2 0 00-.2-.2h-3.327a.2.2 0 00-.2.2v1.1z" fill="#319BA5"/><path d="M20.37 12.196a.2.2 0 00-.2.2V29.8c0 .11.09.2.2.2h1.434a.2.2 0 00.2-.2V14.23a.2.2 0 01.2-.2h29.665a.2.2 0 01.2.2v43.737a.2.2 0 01-.2.2H27.855a.2.2 0 00-.2.2V59.8c0 .11.09.2.2.2h25.847a.2.2 0 00.2-.2V12.396a.2.2 0 00-.2-.2H20.37z" fill="#636363"/><path d="M31.845 15.95h-.876a.5.5 0 00-.5.5v.832a.5.5 0 00.5.5h.876a.5.5 0 00.5-.5v-.833a.5.5 0 00-.5-.5zm11.259 0h-.877a.5.5 0 00-.5.5v.832a.5.5 0 00.5.5h.877a.5.5 0 00.5-.5v-.833a.5.5 0 00-.5-.5zm-10.78-9.405a4.718 4.718 0 014.712-4.712 4.718 4.718 0 014.713 4.712v4.691h1.833v-4.69A6.553 6.553 0 0037.036 0a6.553 6.553 0 00-6.545 6.545v4.691h1.833v-4.69z" fill="#319BA5"/></svg>