<svg width="60" height="60" fill="none" xmlns="http://www.w3.org/2000/svg"><path d="M12.988 9.963h3.956c.96 0 1.74-.78 1.74-1.74V6.655c0-.96-.78-1.74-1.74-1.74h-3.956c-.96 0-1.74.78-1.74 1.74v1.568c0 .96.78 1.74 1.74 1.74zm-.22-3.308c0-.119.101-.22.22-.22h3.956c.12 0 .22.101.22.22v1.568c0 .119-.1.22-.22.22h-3.956a.223.223 0 01-.22-.22V6.655zm24.504 3.637a2.856 2.856 0 002.853-2.853 2.856 2.856 0 00-2.853-2.853 2.856 2.856 0 00-2.853 2.853 2.856 2.856 0 002.853 2.853zm0-4.186c.735 0 1.333.598 1.333 1.333s-.598 1.333-1.333 1.333a1.335 1.335 0 01-1.333-1.333c0-.735.598-1.333 1.333-1.333zm8.628 4.186a2.856 2.856 0 002.852-2.853A2.856 2.856 0 0045.9 4.586a2.857 2.857 0 00-2.854 2.853 2.857 2.857 0 002.854 2.853zm0-4.186a1.334 1.334 0 010 2.666 1.335 1.335 0 01-1.334-1.333c0-.735.598-1.333 1.334-1.333z" fill="#636363"/><path d="M50.79 0H9.21a5.64 5.64 0 00-5.634 5.633v48.734A5.64 5.64 0 009.21 60h41.58a5.64 5.64 0 005.634-5.633V5.634A5.64 5.64 0 0050.79 0zM9.21 1.52h41.58a4.118 4.118 0 014.114 4.113v7.281H5.096v-7.28A4.118 4.118 0 019.21 1.52zm41.58 56.96H9.21a4.118 4.118 0 01-4.114-4.113V14.435h49.808v39.932a4.118 4.118 0 01-4.114 4.113z" fill="#636363"/><path d="M44.934 32.012C43.484 25.098 37.339 19.89 30 19.89c-8.414 0-15.258 6.845-15.258 15.258a15.213 15.213 0 00.63 4.34C17.245 45.795 23.093 50.407 30 50.407c8.413 0 15.258-6.844 15.258-15.258a15.254 15.254 0 00-.324-3.136zM30 21.41c6.266 0 11.565 4.217 13.21 9.96-.31-.018-.611-.028-.905-.028-4.653 0-7.545 2.314-10.343 4.553-2.712 2.17-5.274 4.22-9.394 4.22-1.592 0-3.556-.477-5.84-1.415a13.711 13.711 0 01-.466-3.552c0-7.575 6.163-13.738 13.738-13.738zm0 27.476c-5.647 0-10.508-3.425-12.618-8.306 1.96.7 3.7 1.054 5.186 1.054 4.653 0 7.546-2.314 10.344-4.552 2.712-2.17 5.274-4.22 9.393-4.22.398 0 .812.02 1.252.06.118.724.181 1.468.181 2.226 0 7.575-6.163 13.738-13.738 13.738z" fill="#319BA5"/></svg>