<svg width="60" height="60" fill="none" xmlns="http://www.w3.org/2000/svg"><g clip-path="url(#clip0_121_274)"><path d="M11.888 19.267h-1.275a.3.3 0 00-.3.3v1.179a.3.3 0 00.3.3h1.275a.3.3 0 00.3-.3v-1.18a.3.3 0 00-.3-.3zm36.562 0h-1.275a.3.3 0 00-.3.3v1.179a.3.3 0 00.3.3h1.275a.3.3 0 00.3-.3v-1.18a.3.3 0 00-.3-.3zm-10.312 0h-1.276a.3.3 0 00-.3.3v1.179a.3.3 0 00.3.3h1.276a.3.3 0 00.3-.3v-1.18a.3.3 0 00-.3-.3zm-15 0h-1.276a.3.3 0 00-.3.3v1.179a.3.3 0 00.3.3h1.276a.3.3 0 00.3-.3v-1.18a.3.3 0 00-.3-.3z" fill="#319BA5"/><path d="M57.166 35.71A4.694 4.694 0 0060 31.407a4.694 4.694 0 00-2.813-4.295V15.915a6.078 6.078 0 00-6.07-6.071H35.133A6.07 6.07 0 0030 12.68a6.07 6.07 0 00-5.134-2.836H8.884a6.078 6.078 0 00-6.072 6.07v11.197A4.694 4.694 0 000 31.406a4.694 4.694 0 002.834 4.305A5.16 5.16 0 000 40.312a5.162 5.162 0 005.156 5.157h.469v4.687H7.5V45.47h45v4.687h1.875V45.47h.469A5.162 5.162 0 0060 40.312a5.161 5.161 0 00-2.834-4.601zm.959-4.304a2.816 2.816 0 01-2.813 2.813 2.816 2.816 0 01-2.812-2.813 2.816 2.816 0 012.812-2.812 2.816 2.816 0 012.813 2.812zm-5.622 3.75h-.4a3.27 3.27 0 00.109-.239c.094.083.19.164.291.24zm-21.565-3.258V15.915a4.2 4.2 0 014.195-4.196h15.983a4.2 4.2 0 014.196 4.196v10.804a4.674 4.674 0 00-3.43 1.497 3.299 3.299 0 00-2.73-1.45h-8.304c-1.82 0-3.3 1.48-3.3 3.3v3.618c0 .529.126 1.029.348 1.472h-6.958v-3.258zm19.735.174v1.612c0 .71-.49 1.305-1.148 1.472h-9.05a1.522 1.522 0 01-1.148-1.472v-3.618c0-.838.682-1.52 1.52-1.52h8.305c.839 0 1.521.682 1.521 1.52v.675a4.7 4.7 0 000 1.33zM4.688 15.915a4.2 4.2 0 014.196-4.196h15.982a4.2 4.2 0 014.197 4.196v19.241H7.497a4.683 4.683 0 001.878-3.75 4.693 4.693 0 00-4.687-4.687V15.915zM1.875 31.406a2.816 2.816 0 012.813-2.812A2.816 2.816 0 017.5 31.406a2.816 2.816 0 01-2.812 2.813 2.816 2.816 0 01-2.813-2.813zm52.969 12.188H5.156a3.285 3.285 0 01-3.281-3.282 3.285 3.285 0 013.281-3.28h49.688a3.285 3.285 0 013.28 3.28 3.285 3.285 0 01-3.28 3.282z" fill="#636363" stroke="#fff" stroke-width=".2"/></g><defs><clipPath id="clip0_121_274"><path fill="#fff" d="M0 0h60v60H0z"/></clipPath></defs></svg>