<svg width="60" height="60" fill="none" xmlns="http://www.w3.org/2000/svg"><g clip-path="url(#clip0_121_227)" stroke="#fff" stroke-width=".6"><path d="M20.551 43.29v-29.6c0-6.212 5.055-11.266 11.267-11.266 1.465 0 2.89.277 4.236.824h0a1.128 1.128 0 11-.849 2.091h0a8.963 8.963 0 00-3.387-.658c-4.968 0-9.01 4.041-9.01 9.009v5.834h14.315V13.69c0-6.212 5.054-11.266 11.266-11.266S59.655 7.479 59.655 13.69a1.129 1.129 0 01-2.257 0c0-4.968-4.041-9.01-9.009-9.01s-9.01 4.042-9.01 9.01v29.6c-.865.009-1.606.102-2.256.25v-9.185H22.808v9.172a10.73 10.73 0 00-2.257-.236zm2.557-21.508h-.3v10.315h14.315V21.782H23.108z" fill="#636363"/><path d="M35.342 47.414l.154.258-.154-.258-.002.002c-1.259.755-2.647 1.588-5.341 1.588-2.694 0-4.082-.833-5.34-1.588l-.002-.002h0l-.011-.006c-.563-.338-1.095-.657-1.74-.888-.652-.234-1.409-.373-2.43-.373-1.022 0-1.779.14-2.432.373-.644.23-1.176.55-1.739.888l-.01.006h0l-.003.002c-1.259.755-2.647 1.588-5.34 1.588s-4.082-.833-5.34-1.588l-.002-.002-.011-.006c-.563-.338-1.095-.657-1.74-.888-.652-.234-1.409-.373-2.43-.373A1.128 1.128 0 01.3 45.018v0c0-.623.506-1.128 1.129-1.128 2.693 0 4.082.833 5.34 1.588l.002.001h0l.011.007c.563.337 1.095.657 1.74.888.652.233 1.409.373 2.43.373 1.022 0 1.779-.14 2.432-.373.643-.231 1.176-.55 1.739-.888l.01-.007c1.225-.735 2.575-1.54 5.124-1.585h0l.085-.002.134-.002c1.021 0 1.852.12 2.556.307 1.163.31 1.992.806 2.786 1.282l.011.007c.563.338 1.095.657 1.739.888.653.233 1.41.373 2.431.373 1.022 0 1.779-.14 2.432-.373.643-.231 1.175-.55 1.738-.888l.012-.007c.779-.467 1.593-.953 2.722-1.263l-.08-.29.08.29c.717-.198 1.567-.326 2.62-.326l.075.001.079.002c2.593.032 3.954.845 5.189 1.586l.01.007c.564.337 1.096.657 1.74.887.653.234 1.41.374 2.431.374 1.022 0 1.779-.14 2.432-.374.644-.23 1.176-.55 1.739-.887l.01-.007-.153-.257.154.257.002-.001c1.258-.755 2.647-1.588 5.34-1.588a1.129 1.129 0 010 2.257c-1.021 0-1.778.14-2.43.373-.645.23-1.177.55-1.74.888l-.01.006.153.258-.154-.258-.002.002c-1.258.755-2.647 1.588-5.34 1.588-2.694 0-4.082-.833-5.34-1.588l-.003-.002-.011-.006c-.564-.338-1.096-.657-1.74-.888-.653-.234-1.409-.373-2.431-.373s-1.778.14-2.431.373c-.644.23-1.176.55-1.74.888l-.01.006zm-1.316 6.379l.154.257-.01.007c-.564.338-1.096.657-1.74.888-.653.234-1.41.373-2.431.373-1.022 0-1.778-.14-2.431-.373-.644-.231-1.176-.55-1.74-.888l-.01-.007-.003-.001c-1.258-.755-2.646-1.588-5.34-1.588-2.693 0-4.081.833-5.34 1.588l-.002.001h0l-.01.007c-.564.338-1.096.657-1.74.888-.653.234-1.41.373-2.43.373-1.023 0-1.78-.14-2.432-.373-.644-.231-1.176-.55-1.74-.888l-.01-.007h0l-.002-.001c-1.258-.755-2.647-1.588-5.34-1.588a1.129 1.129 0 000 2.257c1.021 0 1.778.14 2.43.374.645.23 1.177.55 1.74.887l.01.007.003.001c1.258.755 2.647 1.588 5.34 1.588s4.082-.833 5.34-1.588l.002-.001h0l.011-.006c.563-.338 1.095-.658 1.74-.888.652-.234 1.409-.374 2.43-.374 1.022 0 1.778.14 2.432.374.644.23 1.176.55 1.739.888l.01.006h0l.003.001c1.258.755 2.646 1.588 5.34 1.588s4.082-.833 5.34-1.588l.003-.001.154.257-.154-.257.01-.007c.564-.337 1.096-.657 1.74-.887.653-.234 1.41-.374 2.431-.374 1.022 0 1.778.14 2.431.374.644.23 1.176.55 1.74.887l.01.007.003.002c1.259.754 2.647 1.587 5.34 1.587 2.694 0 4.083-.833 5.341-1.588l.002-.001.154.257-.154-.257.01-.006c.564-.338 1.096-.658 1.74-.888.653-.234 1.41-.374 2.432-.374.623 0 1.128-.505 1.128-1.128l-25.674.203zm0 0l.154.257h.002c1.259-.756 2.647-1.589 5.34-1.589 2.694 0 4.083.833 5.34 1.588l.004.001.01.007c.564.338 1.096.657 1.74.888.653.234 1.41.373 2.431.373 1.022 0 1.779-.14 2.432-.373.644-.231 1.176-.55 1.739-.888l.01-.007-.154-.257m-19.048 0h19.048m0 0l.155.257h.002m-.157-.257l.157.256m0 0c1.258-.755 2.646-1.588 5.34-1.588m-5.34 1.588l5.34-1.588m0 0a1.13 1.13 0 011.13 1.129l-1.13-1.129z" fill="#319BA5"/></g><defs><clipPath id="clip0_121_227"><path fill="#fff" d="M0 0h60v60H0z"/></clipPath></defs></svg>