<svg width="60" height="60" fill="none" xmlns="http://www.w3.org/2000/svg"><g clip-path="url(#clip0_121_246)"><path d="M58.96 47.265h-2.91c-.257-7.86-3.433-14.222-9.111-18.427.001-.396.014-.855.028-1.383.117-4.22.334-12.076-4.492-17.037-2.848-2.929-7.039-4.413-12.455-4.413h-.04c-5.416 0-9.606 1.484-12.455 4.413-4.826 4.961-4.609 12.817-4.492 17.037.014.528.027.987.029 1.383-2.079 1.476-4.995 4.54-6.598 7.944C4.46 41.04 4 45.721 3.95 47.267H1.04a1.04 1.04 0 00-1.041 1.04v4.648a1.04 1.04 0 001.041 1.041h57.917c.575 0 1.042-.466 1.042-1.041v-4.647a1.04 1.04 0 00-1.04-1.042zM19.017 11.87c2.442-2.51 6.13-3.783 10.962-3.783h.04c4.833 0 8.521 1.273 10.963 3.783 4.212 4.331 4.011 11.614 3.903 15.527l-.003.08c-1.094-.693-3.162-1.59-3.336-1.663-1.763-.732-4.529-1.881-8.487-2.22v-1.413a4.578 4.578 0 001.54-3.424 4.585 4.585 0 00-4.58-4.579h-.04a4.578 4.578 0 00-3.04 8.003v1.414c-3.958.338-6.756 1.414-8.486 2.22-.816.379-2.447 1.134-3.337 1.661l-.002-.08c-.108-3.912-.31-11.195 3.903-15.526zm9.553 8.948a2.499 2.499 0 01-1.088-2.06 2.5 2.5 0 012.497-2.497l.02.001.02-.001a2.5 2.5 0 012.497 2.497 2.5 2.5 0 01-1.087 2.06 1.041 1.041 0 00-.452.858V23.5c-.072 0-.8-.085-1.955 0v-1.824c0-.343-.17-.664-.452-.858zm.665 4.762h1.527c3.115 0 5.523.548 7.396 1.168-1.897.544-4.798 1.17-8.159 1.202-3.361-.032-6.262-.659-8.159-1.202 1.873-.62 4.282-1.168 7.395-1.168zm28.682 26.332H2.083v-2.564h41.316a1.042 1.042 0 000-2.083H6.033c.228-6.592 2.728-14.921 12.724-19.323l.05-.02c.636.26 3.238 1.263 6.912 1.794 1.245.18 2.695.313 4.282.323a31.554 31.554 0 004.282-.323c3.673-.531 6.276-1.534 6.91-1.794l.051.02c9.996 4.402 12.496 12.731 12.724 19.323h-2.24a1.041 1.041 0 000 2.082h6.19v2.565z" fill="#636363" stroke="#fff" stroke-width=".4"/></g><defs><clipPath id="clip0_121_246"><path fill="#fff" d="M0 0h60v60H0z"/></clipPath></defs></svg>