<svg width="60" height="60" fill="none" xmlns="http://www.w3.org/2000/svg"><path clip-rule="evenodd" d="M20.406 49.73S4.836 47.018 2.08 34.589c-2.755-12.428 14.001-5.763 14.001-5.763s1.241.608 2.64.85c.56.098 1.145.137 1.685.055 1.893-.285 2.947-.722 5.27.573 1.668.927 4.008 4.692 5.193 6.74a6.99 6.99 0 002.064 2.25l6.662 4.609s7.813 3.828 3.975 10.4c-1.977 3.383-4.642 4.38-6.763 4.554-1.806.147-3.58-.521-4.928-1.802-2.474-2.35-7.688-6.888-11.473-7.323z" stroke="#636363" stroke-width="1.5"/><path d="M31.775 38.28l-14.317-7.223m2.062-1.29s-8.27 2.571-4.75 18.22" stroke="#636363" stroke-width="1.5"/><path clip-rule="evenodd" d="M34.018 26.715S18.98 21.658 17.946 8.938c-1.031-12.719 14.642-3.57 14.642-3.57s1.145.79 2.496 1.245c.54.18 1.114.309 1.66.31 1.91.006 3.015-.265 5.138 1.368 1.524 1.173 3.324 5.255 4.219 7.461a7.15 7.15 0 001.737 2.542l5.962 5.577s7.212 4.978 2.516 10.896c-2.417 3.046-5.19 3.627-7.312 3.476-1.807-.13-3.472-1.062-4.63-2.533-2.128-2.702-6.67-7.989-10.356-8.995z" stroke="#319BA5" stroke-width="1.5"/><path d="M46.829 17.116l-13.184-9.33m2.217-.962s-8.534 1.286-7.184 17.308" stroke="#319BA5" stroke-width="1.5"/></svg>