<svg width="60" height="60" fill="none" xmlns="http://www.w3.org/2000/svg"><g clip-path="url(#clip0_121_257)" stroke="#fff" stroke-width=".4"><path d="M21.242 20.402V.934a.937.937 0 00-.938-.938h-7.733a.937.937 0 00-.938.938V20.48a11.327 11.327 0 00-6.445 10.252v23.21c0 1.617.628 3.138 1.769 4.282a6.004 6.004 0 004.274 1.772h10.394c3.343 0 6.063-2.724 6.063-6.072V30.508c0-2.973-1.156-5.77-3.256-7.874a11.083 11.083 0 00-3.19-2.232zm-7.734-18.53h5.859v4.582h-5.859V1.871zM25.813 49.08H13.48V34.232h12.334V49.08zm0-16.723H12.542a.937.937 0 00-.938.937v16.723c0 .518.42.938.938.938h13.271v2.969a4.198 4.198 0 01-4.188 4.197H11.23A4.137 4.137 0 018.284 56.9a4.162 4.162 0 01-1.221-2.956V30.732a9.457 9.457 0 015.865-8.776.938.938 0 00.58-.867V8.33h5.859v12.69c0 .385.235.731.592.872a9.204 9.204 0 013.146 2.068 9.212 9.212 0 012.708 6.55v1.848z" fill="#636363"/><path d="M49.354 49.664c.436 0 .814-.3.913-.724l4.52-19.376a.94.94 0 00-.912-1.15H35.792a.94.94 0 00-.913 1.15l4.52 19.376a.937.937 0 00.913.724h3.584v8.45h-5.73a.945.945 0 100 1.89h13.126a.945.945 0 100-1.89H45.77v-8.45h3.583zm-8.297-1.875l-4.085-17.5h15.722l-4.084 17.5h-7.553z" fill="#319BA5"/></g><defs><clipPath id="clip0_121_257"><path fill="#fff" d="M0 0h60v60H0z"/></clipPath></defs></svg>