<svg width="60" height="60" fill="none" xmlns="http://www.w3.org/2000/svg"><g clip-path="url(#clip0_121_269)" stroke="#fff" stroke-width="1.6"><path d="M59.726 28.236a1.516 1.516 0 00-1.242-.646h-12.29a18.923 18.923 0 00-12.729-4.94h-9.613a4.476 4.476 0 013.09-1.224h6.474a1.516 1.516 0 00.79-2.81 29.303 29.303 0 00-15.26-4.286h-6.108a7.865 7.865 0 00-7.357 5.135 1.516 1.516 0 001.424 2.039h3.663L4.333 35.03A55.268 55.268 0 00.65 37.383c-.407.283-.65.748-.65 1.244v5.527c0 .837.679 1.516 1.516 1.516h35.477c5.03 0 9.867-1.525 13.988-4.41a24.266 24.266 0 008.928-11.636 1.516 1.516 0 00-.183-1.388zM36.993 42.638H3.033v-3.212a51.312 51.312 0 0128.816-8.804h24.347c-3.54 7.268-11.002 12.016-19.203 12.016zm-22.68-22.015a1.516 1.516 0 00-1.376-2.151H9.772a4.81 4.81 0 013.066-1.11h6.107c2.51 0 4.993.36 7.378 1.057a7.48 7.48 0 00-6.579 5.305 1.516 1.516 0 001.45 1.958h12.271c2.661 0 5.244.675 7.528 1.908H31.85c-8.067 0-15.915 1.753-23.11 5.124l5.574-12.091z" fill="#636363"/><path d="M30.518 34.841h-4.49a1.516 1.516 0 000 3.032h4.49a1.516 1.516 0 000-3.032zm12.842 0h-4.492a1.516 1.516 0 000 3.032h4.491a1.516 1.516 0 000-3.032z" fill="#319BA5"/></g><defs><clipPath id="clip0_121_269"><path fill="#fff" d="M0 0h60v60H0z"/></clipPath></defs></svg>