<svg width="20" height="21" viewBox="0 0 20 21" fill="none" xmlns="http://www.w3.org/2000/svg">
<path d="M15.3917 11.374C15.2951 11.2773 15.1804 11.2005 15.0542 11.1481C14.9279 11.0958 14.7926 11.0688 14.6559 11.0688C14.5192 11.0688 14.3839 11.0958 14.2576 11.1481C14.1314 11.2005 14.0167 11.2773 13.9201 11.374L12.2612 13.0329C11.492 12.804 10.0569 12.2836 9.14725 11.374C8.23765 10.4644 7.71727 9.02919 7.48831 8.26008L9.14725 6.60114C9.24399 6.50457 9.32073 6.38987 9.37309 6.26362C9.42545 6.13736 9.4524 6.00202 9.4524 5.86533C9.4524 5.72865 9.42545 5.5933 9.37309 5.46705C9.32073 5.34079 9.24399 5.22609 9.14725 5.12953L4.98428 0.966554C4.88771 0.869822 4.77302 0.79308 4.64676 0.740719C4.52051 0.688359 4.38516 0.661407 4.24848 0.661407C4.11179 0.661407 3.97645 0.688359 3.85019 0.740719C3.72394 0.79308 3.60924 0.869822 3.51267 0.966554L0.690179 3.78905C0.294697 4.18453 0.0719775 4.7278 0.0803035 5.28252C0.104241 6.76453 0.496601 11.912 4.55342 15.9689C8.61023 20.0257 13.7577 20.417 15.2408 20.442H15.2699C15.8195 20.442 16.3388 20.2255 16.7322 19.8321L19.5547 17.0096C19.6514 16.913 19.7282 16.7983 19.7805 16.6721C19.8329 16.5458 19.8598 16.4105 19.8598 16.2738C19.8598 16.1371 19.8329 16.0018 19.7805 15.8755C19.7282 15.7493 19.6514 15.6346 19.5547 15.538L15.3917 11.374ZM15.2595 18.3594C13.9607 18.3376 9.51672 17.9889 6.02503 14.4962C2.52189 10.9931 2.1826 6.53349 2.16179 5.26066L4.24848 3.17397L6.93984 5.86533L5.59416 7.21101C5.47183 7.33325 5.38189 7.48404 5.33247 7.64976C5.28304 7.81547 5.27569 7.9909 5.31108 8.16017C5.33605 8.27985 5.94697 11.118 7.6746 12.8456C9.40224 14.5732 12.2403 15.1841 12.36 15.2091C12.5292 15.2455 12.7048 15.2387 12.8707 15.1895C13.0365 15.1402 13.1873 15.0499 13.3092 14.9271L14.6559 13.5814L17.3473 16.2728L15.2595 18.3594Z" fill="#FD780F"/>
</svg>
