<svg width="29" height="29" viewBox="0 0 29 29" fill="none" xmlns="http://www.w3.org/2000/svg">
<path d="M8.45768 26.5833H4.83268C4.19174 26.5833 3.57705 26.3287 3.12384 25.8755C2.67063 25.4223 2.41602 24.8076 2.41602 24.1666V15.7083C2.41602 15.0674 2.67063 14.4527 3.12384 13.9995C3.57705 13.5462 4.19174 13.2916 4.83268 13.2916H8.45768M16.916 10.875V6.04163C16.916 5.08022 16.5341 4.15818 15.8543 3.47836C15.1745 2.79854 14.2524 2.41663 13.291 2.41663L8.45768 13.2916V26.5833H22.0877C22.6705 26.5899 23.2361 26.3856 23.6802 26.0081C24.1242 25.6307 24.417 25.1054 24.5044 24.5291L26.1718 13.6541C26.2244 13.3078 26.2011 12.9541 26.1034 12.6177C26.0057 12.2812 25.8361 11.9701 25.6062 11.7057C25.3763 11.4413 25.0917 11.2301 24.7721 11.0867C24.4525 10.9432 24.1055 10.871 23.7552 10.875H16.916Z" stroke="white" stroke-width="2" stroke-linecap="round" stroke-linejoin="round"/>
</svg>
