<svg width="21" height="21" viewBox="0 0 21 21" fill="none" xmlns="http://www.w3.org/2000/svg">
<path d="M10.3624 0.256104C4.9032 0.256104 0.482422 4.68677 0.482422 10.146C0.482422 15.6052 4.9032 20.0359 10.3624 20.0359C15.8315 20.0359 20.2622 15.6052 20.2622 10.146C20.2622 4.68677 15.8315 0.256104 10.3624 0.256104ZM10.3723 18.0579C6.00097 18.0579 2.4604 14.5173 2.4604 10.146C2.4604 5.77465 6.00097 2.23408 10.3723 2.23408C14.7436 2.23408 18.2842 5.77465 18.2842 10.146C18.2842 14.5173 14.7436 18.0579 10.3723 18.0579Z" fill="#FD780F"/>
<path d="M10.8663 5.20074H9.38281V11.1347L14.575 14.25L15.3167 13.0335L10.8663 10.3929V5.20074Z" fill="#FD780F"/>
</svg>
