<svg width="17" height="20" viewBox="0 0 17 20" fill="none" xmlns="http://www.w3.org/2000/svg">
<path fill-rule="evenodd" clip-rule="evenodd" d="M8.16523 4.58715C6.18916 4.58715 4.58724 6.18907 4.58724 8.16513C4.58724 10.1412 6.18916 11.7431 8.16523 11.7431C10.1413 11.7431 11.7432 10.1412 11.7432 8.16513C11.7432 6.18907 10.1413 4.58715 8.16523 4.58715ZM6.23862 8.16513C6.23862 7.1011 7.10119 6.23853 8.16523 6.23853C9.22926 6.23853 10.0918 7.1011 10.0918 8.16513C10.0918 9.22917 9.22926 10.0917 8.16523 10.0917C7.10119 10.0917 6.23862 9.22917 6.23862 8.16513Z" fill="#FD780F"/>
<path fill-rule="evenodd" clip-rule="evenodd" d="M8.16514 0C5.99961 0 3.92277 0.860253 2.39151 2.39151C0.860253 3.92277 0 5.99961 0 8.16514C0 9.09133 0.0982813 9.90254 0.352257 10.6687C0.607452 11.4386 1.00619 12.122 1.55754 12.81C1.56416 12.8182 1.57094 12.8263 1.57787 12.8343L7.54117 19.7151C7.69801 19.896 7.92567 20 8.16514 20C8.4046 20 8.63227 19.896 8.7891 19.7151L14.7524 12.8343C14.7593 12.8263 14.7661 12.8182 14.7727 12.81C15.3241 12.122 15.7228 11.4386 15.978 10.6687C16.232 9.90254 16.3303 9.09133 16.3303 8.16514C16.3303 5.99961 15.47 3.92277 13.9388 2.39151C12.4075 0.860253 10.3307 0 8.16514 0ZM3.55921 3.55921C4.78078 2.33765 6.43758 1.65138 8.16514 1.65138C9.89269 1.65138 11.5495 2.33765 12.7711 3.55921C13.9926 4.78078 14.6789 6.43758 14.6789 8.16514C14.6789 8.97472 14.5928 9.59929 14.4105 10.1492C14.2308 10.6915 13.9442 11.201 13.4938 11.7651L8.16514 17.9136L2.83644 11.7651C2.38604 11.201 2.09952 10.6914 1.91976 10.1492C1.7375 9.59929 1.65138 8.97472 1.65138 8.16514C1.65138 6.43758 2.33765 4.78078 3.55921 3.55921Z" fill="#FD780F"/>
</svg>
