<svg width="14" height="23" viewBox="0 0 14 23" fill="none" xmlns="http://www.w3.org/2000/svg">
<path d="M6.816 22.88V0.319999H8.352V22.88H6.816ZM7.416 20.192C6.136 20.192 4.912 20 3.744 19.616C2.576 19.216 1.656 18.704 0.984 18.08L1.872 16.208C2.512 16.768 3.328 17.232 4.32 17.6C5.312 17.968 6.344 18.152 7.416 18.152C8.392 18.152 9.184 18.04 9.792 17.816C10.4 17.592 10.848 17.288 11.136 16.904C11.424 16.504 11.568 16.056 11.568 15.56C11.568 14.984 11.376 14.52 10.992 14.168C10.624 13.816 10.136 13.536 9.528 13.328C8.936 13.104 8.28 12.912 7.56 12.752C6.84 12.592 6.112 12.408 5.376 12.2C4.656 11.976 3.992 11.696 3.384 11.36C2.792 11.024 2.312 10.576 1.944 10.016C1.576 9.44 1.392 8.704 1.392 7.808C1.392 6.944 1.616 6.152 2.064 5.432C2.528 4.696 3.232 4.112 4.176 3.68C5.136 3.232 6.352 3.008 7.824 3.008C8.8 3.008 9.768 3.136 10.728 3.392C11.688 3.648 12.52 4.016 13.224 4.496L12.432 6.416C11.712 5.936 10.952 5.592 10.152 5.384C9.352 5.16 8.576 5.048 7.824 5.048C6.88 5.048 6.104 5.168 5.496 5.408C4.888 5.648 4.44 5.968 4.152 6.368C3.88 6.768 3.744 7.216 3.744 7.712C3.744 8.304 3.928 8.776 4.296 9.128C4.68 9.48 5.168 9.76 5.76 9.968C6.368 10.176 7.032 10.368 7.752 10.544C8.472 10.704 9.192 10.888 9.912 11.096C10.648 11.304 11.312 11.576 11.904 11.912C12.512 12.248 13 12.696 13.368 13.256C13.736 13.816 13.92 14.536 13.92 15.416C13.92 16.264 13.688 17.056 13.224 17.792C12.76 18.512 12.04 19.096 11.064 19.544C10.104 19.976 8.888 20.192 7.416 20.192Z" fill="#FD780F"/>
</svg>
