<svg width="34" height="37" viewBox="0 0 34 37" fill="none" xmlns="http://www.w3.org/2000/svg">
<path fill-rule="evenodd" clip-rule="evenodd" d="M15.3667 0.23485C16.0974 -0.0385713 16.8959 -0.0742167 17.6481 0.132999L17.9667 0.23485L30.9296 5.09596C31.5869 5.34243 32.1606 5.7706 32.5839 6.3306C33.0072 6.89059 33.2626 7.55934 33.3204 8.25892L33.3333 8.56448V18.496C33.3333 21.4967 32.523 24.4418 30.9882 27.0204C29.4533 29.5989 27.2507 31.7153 24.613 33.146L24.1204 33.4034L17.9093 36.5089C17.5673 36.6797 17.1937 36.778 16.812 36.7978C16.4302 36.8175 16.0485 36.7583 15.6907 36.6237L15.4241 36.5089L9.21296 33.4034C6.52891 32.0613 4.25699 30.0195 2.63704 27.4934C1.0171 24.9673 0.109223 22.0507 0.00925947 19.0515L0 18.496V8.56448C1.07686e-05 7.86287 0.199309 7.17569 0.574692 6.58294C0.950076 5.9902 1.4861 5.51627 2.12037 5.21633L2.4037 5.09596L15.3667 0.23485ZM23.0241 12.1497L14.5093 20.6645L11.2352 17.3904C10.8877 17.0432 10.4165 16.8482 9.92527 16.8484C9.43403 16.8485 8.96298 17.0438 8.61574 17.3913C8.2685 17.7388 8.07353 18.21 8.0737 18.7012C8.07387 19.1925 8.26918 19.6635 8.61667 20.0108L13.0685 24.4626C13.2577 24.6519 13.4823 24.802 13.7295 24.9044C13.9767 25.0069 14.2417 25.0596 14.5093 25.0596C14.7768 25.0596 15.0418 25.0069 15.289 24.9044C15.5362 24.802 15.7608 24.6519 15.95 24.4626L25.6426 14.7682C25.8195 14.5974 25.9605 14.393 26.0576 14.1671C26.1546 13.9411 26.2057 13.6981 26.2079 13.4523C26.21 13.2064 26.1632 12.9625 26.07 12.7349C25.9769 12.5073 25.8394 12.3006 25.6655 12.1267C25.4917 11.9528 25.2849 11.8153 25.0573 11.7222C24.8297 11.6291 24.5859 11.5822 24.34 11.5844C24.0941 11.5865 23.8511 11.6376 23.6252 11.7347C23.3992 11.8317 23.1949 11.9728 23.0241 12.1497Z" fill="#FD780F"/>
</svg>
