<svg width="22" height="22" fill="none" xmlns="http://www.w3.org/2000/svg"><path fill-rule="evenodd" clip-rule="evenodd" d="M11 2c-2.443 0-2.75.01-3.71.054-.958.044-1.612.196-2.185.419A4.407 4.407 0 003.511 3.51c-.5.5-.808 1.003-1.039 1.594-.223.573-.375 1.227-.418 2.185C2.011 8.249 2 8.556 2 11s.01 2.75.054 3.71c.044.958.196 1.612.419 2.185a4.41 4.41 0 001.038 1.594c.5.5 1.002.809 1.593 1.039.573.222 1.227.374 2.185.418.96.043 1.267.054 3.71.054 2.445 0 2.751-.01 3.711-.054.958-.044 1.613-.196 2.185-.418a4.402 4.402 0 001.594-1.04c.5-.5.808-1.002 1.038-1.593.222-.573.374-1.227.419-2.185.043-.96.054-1.266.054-3.71s-.011-2.75-.054-3.71c-.045-.96-.197-1.613-.419-2.185A4.416 4.416 0 0018.49 3.51c-.5-.5-1.002-.808-1.594-1.037-.574-.223-1.228-.375-2.186-.419C13.75 2.011 13.444 2 10.999 2h.003zm-.298 1.622h.3c2.403 0 2.688.008 3.637.052.878.04 1.354.186 1.671.31.42.163.72.358 1.034.673a2.8 2.8 0 01.674 1.035c.123.316.27.793.31 1.67.043.949.052 1.234.052 3.636s-.009 2.687-.052 3.636c-.04.877-.187 1.353-.31 1.67-.163.42-.359.72-.674 1.034-.315.315-.614.51-1.034.673-.317.124-.793.27-1.67.31-.95.043-1.235.053-3.638.053-2.403 0-2.688-.01-3.636-.053-.878-.04-1.354-.187-1.672-.31a2.787 2.787 0 01-1.035-.673 2.79 2.79 0 01-.673-1.035c-.123-.316-.27-.793-.31-1.67-.043-.949-.052-1.234-.052-3.637 0-2.404.009-2.687.052-3.636.04-.878.187-1.354.31-1.671.163-.42.358-.72.673-1.035a2.8 2.8 0 011.035-.674c.318-.123.794-.27 1.672-.31.83-.037 1.152-.049 2.829-.05v.002h.507zm4.024 2.574a1.08 1.08 0 112.16 0 1.08 1.08 0 01-2.16 0zm-3.727.182a4.622 4.622 0 100 9.244 4.622 4.622 0 000-9.244zm3 4.622a3 3 0 10-6 0 3 3 0 006 0z" fill="#fff"/></svg>