<svg width="28" height="22" fill="none" xmlns="http://www.w3.org/2000/svg"><path fill-rule="evenodd" clip-rule="evenodd" d="M25.435 4.952c.178-.537 0-.928-.788-.928H22.03c-.66 0-.966.342-1.144.708 0 0-1.347 3.124-3.228 5.149-.61.586-.89.78-1.22.78-.178 0-.406-.194-.406-.731V4.927c0-.634-.204-.927-.763-.927H11.15c-.406 0-.66.293-.66.586 0 .61.94.756 1.042 2.464v3.71c0 .805-.153.951-.483.951-.89 0-3.05-3.148-4.347-6.735C6.448 4.268 6.194 4 5.533 4H2.89c-.763 0-.89.342-.89.708 0 .659.89 3.977 4.143 8.37 2.16 3.001 5.236 4.612 8.007 4.612 1.677 0 1.88-.366 1.88-.976v-2.27c0-.732.153-.854.687-.854.381 0 1.068.195 2.618 1.635 1.78 1.708 2.084 2.49 3.075 2.49h2.619c.762 0 1.118-.367.915-1.075-.23-.707-1.093-1.732-2.212-2.952-.61-.683-1.525-1.44-1.805-1.806-.38-.488-.279-.683 0-1.123-.025 0 3.178-4.343 3.508-5.807z" fill="#fff"/></svg>