<svg width="22" height="22" fill="none" xmlns="http://www.w3.org/2000/svg"><path fill-rule="evenodd" clip-rule="evenodd" d="M7.846 2.353c1.583-.34 3.056-.445 5.36-.268 2.312.177 4.152.853 5.094 1.702.488.44.909 1.187 1.208 2.037.301.856.49 1.85.49 2.813l.001.402c.003.824.005 1.742-.07 2.61-.088 1.007-.284 1.996-.74 2.722-.42.665-.815 1.282-1.615 1.78-.79.493-1.95.854-3.872 1.101-1.174.151-2.225.13-2.953.115l-.362-.007L6.884 21v-4.2c-.926-.276-1.941-.877-2.617-1.8C3.407 13.823 3 12.624 3 10.7v-.021c0-1.858 0-3.532.715-5.35.676-1.72 2.545-2.637 4.131-2.977zm-1.683 4.85c.392 1.294 1.274 2.982 3.082 4.758 1.176 1.155 2.913 2.353 4.33 2.913 1.077.426 1.425.175 1.674-.044l.01-.008c.249-.218.595-.522.89-.971l.042-.064c.28-.419.476-.712-.942-1.712-1.301-.919-1.817-1.05-2.182-.569a.949.949 0 01-.085.119 7.078 7.078 0 00-.28.389c-.277.41-1.437.273-2.673-1.103C8.756 9.494 9.014 8.83 9.317 8.55l.534-.437c.339-.315.333-.618-.579-1.933-.912-1.316-1.479-1.225-1.844-.989l-.837.613-.013.01c-.31.251-.67.545-.415 1.39zm5.176-2.188a.195.195 0 00-.196.193c0 .107.088.193.196.193.66 0 1.773.194 2.715.857.93.656 1.712 1.78 1.712 3.682 0 .107.088.194.197.194a.195.195 0 00.196-.194c0-2.025-.84-3.267-1.876-3.996-1.024-.721-2.223-.93-2.944-.93zm.223 1.417c0-.106.088-.193.197-.193.48 0 1.275.138 1.956.618.692.487 1.249 1.316 1.249 2.655a.195.195 0 01-.197.193.195.195 0 01-.197-.193c0-1.217-.497-1.928-1.085-2.341a3.161 3.161 0 00-1.726-.545.195.195 0 01-.197-.194zm.499 1.015a.195.195 0 00-.197.193c0 .107.088.193.197.193.19 0 .517.058.79.25.261.184.49.503.49 1.07 0 .107.089.193.198.193a.195.195 0 00.197-.193c0-.69-.29-1.126-.656-1.385a1.85 1.85 0 00-1.02-.321z" fill="#fff"/></svg>